<?xml version="1.0" standalone="no"?>
<!DOCTYPE svg PUBLIC "-//W3C//DTD SVG 1.1//EN"
	"http://www.w3.org/Graphics/SVG/1.1/DTD/svg11.dtd">
<svg xmlns="http://www.w3.org/2000/svg" version="1.1"
	xmlns:xlink="http://www.w3.org/1999/xlink"
	xml:space='preserve' color="black"
	width="7.38in" height="6.93in" viewBox="0 0 531 499">
<title>compare.abc (1) tune 1</title>
<!-- Creator: abcm2ps-7.8.9 -->
<!-- CreationDate: Jul 30, 2018 12:49 -->
<!-- CommandLine: compare.abc -g -->
<g transform="scale(0.750)" stroke-width="0.70" font-family="Times" font-size="20.00">
<text x="354.13" y="21.67" text-anchor="middle">Mazurka : Boite de Jazz</text>
</g>
<g transform="scale(0.750)" stroke-width="0.70" font-family="Times" font-size="14.00" font-style="italic">
<text x="694.93" y="45.34" text-anchor="end">Christian Josué, fichier abc : Bernard Loffet</text>
</g>
<g transform="scale(0.525)" stroke-width="0.70" font-family="Times" font-size="14.00" font-style="italic">
<defs>
<ellipse id="hd" rx="4.1" ry="2.9"
	transform="rotate(-20)" fill="currentColor"/>
</defs>
<use x="89.90" y="94.16" xlink:href="#hd"/>
<circle fill="currentColor" cx="97.90" cy="94.16" r="1.2"/>
<path d="M93.40 94.16v-20.00" stroke="currentColor" fill="none"/>
</g>
<g transform="scale(0.750)" stroke-width="0.70" font-family="Times" font-size="15.00" font-weight="bold">
<text x="73.43" y="68.01">= 300</text>
<path stroke="currentColor" fill="none"
	d="M203.03 120.01v-24.00"/>
<path stroke="currentColor" fill="none"
	d="M360.63 120.01v-24.00"/>
<path stroke="currentColor" fill="none"
	d="M537.43 120.01v-24.00"/>
<path stroke="currentColor" fill="none"
	d="M694.93 120.01v-24.00"/>
<path stroke="currentColor" fill="none"
	d="M13.33 120.01h681.60m-681.60 -6h681.60m-681.60 -6h681.60m-681.60 -6h681.60m-681.60 -6h681.60"/>
</g>
<g transform="scale(0.750)" stroke-width="0.70" font-family="Helvetica" font-size="12.00">
<text x="54.43" y="83.61">Am</text>
<text x="207.63" y="83.61">Am</text>
<text x="369.33" y="83.61">G</text>
<text x="547.03" y="83.61">F</text>
<defs>
<path id="utclef" fill="currentColor" d="m-50 -90
	c-72 -41 -72 -158 52 -188
	c150 -10 220 188 90 256
	c-114 52 -275 0 -293 -136
	c-15 -181 93 -229 220 -334
	c88 -87 79 -133 62 -210
	c-51 33 -94 105 -89 186
	c17 267 36 374 49 574
	c6 96 -19 134 -77 135
	c-80 1 -126 -93 -61 -133
	c85 -41 133 101 31 105
	c23 17 92 37 90 -92
	c-10 -223 -39 -342 -50 -617
	c0 -90 0 -162 96 -232
	c56 72 63 230 22 289
	c-74 106 -257 168 -255 316
	c9 153 148 185 252 133
	c86 -65 29 -192 -80 -176
	c-71 12 -105 67 -59 124"/>
<use id="tclef" transform="scale(0.045)"
	xlink:href="#utclef"/>
</defs>
<use x="25.33" y="120.01" xlink:href="#tclef"/>
<g font-family="serif" font-size="16" font-weight="bold" font-style="normal"
	transform="translate(43.83,120.01) scale(1.2,1)">
	<text y="-1" text-anchor="middle">8</text>
	<text y="-13" text-anchor="middle">9</text>
</g>
<defs>
<rect id="r2" fill="currentColor"
	x="-3.5" y="-3" width="7" height="3"/>
</defs>
<use x="62.33" y="108.01" xlink:href="#r2"/>
<defs>
<path id="r8e" fill="currentColor" d="m 0 0
	c-1.5 1.5 -2.4 2 -3.6 2
	c2.4 -2.8 -2.8 -4 -2.8 -1.2
	c0 2.7 4.3 2.4 5.9 0.6"/>
<g id="r8">
	<path d="m3.3 -4l-3.4 9.6" stroke="currentColor" fill="none"/>
	<use x="3.4" y="-4" xlink:href="#r8e"/>
</g>
</defs>
<use x="104.93" y="108.01" xlink:href="#r8"/>
<use x="126.33" y="120.01" xlink:href="#hd"/>
<path d="M129.83 120.01v-20.00" stroke="currentColor" fill="none"/>
<path fill="currentColor"
	d="	M129.83 100.01c0.6 5.6 9.6 9 5.6 18.4
	c1.6 -6 -1.3 -11.6 -5.6 -12.8
"/>
<use x="150.33" y="111.01" xlink:href="#hd"/>
<path d="M153.83 111.01v-20.00" stroke="currentColor" fill="none"/>
<use x="183.73" y="108.01" xlink:href="#hd"/>
<path d="M187.23 108.01v-20.00" stroke="currentColor" fill="none"/>
<path fill="currentColor"
	d="	M187.23 88.01c0.6 5.6 9.6 9 5.6 18.4
	c1.6 -6 -1.3 -11.6 -5.6 -12.8
"/>
<use x="215.53" y="105.01" xlink:href="#hd"/>
<circle fill="currentColor" cx="223.53" cy="105.01" r="1.2"/>
<path d="M212.03 105.01v20.00" stroke="currentColor" fill="none"/>
<use x="253.83" y="108.01" xlink:href="#hd"/>
<path d="M250.33 108.01v20.00" stroke="currentColor" fill="none"/>
<use x="284.03" y="111.01" xlink:href="#hd"/>
<path d="M287.53 111.01v-20.00" stroke="currentColor" fill="none"/>
<path fill="currentColor"
	d="	M287.53 91.01c0.6 5.6 9.6 9 5.6 18.4
	c1.6 -6 -1.3 -11.6 -5.6 -12.8
"/>
<use x="307.93" y="108.01" xlink:href="#hd"/>
<path d="M311.43 108.01v-20.00" stroke="currentColor" fill="none"/>
<use x="341.43" y="111.01" xlink:href="#hd"/>
<path d="M344.93 111.01v-20.00" stroke="currentColor" fill="none"/>
<path fill="currentColor"
	d="	M344.93 91.01c0.6 5.6 9.6 9 5.6 18.4
	c1.6 -6 -1.3 -11.6 -5.6 -12.8
"/>
<use x="373.13" y="114.01" xlink:href="#hd"/>
<path d="M376.63 114.01v-20.00" stroke="currentColor" fill="none"/>
<use x="406.63" y="108.01" xlink:href="#hd"/>
<path d="M410.13 108.01v-20.00" stroke="currentColor" fill="none"/>
<path fill="currentColor"
	d="	M410.13 88.01c0.6 5.6 9.6 9 5.6 18.4
	c1.6 -6 -1.3 -11.6 -5.6 -12.8
"/>
<defs>
<path id="r4" fill="currentColor" d="m-1 -8.5
	l3.6 5.1 -2.1 5.2 2.2 4.3
	c-2.6 -2.3 -5.1 0 -2.4 2.6
	c-4.8 -3 -1.5 -6.9 1.4 -4.1
	l-3.1 -4.5 1.9 -5.1 -1.5 -3.5"/>
</defs>
<use x="430.63" y="108.01" xlink:href="#r4"/>
<use x="460.83" y="120.01" xlink:href="#hd"/>
<path d="M464.33 120.01v-20.00" stroke="currentColor" fill="none"/>
<path fill="currentColor"
	d="	M464.33 100.01c0.6 5.6 9.6 9 5.6 18.4
	c1.6 -6 -1.3 -11.6 -5.6 -12.8
"/>
<use x="484.73" y="111.01" xlink:href="#hd"/>
<path d="M488.23 111.01v-20.00" stroke="currentColor" fill="none"/>
<use x="518.23" y="108.01" xlink:href="#hd"/>
<path d="M521.73 108.01v-20.00" stroke="currentColor" fill="none"/>
<path fill="currentColor"
	d="	M521.73 88.01c0.6 5.6 9.6 9 5.6 18.4
	c1.6 -6 -1.3 -11.6 -5.6 -12.8
"/>
<use x="549.93" y="105.01" xlink:href="#hd"/>
<circle fill="currentColor" cx="557.93" cy="105.01" r="1.2"/>
<path d="M546.43 105.01v20.00" stroke="currentColor" fill="none"/>
<use x="588.23" y="108.01" xlink:href="#hd"/>
<path d="M584.73 108.01v20.00" stroke="currentColor" fill="none"/>
<use x="621.73" y="105.01" xlink:href="#hd"/>
<path d="M618.23 105.01v20.00" stroke="currentColor" fill="none"/>
<path fill="currentColor"
	d="M618.23 125.01c0.6 -5.6 9.6 -9 5.6 -18.4
	c1.6 6 -1.3 11.6 -5.6 12.8
"/>
<use x="645.53" y="105.01" xlink:href="#hd"/>
<path d="M642.03 105.01v20.00" stroke="currentColor" fill="none"/>
<use x="675.63" y="114.01" xlink:href="#hd"/>
<path d="M679.13 114.01v-20.00" stroke="currentColor" fill="none"/>
<path fill="currentColor"
	d="	M679.13 94.01c0.6 5.6 9.6 9 5.6 18.4
	c1.6 -6 -1.3 -11.6 -5.6 -12.8
"/>
<path stroke="currentColor" fill="none"
	d="M198.83 191.01v-24.00"/>
<path stroke="currentColor" fill="none"
	d="M357.33 191.01v-24.00"/>
<path stroke="currentColor" fill="none"
	d="M533.53 191.01v-24.00"/>
<path stroke="currentColor" fill="none"
	d="M694.93 191.01v-24.00"/>
<path stroke="currentColor" fill="none"
	d="M13.33 191.01h681.60m-681.60 -6h681.60m-681.60 -6h681.60m-681.60 -6h681.60m-681.60 -6h681.60"/>
<text x="46.33" y="154.61">C</text>
<text x="203.43" y="154.61">Am</text>
<text x="366.03" y="154.61">G</text>
<text x="543.13" y="154.61">F</text>
<use x="25.33" y="191.01" xlink:href="#tclef"/>
<use x="49.83" y="170.01" xlink:href="#hd"/>
<circle fill="currentColor" cx="57.83" cy="170.01" r="1.2"/>
<path d="M46.33 170.01v20.00" stroke="currentColor" fill="none"/>
<use x="88.33" y="179.01" xlink:href="#r4"/>
<use x="122.03" y="173.01" xlink:href="#hd"/>
<path d="M118.53 173.01v20.00" stroke="currentColor" fill="none"/>
<path fill="currentColor"
	d="M118.53 193.01c0.6 -5.6 9.6 -9 5.6 -18.4
	c1.6 6 -1.3 11.6 -5.6 12.8
"/>
<use x="145.93" y="176.01" xlink:href="#hd"/>
<path d="M142.43 176.01v20.00" stroke="currentColor" fill="none"/>
<use x="179.73" y="179.01" xlink:href="#hd"/>
<path d="M176.23 179.01v20.00" stroke="currentColor" fill="none"/>
<path fill="currentColor"
	d="M176.23 199.01c0.6 -5.6 9.6 -9 5.6 -18.4
	c1.6 6 -1.3 11.6 -5.6 12.8
"/>
<use x="211.33" y="176.01" xlink:href="#hd"/>
<circle fill="currentColor" cx="219.33" cy="176.01" r="1.2"/>
<path d="M207.83 176.01v20.00" stroke="currentColor" fill="none"/>
<use x="249.83" y="179.01" xlink:href="#hd"/>
<path d="M246.33 179.01v20.00" stroke="currentColor" fill="none"/>
<use x="280.23" y="182.01" xlink:href="#hd"/>
<path d="M283.73 182.01v-20.00" stroke="currentColor" fill="none"/>
<path fill="currentColor"
	d="	M283.73 162.01c0.6 5.6 9.6 9 5.6 18.4
	c1.6 -6 -1.3 -11.6 -5.6 -12.8
"/>
<use x="304.33" y="179.01" xlink:href="#hd"/>
<path d="M307.83 179.01v-20.00" stroke="currentColor" fill="none"/>
<use x="338.03" y="182.01" xlink:href="#hd"/>
<path d="M341.53 182.01v-20.00" stroke="currentColor" fill="none"/>
<path fill="currentColor"
	d="	M341.53 162.01c0.6 5.6 9.6 9 5.6 18.4
	c1.6 -6 -1.3 -11.6 -5.6 -12.8
"/>
<use x="369.83" y="185.01" xlink:href="#hd"/>
<path d="M373.33 185.01v-20.00" stroke="currentColor" fill="none"/>
<use x="403.53" y="179.01" xlink:href="#hd"/>
<path d="M407.03 179.01v-20.00" stroke="currentColor" fill="none"/>
<path fill="currentColor"
	d="	M407.03 159.01c0.6 5.6 9.6 9 5.6 18.4
	c1.6 -6 -1.3 -11.6 -5.6 -12.8
"/>
<use x="427.63" y="185.01" xlink:href="#hd"/>
<path d="M431.13 185.01v-20.00" stroke="currentColor" fill="none"/>
<path fill="currentColor"
	d="	M431.13 165.01c0.6 5.6 9.6 9 5.6 18.4
	c1.6 -6 -1.3 -11.6 -5.6 -12.8
"/>
<use x="451.63" y="191.01" xlink:href="#hd"/>
<path d="M455.13 191.01v-20.00" stroke="currentColor" fill="none"/>
<path fill="currentColor"
	d="	M455.13 171.01c0.6 5.6 9.6 9 5.6 18.4
	c1.6 -6 -1.3 -11.6 -5.6 -12.8
"/>
<use x="475.73" y="182.01" xlink:href="#hd"/>
<circle fill="currentColor" cx="483.73" cy="182.01" r="1.2"/>
<path d="M479.23 182.01v-20.00" stroke="currentColor" fill="none"/>
<use x="514.23" y="179.01" xlink:href="#hd"/>
<path d="M517.73 179.01v-20.00" stroke="currentColor" fill="none"/>
<path fill="currentColor"
	d="	M517.73 159.01c0.6 5.6 9.6 9 5.6 18.4
	c1.6 -6 -1.3 -11.6 -5.6 -12.8
"/>
<use x="546.03" y="176.01" xlink:href="#hd"/>
<path d="M542.53 176.01v20.00" stroke="currentColor" fill="none"/>
<use x="576.43" y="182.01" xlink:href="#hd"/>
<path d="M579.93 182.01v-20.00" stroke="currentColor" fill="none"/>
<use x="610.13" y="182.01" xlink:href="#hd"/>
<path d="M613.63 182.01v-20.00" stroke="currentColor" fill="none"/>
<path fill="currentColor"
	d="	M613.63 162.01c0.6 5.6 9.6 9 5.6 18.4
	c1.6 -6 -1.3 -11.6 -5.6 -12.8
"/>
<use x="634.23" y="185.01" xlink:href="#hd"/>
<path d="M637.73 185.01v-20.00" stroke="currentColor" fill="none"/>
<defs>
<path id="hl" stroke="currentColor" d="m-6 0h12"/>
</defs>
<use x="667.93" y="197.01" xlink:href="#hl"/>
<use x="667.93" y="197.01" xlink:href="#hd"/>
<path d="M671.43 197.01v-20.00" stroke="currentColor" fill="none"/>
<path stroke="currentColor" fill="none"
	d="M199.93 264.01v-24.00"/>
<path stroke="currentColor" fill="none"
	d="M364.03 264.01v-24.00"/>
<path stroke="currentColor" fill="none"
	d="M530.23 264.01v-24.00"/>
<path stroke="currentColor" fill="none"
	d="M694.93 264.01v-24.00"/>
<path stroke="currentColor" fill="none"
	d="M13.33 264.01h681.60m-681.60 -6h681.60m-681.60 -6h681.60m-681.60 -6h681.60m-681.60 -6h681.60"/>
<text x="41.93" y="225.61">Am</text>
<text x="204.63" y="225.61">Am</text>
<text x="372.83" y="225.61">G</text>
<text x="539.93" y="225.61">F</text>
<use x="25.33" y="264.01" xlink:href="#tclef"/>
<use x="49.83" y="255.01" xlink:href="#hd"/>
<circle fill="currentColor" cx="57.83" cy="255.01" r="1.2"/>
<path d="M53.33 255.01v-20.00" stroke="currentColor" fill="none"/>
<use x="90.03" y="252.01" xlink:href="#r4"/>
<use x="121.73" y="255.01" xlink:href="#hd"/>
<path d="M125.23 255.01v-20.00" stroke="currentColor" fill="none"/>
<path fill="currentColor"
	d="	M125.23 235.01c0.6 5.6 9.6 9 5.6 18.4
	c1.6 -6 -1.3 -11.6 -5.6 -12.8
"/>
<use x="146.73" y="255.01" xlink:href="#hd"/>
<path d="M150.23 255.01v-20.00" stroke="currentColor" fill="none"/>
<path fill="currentColor"
	d="	M150.23 235.01c0.6 5.6 9.6 9 5.6 18.4
	c1.6 -6 -1.3 -11.6 -5.6 -12.8
"/>
<use x="171.73" y="252.01" xlink:href="#hd"/>
<path d="M175.23 252.01v-20.00" stroke="currentColor" fill="none"/>
<use x="212.53" y="249.01" xlink:href="#hd"/>
<path d="M209.03 249.01v20.00" stroke="currentColor" fill="none"/>
<path fill="currentColor"
	d="M209.03 269.01c0.6 -5.6 9.6 -9 5.6 -18.4
	c1.6 6 -1.3 11.6 -5.6 12.8
"/>
<use x="237.43" y="252.01" xlink:href="#hd"/>
<path d="M233.93 252.01v20.00" stroke="currentColor" fill="none"/>
<use x="269.13" y="255.01" xlink:href="#hd"/>
<path d="M272.63 255.01v-20.00" stroke="currentColor" fill="none"/>
<path fill="currentColor"
	d="	M272.63 235.01c0.6 5.6 9.6 9 5.6 18.4
	c1.6 -6 -1.3 -11.6 -5.6 -12.8
"/>
<defs>
<path id="Hd" fill="currentColor" d="m3 -1.6
	c-1 -1.8 -7 1.4 -6 3.2
	c1 1.8 7 -1.4 6 -3.2
	m0.5 -0.3
	c2 3.8 -5 7.6 -7 3.8
	c-2 -3.8 5 -7.6 7 -3.8"/>
</defs>
<use x="294.23" y="252.01" xlink:href="#Hd"/>
<path d="M297.73 252.01v-20.00" stroke="currentColor" fill="none"/>
<use x="344.03" y="255.01" xlink:href="#hd"/>
<path d="M347.53 255.01v-20.00" stroke="currentColor" fill="none"/>
<path fill="currentColor"
	d="	M347.53 235.01c0.6 5.6 9.6 9 5.6 18.4
	c1.6 -6 -1.3 -11.6 -5.6 -12.8
"/>
<use x="376.63" y="258.01" xlink:href="#hd"/>
<path d="M380.13 258.01v-20.00" stroke="currentColor" fill="none"/>
<use x="411.83" y="252.01" xlink:href="#hd"/>
<path d="M415.33 252.01v-20.00" stroke="currentColor" fill="none"/>
<path fill="currentColor"
	d="	M415.33 232.01c0.6 5.6 9.6 9 5.6 18.4
	c1.6 -6 -1.3 -11.6 -5.6 -12.8
"/>
<use x="436.93" y="264.01" xlink:href="#hd"/>
<circle fill="currentColor" cx="444.93" cy="261.01" r="1.2"/>
<path d="M440.43 264.01v-20.00" stroke="currentColor" fill="none"/>
<use x="477.03" y="264.01" xlink:href="#hd"/>
<path d="M480.53 264.01v-20.00" stroke="currentColor" fill="none"/>
<path fill="currentColor"
	d="	M480.53 244.01c0.6 5.6 9.6 9 5.6 18.4
	c1.6 -6 -1.3 -11.6 -5.6 -12.8
"/>
<use x="502.03" y="255.01" xlink:href="#hd"/>
<path d="M505.53 255.01v-20.00" stroke="currentColor" fill="none"/>
<use x="542.83" y="249.01" xlink:href="#hd"/>
<circle fill="currentColor" cx="550.83" cy="249.01" r="1.2"/>
<path d="M539.33 249.01v20.00" stroke="currentColor" fill="none"/>
<use x="583.03" y="252.01" xlink:href="#hd"/>
<path d="M579.53 252.01v20.00" stroke="currentColor" fill="none"/>
<use x="618.23" y="249.01" xlink:href="#hd"/>
<path d="M614.73 249.01v20.00" stroke="currentColor" fill="none"/>
<path fill="currentColor"
	d="M614.73 269.01c0.6 -5.6 9.6 -9 5.6 -18.4
	c1.6 6 -1.3 11.6 -5.6 12.8
"/>
<use x="643.13" y="246.01" xlink:href="#hd"/>
<path d="M639.63 246.01v20.00" stroke="currentColor" fill="none"/>
<use x="674.83" y="258.01" xlink:href="#hd"/>
<path d="M678.33 258.01v-20.00" stroke="currentColor" fill="none"/>
<path fill="currentColor"
	d="	M678.33 238.01c0.6 5.6 9.6 9 5.6 18.4
	c1.6 -6 -1.3 -11.6 -5.6 -12.8
"/>
<path stroke="currentColor" fill="none"
	d="M199.53 335.01v-24.00"/>
<path stroke="currentColor" fill="none"
	d="M356.53 335.01v-24.00"/>
<path stroke="currentColor" fill="none"
	d="M535.83 335.01v-24.00"/>
<path stroke="currentColor" fill="none"
	d="M694.93 335.01v-24.00"/>
<path stroke="currentColor" fill="none"
	d="M13.33 335.01h681.60m-681.60 -6h681.60m-681.60 -6h681.60m-681.60 -6h681.60m-681.60 -6h681.60"/>
<text x="46.33" y="298.61">C</text>
<text x="204.13" y="298.61">Am</text>
<text x="365.23" y="298.61">G</text>
<text x="545.43" y="298.61">F</text>
<use x="25.33" y="335.01" xlink:href="#tclef"/>
<use x="49.83" y="314.01" xlink:href="#hd"/>
<circle fill="currentColor" cx="57.83" cy="314.01" r="1.2"/>
<path d="M46.33 314.01v20.00" stroke="currentColor" fill="none"/>
<use x="88.53" y="323.01" xlink:href="#r4"/>
<use x="122.33" y="317.01" xlink:href="#hd"/>
<path d="M118.83 317.01v20.00" stroke="currentColor" fill="none"/>
<path fill="currentColor"
	d="M118.83 337.01c0.6 -5.6 9.6 -9 5.6 -18.4
	c1.6 6 -1.3 11.6 -5.6 12.8
"/>
<use x="146.43" y="320.01" xlink:href="#hd"/>
<path d="M142.93 320.01v20.00" stroke="currentColor" fill="none"/>
<use x="180.23" y="323.01" xlink:href="#hd"/>
<path d="M176.73 323.01v20.00" stroke="currentColor" fill="none"/>
<path fill="currentColor"
	d="M176.73 343.01c0.6 -5.6 9.6 -9 5.6 -18.4
	c1.6 6 -1.3 11.6 -5.6 12.8
"/>
<use x="212.03" y="320.01" xlink:href="#hd"/>
<path d="M208.53 320.01v20.00" stroke="currentColor" fill="none"/>
<path fill="currentColor"
	d="M208.53 340.01c0.6 -5.6 9.6 -9 5.6 -18.4
	c1.6 6 -1.3 11.6 -5.6 12.8
"/>
<use x="236.03" y="323.01" xlink:href="#Hd"/>
<path d="M232.53 323.01v20.00" stroke="currentColor" fill="none"/>
<use x="279.13" y="326.01" xlink:href="#hd"/>
<path d="M282.63 326.01v-20.00" stroke="currentColor" fill="none"/>
<path fill="currentColor"
	d="	M282.63 306.01c0.6 5.6 9.6 9 5.6 18.4
	c1.6 -6 -1.3 -11.6 -5.6 -12.8
"/>
<use x="303.33" y="323.01" xlink:href="#hd"/>
<path d="M306.83 323.01v-20.00" stroke="currentColor" fill="none"/>
<use x="337.13" y="326.01" xlink:href="#hd"/>
<path d="M340.63 326.01v-20.00" stroke="currentColor" fill="none"/>
<path fill="currentColor"
	d="	M340.63 306.01c0.6 5.6 9.6 9 5.6 18.4
	c1.6 -6 -1.3 -11.6 -5.6 -12.8
"/>
<use x="369.03" y="329.01" xlink:href="#hd"/>
<path d="M372.53 329.01v-20.00" stroke="currentColor" fill="none"/>
<use x="402.93" y="323.01" xlink:href="#hd"/>
<path d="M406.43 323.01v-20.00" stroke="currentColor" fill="none"/>
<path fill="currentColor"
	d="	M406.43 303.01c0.6 5.6 9.6 9 5.6 18.4
	c1.6 -6 -1.3 -11.6 -5.6 -12.8
"/>
<use x="427.03" y="329.01" xlink:href="#hd"/>
<path d="M430.53 329.01v-20.00" stroke="currentColor" fill="none"/>
<use x="460.93" y="308.01" xlink:href="#hd"/>
<path d="M457.43 308.01v20.00" stroke="currentColor" fill="none"/>
<path fill="currentColor"
	d="M457.43 328.01c0.6 -5.6 9.6 -9 5.6 -18.4
	c1.6 6 -1.3 11.6 -5.6 12.8
"/>
<use x="482.63" y="326.01" xlink:href="#hd"/>
<path d="M486.13 326.01v-20.00" stroke="currentColor" fill="none"/>
<use x="516.43" y="323.01" xlink:href="#hd"/>
<path d="M519.93 323.01v-20.00" stroke="currentColor" fill="none"/>
<path fill="currentColor"
	d="	M519.93 303.01c0.6 5.6 9.6 9 5.6 18.4
	c1.6 -6 -1.3 -11.6 -5.6 -12.8
"/>
<use x="548.33" y="320.01" xlink:href="#hd"/>
<circle fill="currentColor" cx="556.33" cy="320.01" r="1.2"/>
<path d="M544.83 320.01v20.00" stroke="currentColor" fill="none"/>
<use x="587.03" y="308.01" xlink:href="#hd"/>
<path d="M583.53 308.01v20.00" stroke="currentColor" fill="none"/>
<use x="617.53" y="326.01" xlink:href="#hd"/>
<path d="M621.03 326.01v-20.00" stroke="currentColor" fill="none"/>
<path fill="currentColor"
	d="	M621.03 306.01c0.6 5.6 9.6 9 5.6 18.4
	c1.6 -6 -1.3 -11.6 -5.6 -12.8
"/>
<use x="641.63" y="329.01" xlink:href="#hd"/>
<path d="M645.13 329.01v-20.00" stroke="currentColor" fill="none"/>
<use x="675.53" y="323.01" xlink:href="#hd"/>
<path d="M679.03 323.01v-20.00" stroke="currentColor" fill="none"/>
<path fill="currentColor"
	d="	M679.03 303.01c0.6 5.6 9.6 9 5.6 18.4
	c1.6 -6 -1.3 -11.6 -5.6 -12.8
"/>
<path stroke="currentColor" fill="none"
	d="M207.73 408.01v-24.00"/>
<path stroke="currentColor" fill="none"
	d="M368.13 408.01v-24.00"/>
<path stroke="currentColor" fill="none"
	d="M520.63 408.01v-24.00"/>
<path stroke="currentColor" fill="none"
	d="M694.93 408.01v-24.00"/>
<path stroke="currentColor" fill="none"
	d="M13.33 408.01h681.60m-681.60 -6h681.60m-681.60 -6h681.60m-681.60 -6h681.60m-681.60 -6h681.60"/>
<text x="41.93" y="369.61">Am</text>
<text x="213.03" y="369.61">Am</text>
<text x="377.53" y="369.61">G</text>
<text x="530.93" y="369.61">F</text>
<use x="25.33" y="408.01" xlink:href="#tclef"/>
<use x="49.83" y="399.01" xlink:href="#hd"/>
<path d="M53.33 399.01v-20.00" stroke="currentColor" fill="none"/>
<path fill="currentColor"
	d="	M53.33 379.01c0.6 5.6 9.6 9 5.6 18.4
	c1.6 -6 -1.3 -11.6 -5.6 -12.8
"/>
<use x="76.33" y="396.01" xlink:href="#r4"/>
<use x="109.93" y="399.01" xlink:href="#hd"/>
<path d="M113.43 399.01v-20.00" stroke="currentColor" fill="none"/>
<path fill="currentColor"
	d="	M113.43 379.01c0.6 5.6 9.6 9 5.6 18.4
	c1.6 -6 -1.3 -11.6 -5.6 -12.8
"/>
<use x="136.33" y="399.01" xlink:href="#hd"/>
<path d="M139.83 399.01v-20.00" stroke="currentColor" fill="none"/>
<use x="173.63" y="393.01" xlink:href="#hd"/>
<circle fill="currentColor" cx="181.63" cy="393.01" r="1.2"/>
<path d="M170.13 393.01v20.00" stroke="currentColor" fill="none"/>
<use x="220.93" y="387.01" xlink:href="#hd"/>
<circle fill="currentColor" cx="228.93" cy="387.01" r="1.2"/>
<path d="M217.43 387.01v20.00" stroke="currentColor" fill="none"/>
<use x="263.53" y="378.01" xlink:href="#hl"/>
<use x="263.53" y="378.01" xlink:href="#hd"/>
<defs>
<path id="usharp" fill="currentColor" d="
	m136 -702
	v890
	h32
	v-890
	m128 840
	h32
	v-888
	h-32
	m-232 286
	v116
	l338 -96
	v-116
	m-338 442
	v116
	l338 -98
	v-114"/>
<use id="sh0" transform="translate(-4,5) scale(0.018)"
	xlink:href="#usharp"/>
</defs>
<use x="254.53" y="378.01" xlink:href="#sh0"/>
<path d="M260.03 378.01v20.00" stroke="currentColor" fill="none"/>
<use x="300.83" y="396.01" xlink:href="#hd"/>
<path d="M297.33 396.01v20.00" stroke="currentColor" fill="none"/>
<use x="338.23" y="390.01" xlink:href="#hd"/>
<defs>
<path id="unat" fill="currentColor" d="
	m96 -750
	h-32
	v716
	l32 -8
	l182 -54
	v282
	h32
	v-706
	l-34 10
	l-180 50
	v-290
	m0 592
	v-190
	l182 -52
	v188"/>
<use id="nt0" transform="translate(-3,5) scale(0.018)"
	xlink:href="#unat"/>
</defs>
<use x="329.23" y="390.01" xlink:href="#nt0"/>
<path d="M334.73 390.01v20.00" stroke="currentColor" fill="none"/>
<use x="381.33" y="393.01" xlink:href="#hd"/>
<circle fill="currentColor" cx="389.33" cy="393.01" r="1.2"/>
<path d="M377.83 393.01v20.00" stroke="currentColor" fill="none"/>
<use x="423.83" y="396.01" xlink:href="#hd"/>
<circle fill="currentColor" cx="431.83" cy="393.01" r="1.2"/>
<path d="M420.33 396.01v20.00" stroke="currentColor" fill="none"/>
<use x="462.13" y="399.01" xlink:href="#hd"/>
<path d="M465.63 399.01v-20.00" stroke="currentColor" fill="none"/>
<use x="499.43" y="396.01" xlink:href="#hd"/>
<path d="M502.93 396.01v-20.00" stroke="currentColor" fill="none"/>
<path fill="currentColor"
	d="	M502.93 376.01c0.6 5.6 9.6 9 5.6 18.4
	c1.6 -6 -1.3 -11.6 -5.6 -12.8
"/>
<use x="533.93" y="393.01" xlink:href="#hd"/>
<circle fill="currentColor" cx="541.93" cy="393.01" r="1.2"/>
<path d="M530.43 393.01v20.00" stroke="currentColor" fill="none"/>
<use x="576.43" y="384.01" xlink:href="#hd"/>
<path d="M572.93 384.01v20.00" stroke="currentColor" fill="none"/>
<use x="613.73" y="393.01" xlink:href="#hd"/>
<path d="M610.23 393.01v20.00" stroke="currentColor" fill="none"/>
<path fill="currentColor"
	d="M610.23 413.01c0.6 -5.6 9.6 -9 5.6 -18.4
	c1.6 6 -1.3 11.6 -5.6 12.8
"/>
<use x="640.13" y="381.01" xlink:href="#hd"/>
<path d="M636.63 381.01v20.00" stroke="currentColor" fill="none"/>
<use x="673.73" y="402.01" xlink:href="#hd"/>
<path d="M677.23 402.01v-20.00" stroke="currentColor" fill="none"/>
<path fill="currentColor"
	d="	M677.23 382.01c0.6 5.6 9.6 9 5.6 18.4
	c1.6 -6 -1.3 -11.6 -5.6 -12.8
"/>
<path stroke="currentColor" fill="none"
	d="M223.73 479.01v-24.00"/>
<path stroke="currentColor" fill="none"
	d="M337.33 479.01v-24.00"/>
<path stroke="currentColor" fill="none"
	d="M504.23 479.01v-24.00"/>
<path stroke="currentColor" fill="none"
	d="M694.93 479.01v-24.00"/>
<path stroke="currentColor" fill="none"
	d="M13.33 479.01h681.60m-681.60 -6h681.60m-681.60 -6h681.60m-681.60 -6h681.60m-681.60 -6h681.60"/>
<text x="46.33" y="442.61">C</text>
<text x="230.23" y="442.61">Am</text>
<text x="348.03" y="442.61">G</text>
<text x="515.73" y="442.61">F</text>
<use x="25.33" y="479.01" xlink:href="#tclef"/>
<use x="49.83" y="458.01" xlink:href="#hd"/>
<path d="M46.33 458.01v20.00" stroke="currentColor" fill="none"/>
<path fill="currentColor"
	d="M46.33 478.01c0.6 -5.6 9.6 -9 5.6 -18.4
	c1.6 6 -1.3 11.6 -5.6 12.8
"/>
<use x="78.73" y="461.01" xlink:href="#hd"/>
<path d="M75.23 461.01v20.00" stroke="currentColor" fill="none"/>
<path fill="currentColor"
	d="M75.23 481.01c0.6 -5.6 9.6 -9 5.6 -18.4
	c1.6 6 -1.3 11.6 -5.6 12.8
"/>
<use x="107.63" y="464.01" xlink:href="#hd"/>
<path d="M104.13 464.01v20.00" stroke="currentColor" fill="none"/>
<use x="148.53" y="467.01" xlink:href="#hd"/>
<path d="M145.03 467.01v20.00" stroke="currentColor" fill="none"/>
<path fill="currentColor"
	d="M145.03 487.01c0.6 -5.6 9.6 -9 5.6 -18.4
	c1.6 6 -1.3 11.6 -5.6 12.8
"/>
<use x="177.43" y="464.01" xlink:href="#Hd"/>
<path d="M173.93 464.01v20.00" stroke="currentColor" fill="none"/>
<use x="238.23" y="458.01" xlink:href="#hd"/>
<circle fill="currentColor" cx="246.23" cy="458.01" r="1.2"/>
<path d="M234.73 458.01v20.00" stroke="currentColor" fill="none"/>
<use x="284.73" y="461.01" xlink:href="#Hd"/>
<circle fill="currentColor" cx="293.73" cy="458.01" r="1.2"/>
<use x="274.73" y="461.01" xlink:href="#sh0"/>
<path d="M281.23 461.01v20.00" stroke="currentColor" fill="none"/>
<use x="351.83" y="464.01" xlink:href="#hd"/>
<circle fill="currentColor" cx="359.83" cy="464.01" r="1.2"/>
<path d="M348.33 464.01v20.00" stroke="currentColor" fill="none"/>
<use x="398.33" y="467.01" xlink:href="#hd"/>
<circle fill="currentColor" cx="406.33" cy="464.01" r="1.2"/>
<path d="M394.83 467.01v20.00" stroke="currentColor" fill="none"/>
<use x="440.23" y="470.01" xlink:href="#hd"/>
<path d="M443.73 470.01v-20.00" stroke="currentColor" fill="none"/>
<use x="481.13" y="467.01" xlink:href="#hd"/>
<path d="M484.63 467.01v-20.00" stroke="currentColor" fill="none"/>
<path fill="currentColor"
	d="	M484.63 447.01c0.6 5.6 9.6 9 5.6 18.4
	c1.6 -6 -1.3 -11.6 -5.6 -12.8
"/>
<use x="518.73" y="464.01" xlink:href="#hd"/>
<circle fill="currentColor" cx="526.73" cy="464.01" r="1.2"/>
<path d="M515.23 464.01v20.00" stroke="currentColor" fill="none"/>
<use x="565.23" y="467.01" xlink:href="#hd"/>
<path d="M561.73 467.01v20.00" stroke="currentColor" fill="none"/>
<use x="602.03" y="470.01" xlink:href="#hd"/>
<path d="M605.53 470.01v-20.00" stroke="currentColor" fill="none"/>
<path fill="currentColor"
	d="	M605.53 450.01c0.6 5.6 9.6 9 5.6 18.4
	c1.6 -6 -1.3 -11.6 -5.6 -12.8
"/>
<use x="630.93" y="473.01" xlink:href="#hd"/>
<path d="M634.43 473.01v-20.00" stroke="currentColor" fill="none"/>
<use x="671.83" y="467.01" xlink:href="#hd"/>
<path d="M675.33 467.01v-20.00" stroke="currentColor" fill="none"/>
<path fill="currentColor"
	d="	M675.33 447.01c0.6 5.6 9.6 9 5.6 18.4
	c1.6 -6 -1.3 -11.6 -5.6 -12.8
"/>
<path stroke="currentColor" fill="none"
	d="M213.93 552.01v-24.00"/>
<path stroke="currentColor" fill="none"
	d="M369.93 552.01v-24.00"/>
<path stroke="currentColor" fill="none"
	d="M517.33 552.01v-24.00"/>
<path stroke="currentColor" fill="none"
	d="M694.93 552.01v-24.00"/>
<path stroke="currentColor" fill="none"
	d="M13.33 552.01h681.60m-681.60 -6h681.60m-681.60 -6h681.60m-681.60 -6h681.60m-681.60 -6h681.60"/>
<text x="41.93" y="513.61">Am</text>
<text x="219.43" y="513.61">Am</text>
<text x="379.63" y="513.61">G</text>
<text x="527.93" y="513.61">F</text>
<use x="25.33" y="552.01" xlink:href="#tclef"/>
<use x="49.83" y="543.01" xlink:href="#hd"/>
<circle fill="currentColor" cx="57.83" cy="543.01" r="1.2"/>
<path d="M53.33 543.01v-20.00" stroke="currentColor" fill="none"/>
<use x="93.13" y="540.01" xlink:href="#r4"/>
<use x="127.33" y="543.01" xlink:href="#hd"/>
<path d="M130.83 543.01v-20.00" stroke="currentColor" fill="none"/>
<path fill="currentColor"
	d="	M130.83 523.01c0.6 5.6 9.6 9 5.6 18.4
	c1.6 -6 -1.3 -11.6 -5.6 -12.8
"/>
<use x="154.33" y="543.01" xlink:href="#hd"/>
<path d="M157.83 543.01v-20.00" stroke="currentColor" fill="none"/>
<use x="192.33" y="537.01" xlink:href="#hd"/>
<path d="M188.83 537.01v20.00" stroke="currentColor" fill="none"/>
<path fill="currentColor"
	d="M188.83 557.01c0.6 -5.6 9.6 -9 5.6 -18.4
	c1.6 6 -1.3 11.6 -5.6 12.8
"/>
<use x="227.43" y="531.01" xlink:href="#hd"/>
<circle fill="currentColor" cx="235.43" cy="531.01" r="1.2"/>
<path d="M223.93 531.01v20.00" stroke="currentColor" fill="none"/>
<use x="270.73" y="534.01" xlink:href="#hd"/>
<circle fill="currentColor" cx="278.73" cy="531.01" r="1.2"/>
<use x="261.73" y="534.01" xlink:href="#sh0"/>
<path d="M267.23 534.01v20.00" stroke="currentColor" fill="none"/>
<use x="314.03" y="540.01" xlink:href="#hd"/>
<path d="M310.53 540.01v20.00" stroke="currentColor" fill="none"/>
<use x="348.33" y="558.01" xlink:href="#hl"/>
<use x="348.33" y="558.01" xlink:href="#hd"/>
<use x="339.33" y="558.01" xlink:href="#nt0"/>
<path d="M351.83 558.01v-20.00" stroke="currentColor" fill="none"/>
<path fill="currentColor"
	d="	M351.83 538.01c0.6 5.6 9.6 9 5.6 18.4
	c1.6 -6 -1.3 -11.6 -5.6 -12.8
"/>
<use x="383.43" y="537.01" xlink:href="#hd"/>
<path d="M379.93 537.01v20.00" stroke="currentColor" fill="none"/>
<path fill="currentColor"
	d="M379.93 557.01c0.6 -5.6 9.6 -9 5.6 -18.4
	c1.6 6 -1.3 11.6 -5.6 12.8
"/>
<use x="410.33" y="540.01" xlink:href="#hd"/>
<path d="M406.83 540.01v20.00" stroke="currentColor" fill="none"/>
<path fill="currentColor"
	d="M406.83 560.01c0.6 -5.6 9.6 -9 5.6 -18.4
	c1.6 6 -1.3 11.6 -5.6 12.8
"/>
<use x="434.53" y="543.01" xlink:href="#Hd"/>
<circle fill="currentColor" cx="443.53" cy="543.01" r="1.2"/>
<path d="M438.03 543.01v-20.00" stroke="currentColor" fill="none"/>
<use x="495.83" y="540.01" xlink:href="#hd"/>
<path d="M499.33 540.01v-20.00" stroke="currentColor" fill="none"/>
<path fill="currentColor"
	d="	M499.33 520.01c0.6 5.6 9.6 9 5.6 18.4
	c1.6 -6 -1.3 -11.6 -5.6 -12.8
"/>
<use x="530.83" y="537.01" xlink:href="#hd"/>
<circle fill="currentColor" cx="538.83" cy="537.01" r="1.2"/>
<path d="M527.33 537.01v20.00" stroke="currentColor" fill="none"/>
<use x="574.23" y="522.01" xlink:href="#hl"/>
<use x="574.23" y="522.01" xlink:href="#hd"/>
<path d="M570.73 522.01v20.00" stroke="currentColor" fill="none"/>
<use x="612.23" y="537.01" xlink:href="#hd"/>
<path d="M608.73 537.01v20.00" stroke="currentColor" fill="none"/>
<path fill="currentColor"
	d="M608.73 557.01c0.6 -5.6 9.6 -9 5.6 -18.4
	c1.6 6 -1.3 11.6 -5.6 12.8
"/>
<use x="639.13" y="531.01" xlink:href="#hd"/>
<path d="M635.63 531.01v20.00" stroke="currentColor" fill="none"/>
<use x="673.33" y="546.01" xlink:href="#hd"/>
<path d="M676.83 546.01v-20.00" stroke="currentColor" fill="none"/>
<path fill="currentColor"
	d="	M676.83 526.01c0.6 5.6 9.6 9 5.6 18.4
	c1.6 -6 -1.3 -11.6 -5.6 -12.8
"/>
<path stroke="currentColor" fill="none"
	d="M200.23 625.01v-24.00"/>
<path stroke="currentColor" fill="none"
	d="M332.43 625.01v-24.00"/>
<path stroke="currentColor" fill="none"
	d="M460.63 625.01v-24.00"/>
<path stroke="currentColor" fill="none"
	d="M607.03 625.01v-24.00"/>
<path stroke="currentColor" fill="none" stroke-width="3"
	d="M693.43 625.01v-24.00"/>
<path stroke="currentColor" fill="none"
	d="M688.93 625.01v-24.00"/>
<path stroke="currentColor" fill="none"
	d="M13.33 625.01h681.60m-681.60 -6h681.60m-681.60 -6h681.60m-681.60 -6h681.60m-681.60 -6h681.60"/>
<text x="46.33" y="586.61">C</text>
<text x="204.83" y="586.61">Am</text>
<text x="341.13" y="586.61">G</text>
<text x="470.23" y="586.61">F</text>
<text x="611.53" y="586.61">Am</text>
<use x="25.33" y="625.01" xlink:href="#tclef"/>
<use x="49.83" y="604.01" xlink:href="#hd"/>
<path d="M46.33 604.01v20.00" stroke="currentColor" fill="none"/>
<use x="80.63" y="607.01" xlink:href="#hd"/>
<path d="M77.13 607.01v20.00" stroke="currentColor" fill="none"/>
<path fill="currentColor"
	d="M77.13 627.01c0.6 -5.6 9.6 -9 5.6 -18.4
	c1.6 6 -1.3 11.6 -5.6 12.8
"/>
<use x="100.33" y="619.01" xlink:href="#hd"/>
<path d="M103.83 619.01v-20.00" stroke="currentColor" fill="none"/>
<path fill="currentColor"
	d="	M103.83 599.01c0.6 5.6 9.6 9 5.6 18.4
	c1.6 -6 -1.3 -11.6 -5.6 -12.8
"/>
<use x="122.53" y="631.01" xlink:href="#hl"/>
<use x="122.53" y="631.01" xlink:href="#hd"/>
<path d="M126.03 631.01v-20.00" stroke="currentColor" fill="none"/>
<path fill="currentColor"
	d="	M126.03 611.01c0.6 5.6 9.6 9 5.6 18.4
	c1.6 -6 -1.3 -11.6 -5.6 -12.8
"/>
<use x="144.83" y="610.01" xlink:href="#hd"/>
<path d="M141.33 610.01v20.00" stroke="currentColor" fill="none"/>
<use x="175.53" y="607.01" xlink:href="#hd"/>
<path d="M172.03 607.01v20.00" stroke="currentColor" fill="none"/>
<use x="212.73" y="604.01" xlink:href="#hd"/>
<circle fill="currentColor" cx="220.73" cy="604.01" r="1.2"/>
<path d="M209.23 604.01v20.00" stroke="currentColor" fill="none"/>
<use x="248.43" y="610.01" xlink:href="#hd"/>
<circle fill="currentColor" cx="256.43" cy="610.01" r="1.2"/>
<use x="239.43" y="610.01" xlink:href="#sh0"/>
<path d="M244.93 610.01v20.00" stroke="currentColor" fill="none"/>
<use x="283.63" y="613.01" xlink:href="#hd"/>
<path d="M280.13 613.01v20.00" stroke="currentColor" fill="none"/>
<use x="314.83" y="601.01" xlink:href="#hd"/>
<use x="305.83" y="601.01" xlink:href="#nt0"/>
<path d="M311.33 601.01v20.00" stroke="currentColor" fill="none"/>
<path fill="currentColor"
	d="M311.33 621.01c0.6 -5.6 9.6 -9 5.6 -18.4
	c1.6 6 -1.3 11.6 -5.6 12.8
"/>
<use x="344.93" y="610.01" xlink:href="#hd"/>
<circle fill="currentColor" cx="352.93" cy="610.01" r="1.2"/>
<path d="M341.43 610.01v20.00" stroke="currentColor" fill="none"/>
<use x="380.13" y="613.01" xlink:href="#hd"/>
<circle fill="currentColor" cx="388.13" cy="610.01" r="1.2"/>
<path d="M376.63 613.01v20.00" stroke="currentColor" fill="none"/>
<use x="412.03" y="616.01" xlink:href="#hd"/>
<path d="M415.53 616.01v-20.00" stroke="currentColor" fill="none"/>
<use x="442.73" y="613.01" xlink:href="#hd"/>
<path d="M446.23 613.01v-20.00" stroke="currentColor" fill="none"/>
<path fill="currentColor"
	d="	M446.23 593.01c0.6 5.6 9.6 9 5.6 18.4
	c1.6 -6 -1.3 -11.6 -5.6 -12.8
"/>
<use x="473.13" y="610.01" xlink:href="#hd"/>
<circle fill="currentColor" cx="481.13" cy="610.01" r="1.2"/>
<path d="M469.63 610.01v20.00" stroke="currentColor" fill="none"/>
<use x="508.43" y="613.01" xlink:href="#hd"/>
<path d="M504.93 613.01v20.00" stroke="currentColor" fill="none"/>
<use x="536.13" y="616.01" xlink:href="#hd"/>
<path d="M539.63 616.01v-20.00" stroke="currentColor" fill="none"/>
<path fill="currentColor"
	d="	M539.63 596.01c0.6 5.6 9.6 9 5.6 18.4
	c1.6 -6 -1.3 -11.6 -5.6 -12.8
"/>
<use x="558.33" y="619.01" xlink:href="#hd"/>
<path d="M561.83 619.01v-20.00" stroke="currentColor" fill="none"/>
<use x="589.13" y="613.01" xlink:href="#hd"/>
<path d="M592.63 613.01v-20.00" stroke="currentColor" fill="none"/>
<path fill="currentColor"
	d="	M592.63 593.01c0.6 5.6 9.6 9 5.6 18.4
	c1.6 -6 -1.3 -11.6 -5.6 -12.8
"/>
<use x="619.53" y="616.01" xlink:href="#hd"/>
<circle fill="currentColor" cx="627.53" cy="616.01" r="1.2"/>
<path d="M623.03 616.01v-20.00" stroke="currentColor" fill="none"/>
<use x="654.83" y="616.01" xlink:href="#Hd"/>
<circle fill="currentColor" cx="663.83" cy="616.01" r="1.2"/>
<path d="M658.33 616.01v-20.00" stroke="currentColor" fill="none"/>
</g>
<g transform="scale(0.750)" stroke-width="0.70" font-family="Times" font-size="16.00">
<text x="63.33" y="665.61">Created with TablEdit http://www.tabledit.com/ by Bernard Loffet</text>
</g>
</svg>
