<?xml version="1.0" standalone="no"?>
<!DOCTYPE svg PUBLIC "-//W3C//DTD SVG 1.1//EN"
	"http://www.w3.org/Graphics/SVG/1.1/DTD/svg11.dtd">
<svg xmlns="http://www.w3.org/2000/svg" version="1.1"
	xmlns:xlink="http://www.w3.org/1999/xlink"
	color="black"
	width="701.60px" height="114.00px">
<style type="text/css">
.fill {fill: currentColor}
.stroke {stroke: currentColor; fill: none}
text{white-space: pre}
</style>
<title>song.abc (1) tune 1</title>
<!-- Creator: abcm2ps-8.13.23 -->
<!-- CreationDate: Jul 22, 2018 16:51 -->
<!-- CommandLine: -g song.abc -->
<g stroke-width="0.70">
<!-- title: Test -->
</g>
<g stroke-width="0.70" font-family="Times" font-size="20.00">
<text x="350.80" y="22.00" text-anchor="middle">Test</text>
</g>
<g stroke-width="0.70" font-family="Times" font-size="20.00">
<path class="stroke" stroke-width="1"
	d="M114.30 91.00v-24.00"/>
<path class="stroke" stroke-width="1"
	d="M163.10 91.00v-24.00"/>
<path class="stroke" stroke-width="1"
	d="M240.80 91.00v-24.00"/>
<path class="stroke" stroke-width="1"
	d="M305.80 91.00v-24.00"/>
<path class="stroke" stroke-width="1"
	d="M364.40 91.00v-24.00"/>
<path class="stroke" stroke-width="1"
	d="M421.90 91.00v-24.00"/>
<path class="stroke" stroke-width="1"
	d="M498.60 91.00v-24.00"/>
<path class="stroke" stroke-width="1"
	d="M533.10 91.00v-24.00"/>
<path class="stroke" stroke-width="1"
	d="M610.40 91.00v-24.00"/>
<path class="stroke" stroke-width="3"
	d="M690.10 91.00v-24.00"/>
<path class="stroke" stroke-width="1"
	d="M685.60 91.00v-24.00"/>
<path d="m10.00 91.00
	h681.60
	M10.00 85.00
	h681.60
	M10.00 79.00
	h681.60
	M10.00 73.00
	h681.60
	M10.00 67.00
	h681.60
	" class="stroke"/>
</g>
<g stroke-width="0.70" font-family="Helvetica" font-size="12.00">
<text x="55.00" y="49.60">C</text>
<text x="124.40" y="49.60">F</text>
<text x="172.10" y="49.60">C</text>
<text x="250.30" y="49.60">C</text>
<text x="315.30" y="49.60">C</text>
<text x="373.10" y="49.60">G</text>
<text x="430.60" y="49.60">G</text>
<text x="504.60" y="49.60">Am</text>
<text x="542.60" y="49.60">F</text>
<text x="619.40" y="49.60">C</text>
<defs>
<path id="utclef" class="fill" d="m-50 -90
	c-72 -41 -72 -158 52 -188
	150 -10 220 188 90 256
	-114 52 -275 0 -293 -136
	-15 -181 93 -229 220 -334
	88 -87 79 -133 62 -210
	-51 33 -94 105 -89 186
	17 267 36 374 49 574
	6 96 -19 134 -77 135
	-80 1 -126 -93 -61 -133
	85 -41 133 101 31 105
	23 17 92 37 90 -92
	-10 -223 -39 -342 -50 -617
	0 -90 0 -162 96 -232
	56 72 63 230 22 289
	-74 106 -257 168 -255 316
	9 153 148 185 252 133
	86 -65 29 -192 -80 -176
	-71 12 -105 67 -59 124"/>
<use id="tclef" transform="translate(0,6) scale(0.045)"
	xlink:href="#utclef"/>
</defs>
<use x="22.00" y="85.00" xlink:href="#tclef"/>
<g font-family="serif" font-size="16" font-weight="bold" font-style="normal"
	transform="translate(40.50,90.50) scale(1.2,1)">
	<text text-anchor="middle">4</text>
	<text y="-12" text-anchor="middle">4</text>
</g>
<defs>
<ellipse id="hd" rx="4.1" ry="2.9"
	transform="rotate(-20)" class="fill"/>
</defs>
<use x="58.50" y="64.00" xlink:href="#hd"/>
<path d="M55.00 64.00v21.00" class="stroke"/>
<use x="71.70" y="85.00" xlink:href="#hd"/>
<path d="M75.20 85.00v-21.00" class="stroke"/>
<use x="87.10" y="76.00" xlink:href="#hd"/>
<path d="M83.60 76.00v21.00" class="stroke"/>
<use x="101.30" y="76.00" xlink:href="#hd"/>
<path d="M97.80 76.00v21.00" class="stroke"/>
<defs>
<path id="Hd" class="fill" d="m3 -1.6
	c-1 -1.8 -7 1.4 -6 3.2
	1 1.8 7 -1.4 6 -3.2
	m0.5 -0.3
	c2 3.8 -5 7.6 -7 3.8
	-2 -3.8 5 -7.6 7 -3.8"/>
</defs>
<use x="127.30" y="85.00" xlink:href="#Hd"/>
<path d="M130.80 85.00v-21.00" class="stroke"/>
<use x="147.00" y="67.00" xlink:href="#Hd"/>
<path d="M143.50 67.00v21.00" class="stroke"/>
<use x="175.60" y="76.00" xlink:href="#hd"/>
<path d="M172.10 76.00v21.00" class="stroke"/>
<use x="188.80" y="94.00" xlink:href="#hd"/>
<path d="M192.30 94.00v-21.00" class="stroke"/>
<use x="202.90" y="91.00" xlink:href="#hd"/>
<path d="M206.40 91.00v-21.00" class="stroke"/>
<path class="fill"
	d="M206.40 70.00c0.6 5.6 9.6 9 5.6 18.4
	1.6 -6 -1.3 -11.6 -5.6 -12.8
"/>
<defs>
<path id="r8e" class="fill" d="m 0 0
	c-1.5 1.5 -2.4 2 -3.6 2
	2.4 -2.8 -2.8 -4 -2.8 -1.2
	c0 2.7 4.3 2.4 5.9 0.6"/>
<g id="r8">
	<path d="m3.3 -4l-3.4 9.6" class="stroke"/>
	<use x="3.4" y="-4" xlink:href="#r8e"/>
</g>
</defs>
<use x="216.40" y="79.00" xlink:href="#r8"/>
<use x="227.80" y="64.00" xlink:href="#hd"/>
<path d="M224.30 64.00v21.00" class="stroke"/>
<use x="253.80" y="70.00" xlink:href="#Hd"/>
<circle class="fill" cx="262.50" cy="70.00" r="1.2"/>
<path d="M250.30 70.00v21.00" class="stroke"/>
<use x="278.20" y="76.00" xlink:href="#hd"/>
<path d="M274.70 76.00v21.00" class="stroke"/>
<path class="fill"
	d="M274.70 97.00c0.6 -5.6 9.6 -9 5.6 -18.4
	1.6 6 -1.3 11.6 -5.6 12.8
"/>
<use x="288.80" y="82.00" xlink:href="#hd"/>
<path d="M292.30 82.00v-21.00" class="stroke"/>
<path class="fill"
	d="M292.30 61.00c0.6 5.6 9.6 9 5.6 18.4
	1.6 -6 -1.3 -11.6 -5.6 -12.8
"/>
<use x="318.80" y="85.00" xlink:href="#Hd"/>
<path d="M322.30 85.00v-21.00" class="stroke"/>
<use x="337.20" y="91.00" xlink:href="#hd"/>
<path d="M340.70 91.00v-21.00" class="stroke"/>
<use x="351.40" y="79.00" xlink:href="#hd"/>
<path d="M354.90 79.00v-21.00" class="stroke"/>
<defs>
<path id="hl" class="stroke" d="m-6 0h12"/>
</defs>
<use x="376.90" y="61.00" xlink:href="#hl"/>
<use x="376.90" y="58.00" xlink:href="#hd"/>
<path d="M373.40 58.00v21.00" class="stroke"/>
<use x="391.80" y="61.00" xlink:href="#hl"/>
<use x="391.80" y="58.00" xlink:href="#Hd"/>
<path d="M388.30 58.00v21.00" class="stroke"/>
<use x="408.90" y="82.00" xlink:href="#hd"/>
<path d="M412.40 82.00v-21.00" class="stroke"/>
<use x="434.40" y="61.00" xlink:href="#hl"/>
<use x="434.40" y="58.00" xlink:href="#hd"/>
<path d="M430.90 58.00v21.00" class="stroke"/>
<use x="449.40" y="61.00" xlink:href="#hl"/>
<use x="449.40" y="58.00" xlink:href="#hd"/>
<path d="M445.90 58.00v21.00" class="stroke"/>
<use x="462.60" y="85.00" xlink:href="#hd"/>
<path d="M466.10 85.00v-21.00" class="stroke"/>
<path class="fill"
	d="M466.10 64.00c0.6 5.6 9.6 9 5.6 18.4
	1.6 -6 -1.3 -11.6 -5.6 -12.8
"/>
<use x="478.60" y="61.00" xlink:href="#hl"/>
<use x="478.60" y="55.00" xlink:href="#hl"/>
<use x="478.60" y="52.00" xlink:href="#hd"/>
<circle class="fill" cx="486.30" cy="52.00" r="1.2"/>
<path d="M475.10 52.00v27.00" class="stroke"/>
<defs>
<path id="HD" class="fill" d="m-2.7 -1.4
	c1.5 -2.8 6.9 0 5.3 2.7
	-1.5 2.8 -6.9 0 -5.3 -2.7
	m8.3 1.4
	c0 -1.5 -2.2 -3 -5.6 -3
	-3.4 0 -5.6 1.5 -5.6 3
	0 1.5 2.2 3 5.6 3
	3.4 0 5.6 -1.5 5.6 -3"/>
</defs>
<use x="513.60" y="82.00" xlink:href="#HD"/>
<use x="545.60" y="82.00" xlink:href="#hd"/>
<path d="M549.10 82.00v-21.00" class="stroke"/>
<path class="fill"
	d="M549.10 61.00c0.6 5.6 9.6 9 5.6 18.4
	1.6 -6 -1.3 -11.6 -5.6 -12.8
"/>
<use x="561.60" y="61.00" xlink:href="#hl"/>
<use x="561.60" y="61.00" xlink:href="#hd"/>
<path d="M558.10 61.00v21.00" class="stroke"/>
<use x="575.00" y="88.00" xlink:href="#Hd"/>
<path d="M578.50 88.00v-21.00" class="stroke"/>
<use x="593.40" y="91.00" xlink:href="#hd"/>
<path d="M596.90 91.00v-21.00" class="stroke"/>
<path class="fill"
	d="M596.90 70.00c0.6 5.6 9.6 9 5.6 18.4
	1.6 -6 -1.3 -11.6 -5.6 -12.8
"/>
<use x="622.90" y="88.00" xlink:href="#hd"/>
<circle class="fill" cx="630.60" cy="88.00" r="1.2"/>
<path d="M626.40 88.00v-21.00" class="stroke"/>
<use x="643.50" y="70.00" xlink:href="#hd"/>
<path d="M640.00 70.00v21.00" class="stroke"/>
<use x="656.70" y="97.00" xlink:href="#hl"/>
<use x="656.70" y="97.00" xlink:href="#hd"/>
<path d="M660.20 97.00v-21.00" class="stroke"/>
<use x="671.60" y="97.00" xlink:href="#hl"/>
<use x="671.60" y="97.00" xlink:href="#hd"/>
<path d="M675.10 97.00v-21.00" class="stroke"/>
<path class="fill"
	d="M675.10 76.00c0.6 5.6 9.6 9 5.6 18.4
	1.6 -6 -1.3 -11.6 -5.6 -12.8
"/>
</g>
</svg>
