<?xml version="1.0" standalone="no"?>
<!DOCTYPE svg PUBLIC "-//W3C//DTD SVG 1.1//EN"
	"http://www.w3.org/Graphics/SVG/1.1/DTD/svg11.dtd">
<svg xmlns="http://www.w3.org/2000/svg" version="1.1"
	xmlns:xlink="http://www.w3.org/1999/xlink"
	xml:space='preserve' color="black"
	width="7.38in" height="2.28in" viewBox="0 0 531 164">
<title>song.abc (1) tune 1</title>
<!-- Creator: abcm2ps-7.8.9 -->
<!-- CreationDate: Jul 20, 2018 16:04 -->
<!-- CommandLine: -g song.abc -->
<g transform="scale(0.750)" stroke-width="0.70" font-family="Times" font-size="20.00">
<text x="354.13" y="21.67" text-anchor="middle">Test</text>
<path stroke="currentColor" fill="none"
	d="M206.33 99.01v-24.00"/>
<path stroke="currentColor" fill="none"
	d="M313.43 99.01v-24.00"/>
<path stroke="currentColor" fill="none"
	d="M425.93 99.01v-24.00"/>
<path stroke="currentColor" fill="none"
	d="M541.23 99.01v-24.00"/>
<path stroke="currentColor" fill="none"
	d="M694.93 99.01v-24.00"/>
<path stroke="currentColor" fill="none"
	d="M13.33 99.01h681.60m-681.60 -6h681.60m-681.60 -6h681.60m-681.60 -6h681.60m-681.60 -6h681.60"/>
</g>
<g transform="scale(0.750)" stroke-width="0.70" font-family="Helvetica" font-size="12.00">
<text x="58.33" y="62.61">C</text>
<text x="217.13" y="62.61">F</text>
<text x="323.43" y="62.61">G</text>
<text x="436.73" y="62.61">F</text>
<text x="547.03" y="62.61">Dm</text>
<defs>
<path id="utclef" fill="currentColor" d="m-50 -90
	c-72 -41 -72 -158 52 -188
	c150 -10 220 188 90 256
	c-114 52 -275 0 -293 -136
	c-15 -181 93 -229 220 -334
	c88 -87 79 -133 62 -210
	c-51 33 -94 105 -89 186
	c17 267 36 374 49 574
	c6 96 -19 134 -77 135
	c-80 1 -126 -93 -61 -133
	c85 -41 133 101 31 105
	c23 17 92 37 90 -92
	c-10 -223 -39 -342 -50 -617
	c0 -90 0 -162 96 -232
	c56 72 63 230 22 289
	c-74 106 -257 168 -255 316
	c9 153 148 185 252 133
	c86 -65 29 -192 -80 -176
	c-71 12 -105 67 -59 124"/>
<use id="tclef" transform="scale(0.045)"
	xlink:href="#utclef"/>
</defs>
<use x="25.33" y="99.01" xlink:href="#tclef"/>
<g font-family="serif" font-size="16" font-weight="bold" font-style="normal"
	transform="translate(43.83,99.01) scale(1.2,1)">
	<text y="-1" text-anchor="middle">8</text>
	<text y="-13" text-anchor="middle">6</text>
</g>
<defs>
<ellipse id="hd" rx="4.1" ry="2.9"
	transform="rotate(-20)" fill="currentColor"/>
</defs>
<use x="61.83" y="99.01" xlink:href="#hd"/>
<path d="M65.33 99.01v-20.00" stroke="currentColor" fill="none"/>
<defs>
<path id="hl" stroke="currentColor" d="m-6 0h12"/>
</defs>
<use x="100.63" y="69.01" xlink:href="#hl"/>
<use x="100.63" y="63.01" xlink:href="#hl"/>
<use x="100.63" y="63.01" xlink:href="#hd"/>
<path d="M97.13 63.01v24.00" stroke="currentColor" fill="none"/>
<path fill="currentColor"
	d="M97.13 87.01c0.6 -5.6 9.6 -9 5.6 -18.4
	c1.6 6 -1.3 11.6 -5.6 12.8
"/>
<defs>
<path id="ubclef" fill="currentColor" d="m-200 -87
	c124 -35 222 -78 254 -236
	c43 -228 -167 -246 -192 -103
	c59 -80 157 22 92 78
	c-62 47 -115 -22 -106 -88
	c21 -141 270 -136 274 52
	c-1 175 -106 264 -322 297
	m357 -250
	c0 -36 51 -34 51 0
	c0 37 -51 36 -51 0
	m-2 -129
	c0 -36 51 -34 51 0
	c0 38 -51 37 -51 0"/>
<use id="sbclef" transform="translate(0,-3.5) scale(0.037)"
	xlink:href="#ubclef"/>
</defs>
<use x="118.13" y="99.01" xlink:href="#sbclef"/>
<use x="132.63" y="69.01" xlink:href="#hl"/>
<use x="132.63" y="63.01" xlink:href="#hl"/>
<use x="132.63" y="63.01" xlink:href="#hd"/>
<path d="M129.13 63.01v24.00" stroke="currentColor" fill="none"/>
<use x="171.33" y="69.01" xlink:href="#hl"/>
<use x="171.33" y="69.01" xlink:href="#hd"/>
<path d="M167.83 69.01v22.00" stroke="currentColor" fill="none"/>
<path fill="currentColor"
	d="M167.83 91.01c0.9 -3.7 9.1 -6.4 6 -12.4
	c1 5.4 -4.2 8.4 -6 8.4
M167.83 85.61c0.9 -3.7 9.1 -6.4 6 -12.4
	c1 5.4 -4.2 8.4 -6 8.4
"/>
<use x="190.73" y="84.01" xlink:href="#hd"/>
<path d="M187.23 84.01v22.00" stroke="currentColor" fill="none"/>
<path fill="currentColor"
	d="M187.23 106.01c0.9 -3.7 9.1 -6.4 6 -12.4
	c1 5.4 -4.2 8.4 -6 8.4
M187.23 100.61c0.9 -3.7 9.1 -6.4 6 -12.4
	c1 5.4 -4.2 8.4 -6 8.4
"/>
<use x="220.03" y="84.01" xlink:href="#hd"/>
<circle fill="currentColor" cx="228.03" cy="84.01" r="1.2"/>
<path d="M216.53 84.01v20.00" stroke="currentColor" fill="none"/>
<defs>
<path id="r4" fill="currentColor" d="m-1 -8.5
	l3.6 5.1 -2.1 5.2 2.2 4.3
	c-2.6 -2.3 -5.1 0 -2.4 2.6
	c-4.8 -3 -1.5 -6.9 1.4 -4.1
	l-3.1 -4.5 1.9 -5.1 -1.5 -3.5"/>
</defs>
<use x="264.23" y="87.01" xlink:href="#r4"/>
<circle fill="currentColor" cx="272.23" cy="84.01" r="1.2"/>
<defs>
<use id="stclef" transform="translate(0,-0.6) scale(0.037)"
	xlink:href="#utclef"/>
</defs>
<use x="298.43" y="99.01" xlink:href="#stclef"/>
<use x="327.23" y="87.01" xlink:href="#hd"/>
<path d="M323.73 87.01v20.00" stroke="currentColor" fill="none"/>
<path fill="currentColor"
	d="M323.73 107.01c0.6 -5.6 9.6 -9 5.6 -18.4
	c1.6 6 -1.3 11.6 -5.6 12.8
"/>
<use x="354.63" y="69.01" xlink:href="#hl"/>
<defs>
<path id="Hd" fill="currentColor" d="m3 -1.6
	c-1 -1.8 -7 1.4 -6 3.2
	c1 1.8 7 -1.4 6 -3.2
	m0.5 -0.3
	c2 3.8 -5 7.6 -7 3.8
	c-2 -3.8 5 -7.6 7 -3.8"/>
</defs>
<use x="354.63" y="66.01" xlink:href="#Hd"/>
<path d="M351.13 66.01v21.00" stroke="currentColor" fill="none"/>
<defs>
<path id="r8e" fill="currentColor" d="m 0 0
	c-1.5 1.5 -2.4 2 -3.6 2
	c2.4 -2.8 -2.8 -4 -2.8 -1.2
	c0 2.7 4.3 2.4 5.9 0.6"/>
<g id="r8">
	<path d="m3.3 -4l-3.4 9.6" stroke="currentColor" fill="none"/>
	<use x="3.4" y="-4" xlink:href="#r8e"/>
</g>
</defs>
<use x="403.93" y="87.01" xlink:href="#r8"/>
<use x="439.73" y="87.01" xlink:href="#r4"/>
<use x="478.43" y="69.01" xlink:href="#hl"/>
<use x="478.43" y="69.01" xlink:href="#hd"/>
<path d="M474.93 69.01v20.00" stroke="currentColor" fill="none"/>
<path fill="currentColor"
	d="M474.93 89.01c0.6 -5.6 9.6 -9 5.6 -18.4
	c1.6 6 -1.3 11.6 -5.6 12.8
"/>
<use x="505.83" y="84.01" xlink:href="#hd"/>
<circle fill="currentColor" cx="513.83" cy="84.01" r="1.2"/>
<path d="M502.33 84.01v20.00" stroke="currentColor" fill="none"/>
<use x="554.93" y="99.01" xlink:href="#hd"/>
<path d="M558.43 99.01v-20.00" stroke="currentColor" fill="none"/>
<use x="593.73" y="102.01" xlink:href="#hd"/>
<path d="M597.23 102.01v-21.00" stroke="currentColor" fill="none"/>
<path fill="currentColor"
	d="M597.23 81.01c0.9 3.7 9.1 6.4 6 12.4
	c1 -5.4 -4.2 -8.4 -6 -8.4
M597.23 86.41c0.9 3.7 9.1 6.4 6 12.4
	c1 -5.4 -4.2 -8.4 -6 -8.4
"/>
<use x="613.13" y="102.01" xlink:href="#hd"/>
<path d="M616.63 102.01v-20.00" stroke="currentColor" fill="none"/>
<use x="651.93" y="102.01" xlink:href="#hd"/>
<path d="M655.43 102.01v-20.00" stroke="currentColor" fill="none"/>
<path fill="currentColor"
	d="	M655.43 82.01c0.6 5.6 9.6 9 5.6 18.4
	c1.6 -6 -1.3 -11.6 -5.6 -12.8
"/>
<use x="679.43" y="81.01" xlink:href="#hd"/>
<path d="M675.93 81.01v22.00" stroke="currentColor" fill="none"/>
<path fill="currentColor"
	d="M675.93 103.01c0.9 -3.7 9.1 -6.4 6 -12.4
	c1 5.4 -4.2 8.4 -6 8.4
M675.93 97.61c0.9 -3.7 9.1 -6.4 6 -12.4
	c1 5.4 -4.2 8.4 -6 8.4
"/>
<path stroke="currentColor" fill="none"
	d="M171.83 196.01v-24.00"/>
<path stroke="currentColor" fill="none"
	d="M288.03 196.01v-24.00"/>
<path stroke="currentColor" fill="none"
	d="M460.13 196.01v-24.00"/>
<path stroke="currentColor" fill="none"
	d="M583.43 196.01v-24.00"/>
<path stroke="currentColor" fill="none" stroke-width="3"
	d="M693.43 196.01v-24.00"/>
<path stroke="currentColor" fill="none"
	d="M688.93 196.01v-24.00"/>
<path stroke="currentColor" fill="none"
	d="M13.33 196.01h681.60m-681.60 -6h681.60m-681.60 -6h681.60m-681.60 -6h681.60m-681.60 -6h681.60"/>
<text x="46.93" y="133.61">F</text>
<text x="176.63" y="133.61">Am</text>
<text x="297.13" y="133.61">C</text>
<text x="469.83" y="133.61">F</text>
<text x="593.13" y="133.61">F</text>
<use x="25.33" y="196.01" xlink:href="#tclef"/>
<use x="49.83" y="166.01" xlink:href="#hl"/>
<use x="49.83" y="166.01" xlink:href="#hd"/>
<path d="M46.33 166.01v20.00" stroke="currentColor" fill="none"/>
<path fill="currentColor"
	d="M46.33 186.01c0.6 -5.6 9.6 -9 5.6 -18.4
	c1.6 6 -1.3 11.6 -5.6 12.8
"/>
<use x="72.03" y="184.01" xlink:href="#r8"/>
<use x="94.23" y="193.01" xlink:href="#hd"/>
<path d="M97.73 193.01v-20.00" stroke="currentColor" fill="none"/>
<path fill="currentColor"
	d="	M97.73 173.01c0.6 5.6 9.6 9 5.6 18.4
	c1.6 -6 -1.3 -11.6 -5.6 -12.8
"/>
<use x="119.13" y="187.01" xlink:href="#hd"/>
<path d="M122.63 187.01v-20.00" stroke="currentColor" fill="none"/>
<path fill="currentColor"
	d="	M122.63 167.01c0.6 5.6 9.6 9 5.6 18.4
	c1.6 -6 -1.3 -11.6 -5.6 -12.8
"/>
<use x="144.03" y="202.01" xlink:href="#hl"/>
<use x="144.03" y="202.01" xlink:href="#hd"/>
<path d="M147.53 202.01v-20.00" stroke="currentColor" fill="none"/>
<use x="184.53" y="166.01" xlink:href="#hl"/>
<use x="184.53" y="160.01" xlink:href="#hl"/>
<use x="184.53" y="154.01" xlink:href="#hl"/>
<use x="184.53" y="148.01" xlink:href="#hl"/>
<use x="184.53" y="145.01" xlink:href="#hd"/>
<circle fill="currentColor" cx="192.53" cy="145.01" r="1.2"/>
<path d="M181.03 145.01v39.00" stroke="currentColor" fill="none"/>
<use x="220.33" y="202.01" xlink:href="#hl"/>
<use x="220.33" y="208.01" xlink:href="#hl"/>
<use x="220.33" y="208.01" xlink:href="#hd"/>
<path d="M223.83 208.01v-24.00" stroke="currentColor" fill="none"/>
<path fill="currentColor"
	d="M223.83 184.01c0.9 3.7 9.1 6.4 6 12.4
	c1 -5.4 -4.2 -8.4 -6 -8.4
M223.83 189.41c0.9 3.7 9.1 6.4 6 12.4
	c1 -5.4 -4.2 -8.4 -6 -8.4
"/>
<use x="239.33" y="166.01" xlink:href="#hl"/>
<use x="239.33" y="166.01" xlink:href="#hd"/>
<path d="M235.83 166.01v20.00" stroke="currentColor" fill="none"/>
<use x="273.93" y="172.01" xlink:href="#hd"/>
<path d="M270.43 172.01v22.00" stroke="currentColor" fill="none"/>
<path fill="currentColor"
	d="M270.43 194.01c0.9 -3.7 9.1 -6.4 6 -12.4
	c1 5.4 -4.2 8.4 -6 8.4
M270.43 188.61c0.9 -3.7 9.1 -6.4 6 -12.4
	c1 5.4 -4.2 8.4 -6 8.4
"/>
<use x="300.63" y="196.01" xlink:href="#hd"/>
<path d="M304.13 196.01v-20.00" stroke="currentColor" fill="none"/>
<use x="335.43" y="181.01" xlink:href="#hd"/>
<path d="M331.93 181.01v20.00" stroke="currentColor" fill="none"/>
<path fill="currentColor"
	d="M331.93 201.01c0.6 -5.6 9.6 -9 5.6 -18.4
	c1.6 6 -1.3 11.6 -5.6 12.8
"/>
<use x="357.53" y="196.01" xlink:href="#hd"/>
<path d="M361.03 196.01v-20.00" stroke="currentColor" fill="none"/>
<path fill="currentColor"
	d="	M361.03 176.01c0.6 5.6 9.6 9 5.6 18.4
	c1.6 -6 -1.3 -11.6 -5.6 -12.8
"/>
<use x="382.63" y="181.01" xlink:href="#hd"/>
<circle fill="currentColor" cx="390.63" cy="181.01" r="1.2"/>
<path d="M379.13 181.01v20.00" stroke="currentColor" fill="none"/>
<path fill="currentColor"
	d="M379.13 201.01c0.6 -5.6 9.6 -9 5.6 -18.4
	c1.6 6 -1.3 11.6 -5.6 12.8
"/>
<use x="406.63" y="196.01" xlink:href="#sbclef"/>
<use x="421.13" y="187.01" xlink:href="#hd"/>
<path d="M424.63 187.01v-21.00" stroke="currentColor" fill="none"/>
<path fill="currentColor"
	d="M424.63 166.01c0.9 3.7 9.1 6.4 6 12.4
	c1 -5.4 -4.2 -8.4 -6 -8.4
M424.63 171.41c0.9 3.7 9.1 6.4 6 12.4
	c1 -5.4 -4.2 -8.4 -6 -8.4
"/>
<use x="445.13" y="196.01" xlink:href="#stclef"/>
<use x="472.83" y="193.01" xlink:href="#hd"/>
<path d="M476.33 193.01v-20.00" stroke="currentColor" fill="none"/>
<use x="507.53" y="172.01" xlink:href="#hd"/>
<path d="M504.03 172.01v20.00" stroke="currentColor" fill="none"/>
<path fill="currentColor"
	d="M504.03 192.01c0.6 -5.6 9.6 -9 5.6 -18.4
	c1.6 6 -1.3 11.6 -5.6 12.8
"/>
<use x="532.13" y="172.01" xlink:href="#hd"/>
<path d="M528.63 172.01v20.00" stroke="currentColor" fill="none"/>
<use x="563.33" y="196.01" xlink:href="#hd"/>
<path d="M566.83 196.01v-20.00" stroke="currentColor" fill="none"/>
<path fill="currentColor"
	d="	M566.83 176.01c0.6 5.6 9.6 9 5.6 18.4
	c1.6 -6 -1.3 -11.6 -5.6 -12.8
"/>
<use x="596.13" y="166.01" xlink:href="#hl"/>
<use x="596.13" y="166.01" xlink:href="#hd"/>
<path d="M592.63 166.01v22.00" stroke="currentColor" fill="none"/>
<path fill="currentColor"
	d="M592.63 188.01c0.9 -3.7 9.1 -6.4 6 -12.4
	c1 5.4 -4.2 8.4 -6 8.4
M592.63 182.61c0.9 -3.7 9.1 -6.4 6 -12.4
	c1 5.4 -4.2 8.4 -6 8.4
"/>
<use x="613.63" y="181.01" xlink:href="#hd"/>
<path d="M610.13 181.01v22.00" stroke="currentColor" fill="none"/>
<path fill="currentColor"
	d="M610.13 203.01c0.9 -3.7 9.1 -6.4 6 -12.4
	c1 5.4 -4.2 8.4 -6 8.4
M610.13 197.61c0.9 -3.7 9.1 -6.4 6 -12.4
	c1 5.4 -4.2 8.4 -6 8.4
"/>
<use x="631.13" y="166.01" xlink:href="#hl"/>
<use x="631.13" y="166.01" xlink:href="#hd"/>
<circle fill="currentColor" cx="639.13" cy="163.01" r="1.2"/>
<path d="M627.63 166.01v20.00" stroke="currentColor" fill="none"/>
<use x="666.83" y="187.01" xlink:href="#hd"/>
<path d="M670.33 187.01v-20.00" stroke="currentColor" fill="none"/>
</g>
</svg>
