<?xml version="1.0" standalone="no"?>
<!DOCTYPE svg PUBLIC "-//W3C//DTD SVG 1.1//EN"
	"http://www.w3.org/Graphics/SVG/1.1/DTD/svg11.dtd">
<svg xmlns="http://www.w3.org/2000/svg" version="1.1"
	xmlns:xlink="http://www.w3.org/1999/xlink"
	color="black"
	width="701.60px" height="1988.00px">
<style type="text/css">
.fill {fill: currentColor}
.stroke {stroke: currentColor; fill: none}
text{white-space: pre}
</style>
<title>generated_songs/evolved.abc (1) tune 1</title>
<!-- Creator: abcm2ps-8.13.23 -->
<!-- CreationDate: Oct 23, 2018 22:28 -->
<!-- CommandLine: -g generated_songs/evolved.abc -->
<g stroke-width="0.70">
<!-- title: Mandad'ei comigo evolved -->
</g>
<g stroke-width="0.70" font-family="Times" font-size="20.00">
<text x="350.80" y="22.00" text-anchor="middle">Mandad&apos;ei comigo evolved</text>
</g>
<g stroke-width="0.70" transform="scale(0.700)" font-family="Times" font-size="20.00">
<defs>
<ellipse id="hd" rx="4.1" ry="2.9"
	transform="rotate(-20)" class="fill"/>
</defs>
<use x="84.43" y="75.57" xlink:href="#hd"/>
<path d="M87.93 75.57v-21.00" class="stroke"/>
</g>
<g stroke-width="0.70" font-family="Times" font-size="15.00" font-weight="bold">
<text x="66.80" y="55.00">= 300</text>
<path class="stroke" stroke-width="1"
	d="M131.70 110.00v-24.00"/>
<path class="stroke" stroke-width="1"
	d="M222.50 110.00v-24.00"/>
<path class="stroke" stroke-width="1"
	d="M313.30 110.00v-24.00"/>
<path class="stroke" stroke-width="1"
	d="M427.70 110.00v-24.00"/>
<path class="stroke" stroke-width="1"
	d="M543.40 110.00v-24.00"/>
<path class="stroke" stroke-width="1"
	d="M600.80 110.00v-24.00"/>
<path class="stroke" stroke-width="1"
	d="M691.60 110.00v-24.00"/>
<path d="m10.00 110.00
	h681.60
	M10.00 104.00
	h681.60
	M10.00 98.00
	h681.60
	M10.00 92.00
	h681.60
	M10.00 86.00
	h681.60
	" class="stroke"/>
</g>
<g stroke-width="0.70" font-family="Helvetica" font-size="12.00">
<text x="54.70" y="70.60">G</text>
<text x="141.60" y="70.60">G</text>
<text x="232.40" y="70.60">G</text>
<text x="323.20" y="70.60">G</text>
<text x="437.60" y="70.60">G</text>
<text x="553.30" y="70.60">G</text>
<text x="610.70" y="70.60">G</text>
<defs>
<path id="utclef" class="fill" d="m-50 -90
	c-72 -41 -72 -158 52 -188
	150 -10 220 188 90 256
	-114 52 -275 0 -293 -136
	-15 -181 93 -229 220 -334
	88 -87 79 -133 62 -210
	-51 33 -94 105 -89 186
	17 267 36 374 49 574
	6 96 -19 134 -77 135
	-80 1 -126 -93 -61 -133
	85 -41 133 101 31 105
	23 17 92 37 90 -92
	-10 -223 -39 -342 -50 -617
	0 -90 0 -162 96 -232
	56 72 63 230 22 289
	-74 106 -257 168 -255 316
	9 153 148 185 252 133
	86 -65 29 -192 -80 -176
	-71 12 -105 67 -59 124"/>
<use id="tclef" transform="translate(0,6) scale(0.045)"
	xlink:href="#utclef"/>
</defs>
<use x="22.00" y="104.00" xlink:href="#tclef"/>
<g font-family="serif" font-size="16" font-weight="bold" font-style="normal"
	transform="translate(40.50,109.50) scale(1.2,1)">
	<text text-anchor="middle">4</text>
	<text y="-12" text-anchor="middle">3</text>
</g>
<use x="58.50" y="98.00" xlink:href="#hd"/>
<path d="M55.00 98.00v21.00" class="stroke"/>
<defs>
<path id="Hd" class="fill" d="m3 -1.6
	c-1 -1.8 -7 1.4 -6 3.2
	1 1.8 7 -1.4 6 -3.2
	m0.5 -0.3
	c2 3.8 -5 7.6 -7 3.8
	-2 -3.8 5 -7.6 7 -3.8"/>
</defs>
<use x="93.30" y="104.00" xlink:href="#Hd"/>
<path d="M96.80 104.00v-21.00" class="stroke"/>
<use x="145.40" y="101.00" xlink:href="#hd"/>
<path d="M148.90 101.00v-21.00" class="stroke"/>
<use x="184.10" y="98.00" xlink:href="#Hd"/>
<path d="M187.60 98.00v-21.00" class="stroke"/>
<use x="236.20" y="98.00" xlink:href="#hd"/>
<path d="M239.70 98.00v-21.00" class="stroke"/>
<use x="274.90" y="92.00" xlink:href="#Hd"/>
<path d="M271.40 92.00v21.00" class="stroke"/>
<use x="327.00" y="95.00" xlink:href="#hd"/>
<path d="M323.50 95.00v21.00" class="stroke"/>
<use x="365.70" y="98.00" xlink:href="#hd"/>
<path d="M362.20 98.00v21.00" class="stroke"/>
<use x="400.60" y="101.00" xlink:href="#hd"/>
<path d="M404.10 101.00v-21.00" class="stroke"/>
<use x="441.40" y="98.00" xlink:href="#hd"/>
<path d="M444.90 98.00v-21.00" class="stroke"/>
<use x="480.10" y="101.00" xlink:href="#hd"/>
<circle class="fill" cx="487.80" cy="101.00" r="1.2"/>
<path d="M483.60 101.00v-21.00" class="stroke"/>
<use x="524.20" y="104.00" xlink:href="#hd"/>
<path d="M527.70 104.00v-21.00" class="stroke"/>
<path class="fill"
	d="M527.70 83.00c0.6 5.6 9.6 9 5.6 18.4
	1.6 -6 -1.3 -11.6 -5.6 -12.8
"/>
<use x="557.10" y="104.00" xlink:href="#Hd"/>
<circle class="fill" cx="565.80" cy="101.00" r="1.2"/>
<path d="M560.60 104.00v-21.00" class="stroke"/>
<use x="614.50" y="101.00" xlink:href="#hd"/>
<path d="M618.00 101.00v-21.00" class="stroke"/>
<use x="653.20" y="104.00" xlink:href="#Hd"/>
<path d="M656.70 104.00v-21.00" class="stroke"/>
</g>
<g stroke-width="0.70" font-family="Helvetica" font-size="12.00">
<path class="stroke" stroke-width="1"
	d="M162.00 184.00v-24.00"/>
<path class="stroke" stroke-width="1"
	d="M298.10 184.00v-24.00"/>
<path class="stroke" stroke-width="1"
	d="M469.60 184.00v-24.00"/>
<path class="stroke" stroke-width="1"
	d="M555.50 184.00v-24.00"/>
<path class="stroke" stroke-width="1"
	d="M691.60 184.00v-24.00"/>
<path d="m10.00 184.00
	h681.60
	M10.00 178.00
	h681.60
	M10.00 172.00
	h681.60
	M10.00 166.00
	h681.60
	M10.00 160.00
	h681.60
	" class="stroke"/>
<text x="42.70" y="144.60">G</text>
<text x="178.80" y="144.60">G</text>
<text x="314.80" y="144.60">G</text>
<text x="486.30" y="144.60">G</text>
<text x="573.10" y="144.60">F</text>
<use x="22.00" y="178.00" xlink:href="#tclef"/>
<use x="46.50" y="175.00" xlink:href="#hd"/>
<path d="M50.00 175.00v-21.00" class="stroke"/>
<use x="104.50" y="172.00" xlink:href="#Hd"/>
<path d="M108.00 172.00v-21.00" class="stroke"/>
<use x="182.60" y="172.00" xlink:href="#hd"/>
<path d="M186.10 172.00v-21.00" class="stroke"/>
<use x="240.60" y="166.00" xlink:href="#Hd"/>
<path d="M237.10 166.00v21.00" class="stroke"/>
<use x="318.70" y="169.00" xlink:href="#hd"/>
<path d="M315.20 169.00v21.00" class="stroke"/>
<use x="376.70" y="172.00" xlink:href="#hd"/>
<path d="M373.20 172.00v21.00" class="stroke"/>
<use x="428.90" y="175.00" xlink:href="#hd"/>
<path d="M432.40 175.00v-21.00" class="stroke"/>
<use x="490.10" y="178.00" xlink:href="#Hd"/>
<circle class="fill" cx="498.80" cy="175.00" r="1.2"/>
<path d="M493.60 178.00v-21.00" class="stroke"/>
<use x="576.10" y="178.00" xlink:href="#hd"/>
<path d="M579.60 178.00v-21.00" class="stroke"/>
<use x="634.10" y="181.00" xlink:href="#Hd"/>
<path d="M637.60 181.00v-21.00" class="stroke"/>
</g>
<g stroke-width="0.70" font-family="Helvetica" font-size="12.00">
<path class="stroke" stroke-width="1"
	d="M123.00 258.00v-24.00"/>
<path class="stroke" stroke-width="1"
	d="M180.00 258.00v-24.00"/>
<path class="stroke" stroke-width="1"
	d="M270.20 258.00v-24.00"/>
<path class="stroke" stroke-width="1"
	d="M387.60 258.00v-24.00"/>
<path class="stroke" stroke-width="1"
	d="M521.00 258.00v-24.00"/>
<path class="stroke" stroke-width="1"
	d="M634.60 258.00v-24.00"/>
<path d="m10.00 258.00
	h681.60
	M10.00 252.00
	h681.60
	M10.00 246.00
	h681.60
	M10.00 240.00
	h681.60
	M10.00 234.00
	h681.60
	" class="stroke"/>
<text x="42.70" y="218.60">G</text>
<text x="132.80" y="218.60">G</text>
<text x="189.80" y="218.60">G</text>
<text x="280.90" y="218.60">F</text>
<text x="397.40" y="218.60">G</text>
<text x="530.80" y="218.60">G</text>
<text x="644.40" y="218.60">G</text>
<use x="22.00" y="252.00" xlink:href="#tclef"/>
<use x="46.50" y="252.00" xlink:href="#hd"/>
<path d="M50.00 252.00v-21.00" class="stroke"/>
<use x="84.90" y="249.00" xlink:href="#Hd"/>
<path d="M88.40 249.00v-21.00" class="stroke"/>
<use x="136.70" y="246.00" xlink:href="#Hd"/>
<circle class="fill" cx="145.40" cy="243.00" r="1.2"/>
<path d="M140.20 246.00v-21.00" class="stroke"/>
<use x="193.60" y="249.00" xlink:href="#hd"/>
<path d="M197.10 249.00v-21.00" class="stroke"/>
<use x="232.10" y="252.00" xlink:href="#Hd"/>
<path d="M235.60 252.00v-21.00" class="stroke"/>
<use x="283.80" y="249.00" xlink:href="#hd"/>
<path d="M287.30 249.00v-21.00" class="stroke"/>
<use x="322.20" y="252.00" xlink:href="#hd"/>
<path d="M325.70 252.00v-21.00" class="stroke"/>
<use x="360.70" y="255.00" xlink:href="#hd"/>
<path d="M364.20 255.00v-21.00" class="stroke"/>
<use x="401.20" y="252.00" xlink:href="#hd"/>
<path d="M404.70 252.00v-21.00" class="stroke"/>
<use x="439.70" y="249.00" xlink:href="#hd"/>
<path d="M443.20 249.00v-21.00" class="stroke"/>
<path class="fill"
	d="M443.20 228.00c0.6 5.6 9.6 9 5.6 18.4
	1.6 -6 -1.3 -11.6 -5.6 -12.8
"/>
<use x="466.90" y="246.00" xlink:href="#hd"/>
<path d="M470.40 246.00v-21.00" class="stroke"/>
<path class="fill"
	d="M470.40 225.00c0.6 5.6 9.6 9 5.6 18.4
	1.6 -6 -1.3 -11.6 -5.6 -12.8
"/>
<use x="494.10" y="243.00" xlink:href="#hd"/>
<path d="M490.60 243.00v21.00" class="stroke"/>
<use x="534.70" y="246.00" xlink:href="#hd"/>
<path d="M531.20 246.00v21.00" class="stroke"/>
<use x="569.30" y="249.00" xlink:href="#hd"/>
<path d="M572.80 249.00v-21.00" class="stroke"/>
<use x="607.70" y="246.00" xlink:href="#hd"/>
<path d="M611.20 246.00v-21.00" class="stroke"/>
<use x="648.20" y="252.00" xlink:href="#Hd"/>
<circle class="fill" cx="656.90" cy="249.00" r="1.2"/>
<path d="M651.70 252.00v-21.00" class="stroke"/>
</g>
<g stroke-width="0.70" font-family="Helvetica" font-size="12.00">
<path class="stroke" stroke-width="1"
	d="M42.00 332.00v-24.00"/>
<path class="stroke" stroke-width="1"
	d="M133.20 332.00v-24.00"/>
<path class="stroke" stroke-width="1"
	d="M224.40 332.00v-24.00"/>
<path class="stroke" stroke-width="1"
	d="M315.60 332.00v-24.00"/>
<path class="stroke" stroke-width="1"
	d="M430.50 332.00v-24.00"/>
<path class="stroke" stroke-width="1"
	d="M542.80 332.00v-24.00"/>
<path class="stroke" stroke-width="1"
	d="M600.40 332.00v-24.00"/>
<path class="stroke" stroke-width="1"
	d="M691.60 332.00v-24.00"/>
<path d="m10.00 332.00
	h681.60
	M10.00 326.00
	h681.60
	M10.00 320.00
	h681.60
	M10.00 314.00
	h681.60
	M10.00 308.00
	h681.60
	" class="stroke"/>
<text x="52.00" y="292.60">G</text>
<text x="143.10" y="292.60">G</text>
<text x="234.30" y="292.60">G</text>
<text x="325.50" y="292.60">G</text>
<text x="440.40" y="292.60">G</text>
<text x="552.80" y="292.60">G</text>
<text x="610.40" y="292.60">G</text>
<use x="22.00" y="326.00" xlink:href="#tclef"/>
<use x="55.80" y="320.00" xlink:href="#hd"/>
<path d="M59.30 320.00v-21.00" class="stroke"/>
<use x="94.70" y="326.00" xlink:href="#Hd"/>
<path d="M98.20 326.00v-21.00" class="stroke"/>
<use x="147.00" y="323.00" xlink:href="#hd"/>
<path d="M150.50 323.00v-21.00" class="stroke"/>
<use x="185.80" y="320.00" xlink:href="#Hd"/>
<path d="M189.30 320.00v-21.00" class="stroke"/>
<use x="238.10" y="320.00" xlink:href="#hd"/>
<path d="M241.60 320.00v-21.00" class="stroke"/>
<use x="277.00" y="314.00" xlink:href="#Hd"/>
<path d="M273.50 314.00v21.00" class="stroke"/>
<use x="329.30" y="317.00" xlink:href="#hd"/>
<path d="M325.80 317.00v21.00" class="stroke"/>
<use x="364.30" y="335.00" xlink:href="#hd"/>
<path d="M367.80 335.00v-21.00" class="stroke"/>
<use x="403.20" y="317.00" xlink:href="#hd"/>
<path d="M399.70 317.00v21.00" class="stroke"/>
<use x="444.20" y="320.00" xlink:href="#hd"/>
<path d="M440.70 320.00v21.00" class="stroke"/>
<use x="479.20" y="323.00" xlink:href="#hd"/>
<circle class="fill" cx="486.90" cy="323.00" r="1.2"/>
<path d="M482.70 323.00v-21.00" class="stroke"/>
<use x="523.50" y="326.00" xlink:href="#hd"/>
<path d="M527.00 326.00v-21.00" class="stroke"/>
<path class="fill"
	d="M527.00 305.00c0.6 5.6 9.6 9 5.6 18.4
	1.6 -6 -1.3 -11.6 -5.6 -12.8
"/>
<use x="556.60" y="326.00" xlink:href="#Hd"/>
<circle class="fill" cx="565.30" cy="323.00" r="1.2"/>
<path d="M560.10 326.00v-21.00" class="stroke"/>
<use x="614.20" y="323.00" xlink:href="#hd"/>
<path d="M617.70 323.00v-21.00" class="stroke"/>
<use x="653.10" y="326.00" xlink:href="#Hd"/>
<path d="M656.60 326.00v-21.00" class="stroke"/>
</g>
<g stroke-width="0.70" font-family="Helvetica" font-size="12.00">
<path class="stroke" stroke-width="1"
	d="M162.00 406.00v-24.00"/>
<path class="stroke" stroke-width="1"
	d="M298.10 406.00v-24.00"/>
<path class="stroke" stroke-width="1"
	d="M469.60 406.00v-24.00"/>
<path class="stroke" stroke-width="1"
	d="M555.50 406.00v-24.00"/>
<path class="stroke" stroke-width="1"
	d="M691.60 406.00v-24.00"/>
<path d="m10.00 406.00
	h681.60
	M10.00 400.00
	h681.60
	M10.00 394.00
	h681.60
	M10.00 388.00
	h681.60
	M10.00 382.00
	h681.60
	" class="stroke"/>
<text x="42.70" y="366.60">G</text>
<text x="178.80" y="366.60">G</text>
<text x="314.80" y="366.60">G</text>
<text x="486.30" y="366.60">G</text>
<text x="573.10" y="366.60">F</text>
<use x="22.00" y="400.00" xlink:href="#tclef"/>
<use x="46.50" y="397.00" xlink:href="#hd"/>
<path d="M50.00 397.00v-21.00" class="stroke"/>
<use x="104.50" y="394.00" xlink:href="#Hd"/>
<path d="M108.00 394.00v-21.00" class="stroke"/>
<use x="182.60" y="394.00" xlink:href="#hd"/>
<path d="M186.10 394.00v-21.00" class="stroke"/>
<use x="240.60" y="388.00" xlink:href="#Hd"/>
<path d="M237.10 388.00v21.00" class="stroke"/>
<use x="318.70" y="391.00" xlink:href="#hd"/>
<path d="M315.20 391.00v21.00" class="stroke"/>
<use x="376.70" y="388.00" xlink:href="#hd"/>
<path d="M373.20 388.00v21.00" class="stroke"/>
<use x="428.90" y="397.00" xlink:href="#hd"/>
<path d="M432.40 397.00v-21.00" class="stroke"/>
<use x="490.10" y="400.00" xlink:href="#Hd"/>
<circle class="fill" cx="498.80" cy="397.00" r="1.2"/>
<path d="M493.60 400.00v-21.00" class="stroke"/>
<use x="576.10" y="400.00" xlink:href="#hd"/>
<path d="M579.60 400.00v-21.00" class="stroke"/>
<use x="634.10" y="403.00" xlink:href="#Hd"/>
<path d="M637.60 403.00v-21.00" class="stroke"/>
</g>
<g stroke-width="0.70" font-family="Helvetica" font-size="12.00">
<path class="stroke" stroke-width="1"
	d="M123.00 480.00v-24.00"/>
<path class="stroke" stroke-width="1"
	d="M180.00 480.00v-24.00"/>
<path class="stroke" stroke-width="1"
	d="M270.20 480.00v-24.00"/>
<path class="stroke" stroke-width="1"
	d="M387.60 480.00v-24.00"/>
<path class="stroke" stroke-width="1"
	d="M521.00 480.00v-24.00"/>
<path class="stroke" stroke-width="1"
	d="M634.60 480.00v-24.00"/>
<path d="m10.00 480.00
	h681.60
	M10.00 474.00
	h681.60
	M10.00 468.00
	h681.60
	M10.00 462.00
	h681.60
	M10.00 456.00
	h681.60
	" class="stroke"/>
<text x="42.70" y="440.60">G</text>
<text x="132.80" y="440.60">G</text>
<text x="189.80" y="440.60">G</text>
<text x="280.90" y="440.60">F</text>
<text x="397.40" y="440.60">G</text>
<text x="530.80" y="440.60">G</text>
<text x="644.40" y="440.60">G</text>
<use x="22.00" y="474.00" xlink:href="#tclef"/>
<use x="46.50" y="474.00" xlink:href="#hd"/>
<path d="M50.00 474.00v-21.00" class="stroke"/>
<use x="84.90" y="471.00" xlink:href="#Hd"/>
<path d="M88.40 471.00v-21.00" class="stroke"/>
<use x="136.70" y="468.00" xlink:href="#Hd"/>
<circle class="fill" cx="145.40" cy="465.00" r="1.2"/>
<path d="M140.20 468.00v-21.00" class="stroke"/>
<use x="193.60" y="471.00" xlink:href="#hd"/>
<path d="M197.10 471.00v-21.00" class="stroke"/>
<use x="232.10" y="474.00" xlink:href="#Hd"/>
<path d="M235.60 474.00v-21.00" class="stroke"/>
<use x="283.80" y="471.00" xlink:href="#hd"/>
<path d="M287.30 471.00v-21.00" class="stroke"/>
<use x="322.20" y="474.00" xlink:href="#hd"/>
<path d="M325.70 474.00v-21.00" class="stroke"/>
<use x="360.70" y="477.00" xlink:href="#hd"/>
<path d="M364.20 477.00v-21.00" class="stroke"/>
<use x="401.20" y="474.00" xlink:href="#hd"/>
<path d="M404.70 474.00v-21.00" class="stroke"/>
<use x="439.70" y="471.00" xlink:href="#hd"/>
<path d="M443.20 471.00v-21.00" class="stroke"/>
<path class="fill"
	d="M443.20 450.00c0.6 5.6 9.6 9 5.6 18.4
	1.6 -6 -1.3 -11.6 -5.6 -12.8
"/>
<defs>
<path id="hl" class="stroke" d="m-6 0h12"/>
</defs>
<use x="466.90" y="450.00" xlink:href="#hl"/>
<use x="466.90" y="447.00" xlink:href="#hd"/>
<path d="M463.40 447.00v21.00" class="stroke"/>
<path class="fill"
	d="M463.40 468.00c0.6 -5.6 9.6 -9 5.6 -18.4
	1.6 6 -1.3 11.6 -5.6 12.8
"/>
<use x="494.10" y="465.00" xlink:href="#hd"/>
<path d="M490.60 465.00v21.00" class="stroke"/>
<use x="534.70" y="468.00" xlink:href="#hd"/>
<path d="M531.20 468.00v21.00" class="stroke"/>
<use x="569.20" y="471.00" xlink:href="#hd"/>
<path d="M572.70 471.00v-21.00" class="stroke"/>
<use x="607.70" y="483.00" xlink:href="#hd"/>
<path d="M611.20 483.00v-21.00" class="stroke"/>
<use x="648.20" y="474.00" xlink:href="#Hd"/>
<circle class="fill" cx="656.90" cy="471.00" r="1.2"/>
<path d="M651.70 474.00v-21.00" class="stroke"/>
</g>
<g stroke-width="0.70" font-family="Helvetica" font-size="12.00">
<path class="stroke" stroke-width="1"
	d="M42.00 554.00v-24.00"/>
<path class="stroke" stroke-width="1"
	d="M137.20 554.00v-24.00"/>
<path class="stroke" stroke-width="1"
	d="M232.50 554.00v-24.00"/>
<path class="stroke" stroke-width="1"
	d="M327.70 554.00v-24.00"/>
<path class="stroke" stroke-width="1"
	d="M423.00 554.00v-24.00"/>
<path class="stroke" stroke-width="1"
	d="M540.30 554.00v-24.00"/>
<path class="stroke" stroke-width="1"
	d="M600.40 554.00v-24.00"/>
<path class="stroke" stroke-width="1"
	d="M691.60 554.00v-24.00"/>
<path d="m10.00 554.00
	h681.60
	M10.00 548.00
	h681.60
	M10.00 542.00
	h681.60
	M10.00 536.00
	h681.60
	M10.00 530.00
	h681.60
	" class="stroke"/>
<text x="52.60" y="514.60">G</text>
<text x="147.80" y="514.60">G</text>
<text x="243.00" y="514.60">G</text>
<text x="338.30" y="514.60">G</text>
<text x="433.50" y="514.60">G</text>
<text x="550.80" y="514.60">G</text>
<text x="611.00" y="514.60">G</text>
<use x="22.00" y="548.00" xlink:href="#tclef"/>
<use x="56.40" y="542.00" xlink:href="#hd"/>
<path d="M59.90 542.00v-21.00" class="stroke"/>
<use x="97.00" y="548.00" xlink:href="#Hd"/>
<path d="M100.50 548.00v-21.00" class="stroke"/>
<use x="151.60" y="545.00" xlink:href="#hd"/>
<path d="M155.10 545.00v-21.00" class="stroke"/>
<use x="192.20" y="542.00" xlink:href="#Hd"/>
<path d="M195.70 542.00v-21.00" class="stroke"/>
<use x="246.90" y="530.00" xlink:href="#hd"/>
<path d="M243.40 530.00v21.00" class="stroke"/>
<use x="287.50" y="536.00" xlink:href="#Hd"/>
<path d="M284.00 536.00v21.00" class="stroke"/>
<use x="342.10" y="539.00" xlink:href="#hd"/>
<path d="M338.60 539.00v21.00" class="stroke"/>
<use x="382.70" y="542.00" xlink:href="#Hd"/>
<path d="M379.20 542.00v21.00" class="stroke"/>
<use x="437.30" y="536.00" xlink:href="#hd"/>
<path d="M433.80 536.00v21.00" class="stroke"/>
<use x="473.90" y="545.00" xlink:href="#hd"/>
<circle class="fill" cx="481.60" cy="545.00" r="1.2"/>
<path d="M477.40 545.00v-21.00" class="stroke"/>
<use x="520.10" y="548.00" xlink:href="#hd"/>
<path d="M523.60 548.00v-21.00" class="stroke"/>
<path class="fill"
	d="M523.60 527.00c0.6 5.6 9.6 9 5.6 18.4
	1.6 -6 -1.3 -11.6 -5.6 -12.8
"/>
<use x="554.60" y="548.00" xlink:href="#Hd"/>
<circle class="fill" cx="563.30" cy="545.00" r="1.2"/>
<path d="M558.10 548.00v-21.00" class="stroke"/>
<use x="614.80" y="539.00" xlink:href="#hd"/>
<path d="M611.30 539.00v21.00" class="stroke"/>
<use x="651.40" y="548.00" xlink:href="#Hd"/>
<path d="M654.90 548.00v-21.00" class="stroke"/>
</g>
<g stroke-width="0.70" font-family="Helvetica" font-size="12.00">
<path class="stroke" stroke-width="1"
	d="M161.00 625.00v-24.00"/>
<path class="stroke" stroke-width="1"
	d="M295.90 625.00v-24.00"/>
<path class="stroke" stroke-width="1"
	d="M471.60 625.00v-24.00"/>
<path class="stroke" stroke-width="1"
	d="M556.70 625.00v-24.00"/>
<path class="stroke" stroke-width="1"
	d="M691.60 625.00v-24.00"/>
<path d="m10.00 625.00
	h681.60
	M10.00 619.00
	h681.60
	M10.00 613.00
	h681.60
	M10.00 607.00
	h681.60
	M10.00 601.00
	h681.60
	" class="stroke"/>
<text x="42.70" y="588.60">G</text>
<text x="177.50" y="588.60">G</text>
<text x="312.40" y="588.60">G</text>
<text x="488.10" y="588.60">G</text>
<text x="574.20" y="588.60">F</text>
<use x="22.00" y="619.00" xlink:href="#tclef"/>
<use x="46.50" y="616.00" xlink:href="#hd"/>
<path d="M50.00 616.00v-21.00" class="stroke"/>
<use x="104.00" y="610.00" xlink:href="#Hd"/>
<path d="M100.50 610.00v21.00" class="stroke"/>
<use x="181.40" y="613.00" xlink:href="#hd"/>
<path d="M177.90 613.00v21.00" class="stroke"/>
<use x="238.90" y="598.00" xlink:href="#Hd"/>
<path d="M235.40 598.00v21.00" class="stroke"/>
<use x="316.20" y="610.00" xlink:href="#hd"/>
<path d="M312.70 610.00v21.00" class="stroke"/>
<use x="373.80" y="607.00" xlink:href="#hd"/>
<path d="M370.30 607.00v21.00" class="stroke"/>
<use x="431.30" y="595.00" xlink:href="#hl"/>
<use x="431.30" y="595.00" xlink:href="#hd"/>
<path d="M427.80 595.00v21.00" class="stroke"/>
<use x="491.90" y="619.00" xlink:href="#Hd"/>
<circle class="fill" cx="500.60" cy="616.00" r="1.2"/>
<path d="M495.40 619.00v-21.00" class="stroke"/>
<use x="577.10" y="619.00" xlink:href="#hd"/>
<path d="M580.60 619.00v-21.00" class="stroke"/>
<use x="634.60" y="622.00" xlink:href="#Hd"/>
<path d="M638.10 622.00v-21.00" class="stroke"/>
</g>
<g stroke-width="0.70" font-family="Helvetica" font-size="12.00">
<path class="stroke" stroke-width="1"
	d="M123.00 701.00v-24.00"/>
<path class="stroke" stroke-width="1"
	d="M180.00 701.00v-24.00"/>
<path class="stroke" stroke-width="1"
	d="M270.20 701.00v-24.00"/>
<path class="stroke" stroke-width="1"
	d="M387.60 701.00v-24.00"/>
<path class="stroke" stroke-width="1"
	d="M521.00 701.00v-24.00"/>
<path class="stroke" stroke-width="1"
	d="M634.60 701.00v-24.00"/>
<path d="m10.00 701.00
	h681.60
	M10.00 695.00
	h681.60
	M10.00 689.00
	h681.60
	M10.00 683.00
	h681.60
	M10.00 677.00
	h681.60
	" class="stroke"/>
<text x="42.70" y="659.60">G</text>
<text x="132.80" y="659.60">G</text>
<text x="189.80" y="659.60">G</text>
<text x="280.90" y="659.60">F</text>
<text x="397.40" y="659.60">G</text>
<text x="530.80" y="659.60">G</text>
<text x="644.40" y="659.60">G</text>
<use x="22.00" y="695.00" xlink:href="#tclef"/>
<use x="46.50" y="695.00" xlink:href="#hd"/>
<path d="M50.00 695.00v-21.00" class="stroke"/>
<use x="84.90" y="692.00" xlink:href="#Hd"/>
<path d="M88.40 692.00v-21.00" class="stroke"/>
<use x="136.70" y="689.00" xlink:href="#Hd"/>
<circle class="fill" cx="145.40" cy="686.00" r="1.2"/>
<path d="M140.20 689.00v-21.00" class="stroke"/>
<use x="193.60" y="692.00" xlink:href="#hd"/>
<path d="M197.10 692.00v-21.00" class="stroke"/>
<use x="232.10" y="695.00" xlink:href="#Hd"/>
<path d="M235.60 695.00v-21.00" class="stroke"/>
<use x="283.80" y="692.00" xlink:href="#hd"/>
<path d="M287.30 692.00v-21.00" class="stroke"/>
<use x="322.20" y="695.00" xlink:href="#hd"/>
<path d="M325.70 695.00v-21.00" class="stroke"/>
<use x="360.70" y="698.00" xlink:href="#hd"/>
<path d="M364.20 698.00v-21.00" class="stroke"/>
<use x="401.20" y="689.00" xlink:href="#hd"/>
<path d="M404.70 689.00v-21.00" class="stroke"/>
<use x="439.70" y="692.00" xlink:href="#hd"/>
<path d="M443.20 692.00v-21.00" class="stroke"/>
<path class="fill"
	d="M443.20 671.00c0.6 5.6 9.6 9 5.6 18.4
	1.6 -6 -1.3 -11.6 -5.6 -12.8
"/>
<use x="466.90" y="671.00" xlink:href="#hl"/>
<use x="466.90" y="668.00" xlink:href="#hd"/>
<path d="M463.40 668.00v21.00" class="stroke"/>
<path class="fill"
	d="M463.40 689.00c0.6 -5.6 9.6 -9 5.6 -18.4
	1.6 6 -1.3 11.6 -5.6 12.8
"/>
<use x="494.10" y="686.00" xlink:href="#hd"/>
<path d="M490.60 686.00v21.00" class="stroke"/>
<use x="534.60" y="671.00" xlink:href="#hl"/>
<use x="534.60" y="668.00" xlink:href="#hd"/>
<path d="M531.10 668.00v21.00" class="stroke"/>
<use x="573.10" y="671.00" xlink:href="#hl"/>
<use x="573.10" y="668.00" xlink:href="#hd"/>
<path d="M569.60 668.00v21.00" class="stroke"/>
<use x="607.70" y="704.00" xlink:href="#hd"/>
<path d="M611.20 704.00v-21.00" class="stroke"/>
<use x="648.20" y="695.00" xlink:href="#Hd"/>
<circle class="fill" cx="656.90" cy="692.00" r="1.2"/>
<path d="M651.70 695.00v-21.00" class="stroke"/>
</g>
<g stroke-width="0.70" font-family="Helvetica" font-size="12.00">
<path class="stroke" stroke-width="1"
	d="M42.00 772.00v-24.00"/>
<path class="stroke" stroke-width="1"
	d="M135.40 772.00v-24.00"/>
<path class="stroke" stroke-width="1"
	d="M228.90 772.00v-24.00"/>
<path class="stroke" stroke-width="1"
	d="M322.30 772.00v-24.00"/>
<path class="stroke" stroke-width="1"
	d="M415.70 772.00v-24.00"/>
<path class="stroke" stroke-width="1"
	d="M539.20 772.00v-24.00"/>
<path class="stroke" stroke-width="1"
	d="M598.20 772.00v-24.00"/>
<path class="stroke" stroke-width="1"
	d="M691.60 772.00v-24.00"/>
<path d="m10.00 772.00
	h681.60
	M10.00 766.00
	h681.60
	M10.00 760.00
	h681.60
	M10.00 754.00
	h681.60
	M10.00 748.00
	h681.60
	" class="stroke"/>
<text x="52.30" y="735.60">G</text>
<text x="145.70" y="735.60">G</text>
<text x="239.10" y="735.60">G</text>
<text x="332.60" y="735.60">G</text>
<text x="430.40" y="735.60">G</text>
<text x="549.40" y="735.60">G</text>
<text x="608.50" y="735.60">G</text>
<use x="22.00" y="766.00" xlink:href="#tclef"/>
<use x="56.10" y="778.00" xlink:href="#hl"/>
<use x="56.10" y="778.00" xlink:href="#hd"/>
<path d="M59.60 778.00v-21.00" class="stroke"/>
<defs>
<rect id="r2" class="fill"
	x="-3.5" y="-3" width="7" height="3"/>
</defs>
<use x="96.00" y="760.00" xlink:href="#r2"/>
<use x="149.50" y="763.00" xlink:href="#hd"/>
<path d="M153.00 763.00v-21.00" class="stroke"/>
<use x="189.40" y="760.00" xlink:href="#Hd"/>
<path d="M192.90 760.00v-21.00" class="stroke"/>
<use x="243.00" y="748.00" xlink:href="#hd"/>
<path d="M239.50 748.00v21.00" class="stroke"/>
<use x="282.80" y="745.00" xlink:href="#Hd"/>
<path d="M279.30 745.00v21.00" class="stroke"/>
<use x="336.40" y="757.00" xlink:href="#hd"/>
<path d="M332.90 757.00v21.00" class="stroke"/>
<use x="376.20" y="760.00" xlink:href="#Hd"/>
<path d="M372.70 760.00v21.00" class="stroke"/>
<use x="434.20" y="754.00" xlink:href="#hd"/>
<defs>
<path id="uflat" class="fill" d="
	m100 -746
	h32
	v734
	l-32 4
	m32 -332
	c46 -72 152 -90 208 -20
	100 110 -120 326 -208 348
	m0 -28
	c54 0 200 -206 130 -290
	-50 -60 -130 -4 -130 34"/>
<use id="ft0" transform="translate(-3.5,3.5) scale(0.018)"
	xlink:href="#uflat"/>
</defs>
<use x="425.20" y="754.00" xlink:href="#ft0"/>
<path d="M430.70 754.00v21.00" class="stroke"/>
<use x="474.10" y="745.00" xlink:href="#hd"/>
<circle class="fill" cx="481.80" cy="745.00" r="1.2"/>
<path d="M470.60 745.00v21.00" class="stroke"/>
<use x="519.40" y="754.00" xlink:href="#hd"/>
<path d="M515.90 754.00v21.00" class="stroke"/>
<path class="fill"
	d="M515.90 775.00c0.6 -5.6 9.6 -9 5.6 -18.4
	1.6 6 -1.3 11.6 -5.6 12.8
"/>
<use x="553.30" y="766.00" xlink:href="#Hd"/>
<circle class="fill" cx="562.00" cy="763.00" r="1.2"/>
<path d="M556.80 766.00v-21.00" class="stroke"/>
<use x="612.30" y="757.00" xlink:href="#hd"/>
<path d="M608.80 757.00v21.00" class="stroke"/>
<use x="652.10" y="748.00" xlink:href="#Hd"/>
<path d="M648.60 748.00v21.00" class="stroke"/>
</g>
<g stroke-width="0.70" font-family="Helvetica" font-size="12.00">
<path class="stroke" stroke-width="1"
	d="M162.00 843.00v-24.00"/>
<path class="stroke" stroke-width="1"
	d="M292.30 843.00v-24.00"/>
<path class="stroke" stroke-width="1"
	d="M469.60 843.00v-24.00"/>
<path class="stroke" stroke-width="1"
	d="M555.50 843.00v-24.00"/>
<path class="stroke" stroke-width="1"
	d="M691.60 843.00v-24.00"/>
<path d="m10.00 843.00
	h681.60
	M10.00 837.00
	h681.60
	M10.00 831.00
	h681.60
	M10.00 825.00
	h681.60
	M10.00 819.00
	h681.60
	" class="stroke"/>
<text x="42.70" y="806.60">G</text>
<text x="178.80" y="806.60">G</text>
<text x="309.00" y="806.60">G</text>
<text x="486.30" y="806.60">G</text>
<text x="573.10" y="806.60">F</text>
<use x="22.00" y="837.00" xlink:href="#tclef"/>
<use x="46.50" y="834.00" xlink:href="#hd"/>
<path d="M50.00 834.00v-21.00" class="stroke"/>
<use x="104.50" y="828.00" xlink:href="#Hd"/>
<path d="M101.00 828.00v21.00" class="stroke"/>
<use x="182.60" y="816.00" xlink:href="#hd"/>
<path d="M179.10 816.00v21.00" class="stroke"/>
<use x="234.80" y="849.00" xlink:href="#hl"/>
<use x="234.80" y="849.00" xlink:href="#Hd"/>
<path d="M238.30 849.00v-21.00" class="stroke"/>
<use x="312.80" y="828.00" xlink:href="#hd"/>
<path d="M309.30 828.00v21.00" class="stroke"/>
<use x="370.90" y="825.00" xlink:href="#hd"/>
<path d="M367.40 825.00v21.00" class="stroke"/>
<use x="428.90" y="813.00" xlink:href="#hl"/>
<use x="428.90" y="813.00" xlink:href="#hd"/>
<path d="M425.40 813.00v21.00" class="stroke"/>
<use x="490.10" y="837.00" xlink:href="#Hd"/>
<circle class="fill" cx="498.80" cy="834.00" r="1.2"/>
<path d="M493.60 837.00v-21.00" class="stroke"/>
<use x="576.10" y="819.00" xlink:href="#hd"/>
<path d="M572.60 819.00v21.00" class="stroke"/>
<use x="634.10" y="819.00" xlink:href="#Hd"/>
<path d="M630.60 819.00v21.00" class="stroke"/>
</g>
<g stroke-width="0.70" font-family="Helvetica" font-size="12.00">
<path class="stroke" stroke-width="1"
	d="M123.00 919.00v-24.00"/>
<path class="stroke" stroke-width="1"
	d="M180.00 919.00v-24.00"/>
<path class="stroke" stroke-width="1"
	d="M270.20 919.00v-24.00"/>
<path class="stroke" stroke-width="1"
	d="M387.60 919.00v-24.00"/>
<path class="stroke" stroke-width="1"
	d="M521.00 919.00v-24.00"/>
<path class="stroke" stroke-width="1"
	d="M634.60 919.00v-24.00"/>
<path d="m10.00 919.00
	h681.60
	M10.00 913.00
	h681.60
	M10.00 907.00
	h681.60
	M10.00 901.00
	h681.60
	M10.00 895.00
	h681.60
	" class="stroke"/>
<text x="42.70" y="877.60">G</text>
<text x="132.80" y="877.60">G</text>
<text x="189.80" y="877.60">G</text>
<text x="280.90" y="877.60">F</text>
<text x="397.40" y="877.60">G</text>
<text x="530.80" y="877.60">G</text>
<text x="644.40" y="877.60">G</text>
<use x="22.00" y="913.00" xlink:href="#tclef"/>
<use x="46.50" y="913.00" xlink:href="#hd"/>
<path d="M50.00 913.00v-21.00" class="stroke"/>
<use x="84.90" y="910.00" xlink:href="#Hd"/>
<path d="M88.40 910.00v-21.00" class="stroke"/>
<use x="136.70" y="907.00" xlink:href="#Hd"/>
<circle class="fill" cx="145.40" cy="904.00" r="1.2"/>
<path d="M140.20 907.00v-21.00" class="stroke"/>
<use x="193.60" y="910.00" xlink:href="#hd"/>
<path d="M197.10 910.00v-21.00" class="stroke"/>
<use x="232.10" y="913.00" xlink:href="#Hd"/>
<path d="M235.60 913.00v-21.00" class="stroke"/>
<use x="283.80" y="910.00" xlink:href="#hd"/>
<path d="M287.30 910.00v-21.00" class="stroke"/>
<use x="322.20" y="913.00" xlink:href="#hd"/>
<path d="M325.70 913.00v-21.00" class="stroke"/>
<use x="360.70" y="916.00" xlink:href="#hd"/>
<path d="M364.20 916.00v-21.00" class="stroke"/>
<use x="401.20" y="907.00" xlink:href="#hd"/>
<path d="M404.70 907.00v-21.00" class="stroke"/>
<use x="439.70" y="910.00" xlink:href="#hd"/>
<path d="M443.20 910.00v-21.00" class="stroke"/>
<path class="fill"
	d="M443.20 889.00c0.6 5.6 9.6 9 5.6 18.4
	1.6 -6 -1.3 -11.6 -5.6 -12.8
"/>
<use x="466.90" y="889.00" xlink:href="#hl"/>
<use x="466.90" y="886.00" xlink:href="#hd"/>
<path d="M463.40 886.00v21.00" class="stroke"/>
<path class="fill"
	d="M463.40 907.00c0.6 -5.6 9.6 -9 5.6 -18.4
	1.6 6 -1.3 11.6 -5.6 12.8
"/>
<use x="494.10" y="901.00" xlink:href="#hd"/>
<path d="M490.60 901.00v21.00" class="stroke"/>
<use x="534.60" y="889.00" xlink:href="#hl"/>
<use x="534.60" y="886.00" xlink:href="#hd"/>
<path d="M531.10 886.00v21.00" class="stroke"/>
<use x="573.10" y="889.00" xlink:href="#hl"/>
<use x="573.10" y="886.00" xlink:href="#hd"/>
<path d="M569.60 886.00v21.00" class="stroke"/>
<use x="607.70" y="922.00" xlink:href="#hd"/>
<path d="M611.20 922.00v-21.00" class="stroke"/>
<use x="648.20" y="913.00" xlink:href="#Hd"/>
<circle class="fill" cx="656.90" cy="910.00" r="1.2"/>
<path d="M651.70 913.00v-21.00" class="stroke"/>
</g>
<g stroke-width="0.70" font-family="Helvetica" font-size="12.00">
<path class="stroke" stroke-width="1"
	d="M42.00 992.00v-24.00"/>
<path class="stroke" stroke-width="1"
	d="M131.20 992.00v-24.00"/>
<path class="stroke" stroke-width="1"
	d="M220.50 992.00v-24.00"/>
<path class="stroke" stroke-width="1"
	d="M309.70 992.00v-24.00"/>
<path class="stroke" stroke-width="1"
	d="M427.20 992.00v-24.00"/>
<path class="stroke" stroke-width="1"
	d="M545.90 992.00v-24.00"/>
<path class="stroke" stroke-width="1"
	d="M602.40 992.00v-24.00"/>
<path class="stroke" stroke-width="1"
	d="M691.60 992.00v-24.00"/>
<path d="m10.00 992.00
	h681.60
	M10.00 986.00
	h681.60
	M10.00 980.00
	h681.60
	M10.00 974.00
	h681.60
	M10.00 968.00
	h681.60
	" class="stroke"/>
<text x="51.70" y="953.60">G</text>
<text x="140.90" y="953.60">G</text>
<text x="230.20" y="953.60">G</text>
<text x="324.40" y="953.60">G</text>
<text x="441.90" y="953.60">G</text>
<text x="555.60" y="953.60">G</text>
<text x="612.10" y="953.60">G</text>
<use x="22.00" y="986.00" xlink:href="#tclef"/>
<use x="55.50" y="998.00" xlink:href="#hl"/>
<use x="55.50" y="998.00" xlink:href="#hd"/>
<path d="M59.00 998.00v-21.00" class="stroke"/>
<use x="93.50" y="980.00" xlink:href="#r2"/>
<use x="144.80" y="962.00" xlink:href="#hl"/>
<use x="144.80" y="962.00" xlink:href="#hd"/>
<path d="M141.30 962.00v21.00" class="stroke"/>
<use x="182.80" y="980.00" xlink:href="#r2"/>
<use x="234.00" y="968.00" xlink:href="#hd"/>
<path d="M230.50 968.00v21.00" class="stroke"/>
<use x="272.00" y="965.00" xlink:href="#Hd"/>
<path d="M268.50 965.00v21.00" class="stroke"/>
<use x="328.20" y="965.00" xlink:href="#hd"/>
<defs>
<path id="usharp" class="fill" d="
	m136 -702
	v890
	h32
	v-890
	m128 840
	h32
	v-888
	h-32
	m-232 286
	v116
	l338 -96
	v-116
	m-338 442
	v116
	l338 -98
	v-114"/>
<use id="sh0" transform="translate(-4,5) scale(0.018)"
	xlink:href="#usharp"/>
</defs>
<use x="319.20" y="965.00" xlink:href="#sh0"/>
<path d="M324.70 965.00v21.00" class="stroke"/>
<use x="366.20" y="962.00" xlink:href="#hl"/>
<use x="366.20" y="962.00" xlink:href="#hd"/>
<path d="M362.70 962.00v21.00" class="stroke"/>
<use x="400.50" y="995.00" xlink:href="#hd"/>
<defs>
<path id="unat" class="fill" d="
	m96 -750
	h-32
	v716
	l32 -8
	182 -54
	v282
	h32
	v-706
	l-34 10
	-180 50
	v-290
	m0 592
	v-190
	l182 -52
	v188"/>
<use id="nt0" transform="translate(-3,5) scale(0.018)"
	xlink:href="#unat"/>
</defs>
<use x="391.50" y="995.00" xlink:href="#nt0"/>
<path d="M404.00 995.00v-21.00" class="stroke"/>
<use x="445.70" y="974.00" xlink:href="#hd"/>
<use x="436.70" y="974.00" xlink:href="#ft0"/>
<path d="M442.20 974.00v21.00" class="stroke"/>
<use x="483.70" y="965.00" xlink:href="#hd"/>
<circle class="fill" cx="491.40" cy="965.00" r="1.2"/>
<path d="M480.20 965.00v21.00" class="stroke"/>
<use x="527.00" y="974.00" xlink:href="#hd"/>
<path d="M523.50 974.00v21.00" class="stroke"/>
<path class="fill"
	d="M523.50 995.00c0.6 -5.6 9.6 -9 5.6 -18.4
	1.6 6 -1.3 11.6 -5.6 12.8
"/>
<use x="559.40" y="986.00" xlink:href="#Hd"/>
<circle class="fill" cx="568.10" cy="983.00" r="1.2"/>
<path d="M562.90 986.00v-21.00" class="stroke"/>
<use x="615.90" y="977.00" xlink:href="#hd"/>
<path d="M612.40 977.00v21.00" class="stroke"/>
<use x="653.90" y="968.00" xlink:href="#Hd"/>
<path d="M650.40 968.00v21.00" class="stroke"/>
</g>
<g stroke-width="0.70" font-family="Helvetica" font-size="12.00">
<path class="stroke" stroke-width="1"
	d="M163.10 1063.00v-24.00"/>
<path class="stroke" stroke-width="1"
	d="M294.50 1063.00v-24.00"/>
<path class="stroke" stroke-width="1"
	d="M467.60 1063.00v-24.00"/>
<path class="stroke" stroke-width="1"
	d="M554.30 1063.00v-24.00"/>
<path class="stroke" stroke-width="1"
	d="M691.60 1063.00v-24.00"/>
<path d="m10.00 1063.00
	h681.60
	M10.00 1057.00
	h681.60
	M10.00 1051.00
	h681.60
	M10.00 1045.00
	h681.60
	M10.00 1039.00
	h681.60
	" class="stroke"/>
<text x="42.70" y="1026.60">G</text>
<text x="180.00" y="1026.60">G</text>
<text x="311.50" y="1026.60">G</text>
<text x="484.50" y="1026.60">G</text>
<text x="572.10" y="1026.60">F</text>
<use x="22.00" y="1057.00" xlink:href="#tclef"/>
<use x="46.50" y="1054.00" xlink:href="#hd"/>
<path d="M50.00 1054.00v-21.00" class="stroke"/>
<use x="105.10" y="1048.00" xlink:href="#Hd"/>
<path d="M101.60 1048.00v21.00" class="stroke"/>
<use x="183.80" y="1036.00" xlink:href="#hd"/>
<path d="M180.30 1036.00v21.00" class="stroke"/>
<use x="236.50" y="1069.00" xlink:href="#hl"/>
<use x="236.50" y="1069.00" xlink:href="#Hd"/>
<path d="M240.00 1069.00v-21.00" class="stroke"/>
<use x="315.30" y="1045.00" xlink:href="#hd"/>
<path d="M311.80 1045.00v21.00" class="stroke"/>
<use x="373.80" y="1033.00" xlink:href="#hl"/>
<use x="373.80" y="1033.00" xlink:href="#hd"/>
<path d="M370.30 1033.00v21.00" class="stroke"/>
<use x="426.60" y="1054.00" xlink:href="#hd"/>
<use x="417.60" y="1054.00" xlink:href="#sh0"/>
<path d="M430.10 1054.00v-21.00" class="stroke"/>
<use x="488.30" y="1057.00" xlink:href="#Hd"/>
<circle class="fill" cx="497.00" cy="1054.00" r="1.2"/>
<path d="M491.80 1057.00v-21.00" class="stroke"/>
<use x="575.00" y="1039.00" xlink:href="#hd"/>
<path d="M571.50 1039.00v21.00" class="stroke"/>
<use x="633.60" y="1039.00" xlink:href="#Hd"/>
<path d="M630.10 1039.00v21.00" class="stroke"/>
</g>
<g stroke-width="0.70" font-family="Helvetica" font-size="12.00">
<path class="stroke" stroke-width="1"
	d="M126.40 1139.00v-24.00"/>
<path class="stroke" stroke-width="1"
	d="M185.80 1139.00v-24.00"/>
<path class="stroke" stroke-width="1"
	d="M279.80 1139.00v-24.00"/>
<path class="stroke" stroke-width="1"
	d="M398.40 1139.00v-24.00"/>
<path class="stroke" stroke-width="1"
	d="M513.70 1139.00v-24.00"/>
<path class="stroke" stroke-width="1"
	d="M632.20 1139.00v-24.00"/>
<path d="m10.00 1139.00
	h681.60
	M10.00 1133.00
	h681.60
	M10.00 1127.00
	h681.60
	M10.00 1121.00
	h681.60
	M10.00 1115.00
	h681.60
	" class="stroke"/>
<text x="42.70" y="1097.60">G</text>
<text x="136.80" y="1097.60">G</text>
<text x="196.20" y="1097.60">G</text>
<text x="291.10" y="1097.60">F</text>
<text x="408.70" y="1097.60">G</text>
<text x="524.00" y="1097.60">G</text>
<text x="642.60" y="1097.60">G</text>
<use x="22.00" y="1133.00" xlink:href="#tclef"/>
<use x="46.50" y="1133.00" xlink:href="#hd"/>
<path d="M50.00 1133.00v-21.00" class="stroke"/>
<use x="86.60" y="1130.00" xlink:href="#Hd"/>
<path d="M90.10 1130.00v-21.00" class="stroke"/>
<use x="140.60" y="1127.00" xlink:href="#Hd"/>
<circle class="fill" cx="149.30" cy="1124.00" r="1.2"/>
<path d="M144.10 1127.00v-21.00" class="stroke"/>
<use x="200.00" y="1145.00" xlink:href="#hl"/>
<use x="200.00" y="1148.00" xlink:href="#hd"/>
<path d="M203.50 1148.00v-21.00" class="stroke"/>
<use x="240.10" y="1133.00" xlink:href="#Hd"/>
<path d="M243.60 1133.00v-21.00" class="stroke"/>
<use x="294.00" y="1130.00" xlink:href="#hd"/>
<path d="M297.50 1130.00v-21.00" class="stroke"/>
<use x="334.20" y="1124.00" xlink:href="#hd"/>
<path d="M330.70 1124.00v21.00" class="stroke"/>
<use x="370.30" y="1136.00" xlink:href="#hd"/>
<path d="M373.80 1136.00v-21.00" class="stroke"/>
<use x="412.60" y="1136.00" xlink:href="#hd"/>
<path d="M416.10 1136.00v-21.00" class="stroke"/>
<use x="452.70" y="1109.00" xlink:href="#hl"/>
<use x="452.70" y="1109.00" xlink:href="#hd"/>
<circle class="fill" cx="460.40" cy="1106.00" r="1.2"/>
<path d="M449.20 1109.00v21.00" class="stroke"/>
<use x="493.80" y="1142.00" xlink:href="#hd"/>
<path d="M497.30 1142.00v-21.00" class="stroke"/>
<path class="fill"
	d="M497.30 1121.00c0.6 5.6 9.6 9 5.6 18.4
	1.6 -6 -1.3 -11.6 -5.6 -12.8
"/>
<use x="527.90" y="1109.00" xlink:href="#hl"/>
<use x="527.90" y="1106.00" xlink:href="#hd"/>
<path d="M524.40 1106.00v21.00" class="stroke"/>
<use x="568.00" y="1109.00" xlink:href="#hl"/>
<use x="568.00" y="1106.00" xlink:href="#hd"/>
<path d="M564.50 1106.00v21.00" class="stroke"/>
<use x="604.10" y="1142.00" xlink:href="#hd"/>
<path d="M607.60 1142.00v-21.00" class="stroke"/>
<use x="646.40" y="1133.00" xlink:href="#Hd"/>
<circle class="fill" cx="655.10" cy="1130.00" r="1.2"/>
<path d="M649.90 1133.00v-21.00" class="stroke"/>
</g>
<g stroke-width="0.70" font-family="Helvetica" font-size="12.00">
<path class="stroke" stroke-width="1"
	d="M42.00 1212.00v-24.00"/>
<path class="stroke" stroke-width="1"
	d="M137.50 1212.00v-24.00"/>
<path class="stroke" stroke-width="1"
	d="M228.20 1212.00v-24.00"/>
<path class="stroke" stroke-width="1"
	d="M318.90 1212.00v-24.00"/>
<path class="stroke" stroke-width="1"
	d="M456.50 1212.00v-24.00"/>
<path class="stroke" stroke-width="1"
	d="M576.90 1212.00v-24.00"/>
<path class="stroke" stroke-width="1"
	d="M634.20 1212.00v-24.00"/>
<path class="stroke" stroke-width="1"
	d="M691.60 1212.00v-24.00"/>
<path d="m10.00 1212.00
	h681.60
	M10.00 1206.00
	h681.60
	M10.00 1200.00
	h681.60
	M10.00 1194.00
	h681.60
	M10.00 1188.00
	h681.60
	" class="stroke"/>
<text x="56.70" y="1173.60">G</text>
<text x="148.30" y="1173.60">F</text>
<text x="238.10" y="1173.60">G</text>
<text x="328.80" y="1173.60">G</text>
<text x="471.20" y="1173.60">G</text>
<text x="586.80" y="1173.60">G</text>
<text x="645.00" y="1173.60">F</text>
<use x="22.00" y="1206.00" xlink:href="#tclef"/>
<use x="60.50" y="1188.00" xlink:href="#hd"/>
<use x="51.50" y="1188.00" xlink:href="#ft0"/>
<path d="M57.00 1188.00v21.00" class="stroke"/>
<use x="99.20" y="1197.00" xlink:href="#Hd"/>
<path d="M95.70 1197.00v21.00" class="stroke"/>
<use x="151.20" y="1182.00" xlink:href="#hl"/>
<use x="151.20" y="1182.00" xlink:href="#hd"/>
<path d="M147.70 1182.00v21.00" class="stroke"/>
<use x="189.90" y="1200.00" xlink:href="#r2"/>
<use x="241.90" y="1185.00" xlink:href="#hd"/>
<path d="M238.40 1185.00v21.00" class="stroke"/>
<use x="280.60" y="1194.00" xlink:href="#Hd"/>
<path d="M277.10 1194.00v21.00" class="stroke"/>
<use x="332.60" y="1182.00" xlink:href="#hl"/>
<use x="332.60" y="1182.00" xlink:href="#hd"/>
<path d="M329.10 1182.00v21.00" class="stroke"/>
<path class="fill"
	d="M329.10 1203.00c0.6 -5.6 9.6 -9 5.6 -18.4
	1.6 6 -1.3 11.6 -5.6 12.8
"/>
<use x="360.00" y="1191.00" xlink:href="#hd"/>
<path d="M356.50 1191.00v21.00" class="stroke"/>
<use x="398.60" y="1185.00" xlink:href="#hd"/>
<path d="M395.10 1185.00v21.00" class="stroke"/>
<use x="437.30" y="1182.00" xlink:href="#hl"/>
<use x="437.30" y="1182.00" xlink:href="#hd"/>
<path d="M433.80 1182.00v21.00" class="stroke"/>
<path class="fill"
	d="M433.80 1203.00c0.6 -5.6 9.6 -9 5.6 -18.4
	1.6 6 -1.3 11.6 -5.6 12.8
"/>
<use x="475.00" y="1194.00" xlink:href="#hd"/>
<use x="466.00" y="1194.00" xlink:href="#ft0"/>
<path d="M471.50 1194.00v21.00" class="stroke"/>
<use x="513.60" y="1185.00" xlink:href="#hd"/>
<circle class="fill" cx="521.30" cy="1185.00" r="1.2"/>
<path d="M510.10 1185.00v21.00" class="stroke"/>
<use x="557.70" y="1194.00" xlink:href="#hd"/>
<path d="M554.20 1194.00v21.00" class="stroke"/>
<path class="fill"
	d="M554.20 1215.00c0.6 -5.6 9.6 -9 5.6 -18.4
	1.6 6 -1.3 11.6 -5.6 12.8
"/>
<use x="590.60" y="1206.00" xlink:href="#Hd"/>
<circle class="fill" cx="599.30" cy="1203.00" r="1.2"/>
<path d="M594.10 1206.00v-21.00" class="stroke"/>
<use x="648.00" y="1197.00" xlink:href="#Hd"/>
<circle class="fill" cx="656.70" cy="1197.00" r="1.2"/>
<path d="M644.50 1197.00v21.00" class="stroke"/>
</g>
<g stroke-width="0.70" font-family="Helvetica" font-size="12.00">
<path class="stroke" stroke-width="1"
	d="M163.10 1283.00v-24.00"/>
<path class="stroke" stroke-width="1"
	d="M294.50 1283.00v-24.00"/>
<path class="stroke" stroke-width="1"
	d="M467.60 1283.00v-24.00"/>
<path class="stroke" stroke-width="1"
	d="M554.30 1283.00v-24.00"/>
<path class="stroke" stroke-width="1"
	d="M691.60 1283.00v-24.00"/>
<path d="m10.00 1283.00
	h681.60
	M10.00 1277.00
	h681.60
	M10.00 1271.00
	h681.60
	M10.00 1265.00
	h681.60
	M10.00 1259.00
	h681.60
	" class="stroke"/>
<text x="42.70" y="1246.60">G</text>
<text x="180.90" y="1246.60">F</text>
<text x="311.50" y="1246.60">G</text>
<text x="484.50" y="1246.60">G</text>
<text x="572.10" y="1246.60">F</text>
<use x="22.00" y="1277.00" xlink:href="#tclef"/>
<use x="46.50" y="1274.00" xlink:href="#hd"/>
<path d="M50.00 1274.00v-21.00" class="stroke"/>
<use x="105.10" y="1268.00" xlink:href="#Hd"/>
<path d="M101.60 1268.00v21.00" class="stroke"/>
<use x="183.80" y="1256.00" xlink:href="#hd"/>
<path d="M180.30 1256.00v21.00" class="stroke"/>
<use x="236.50" y="1289.00" xlink:href="#hl"/>
<use x="236.50" y="1289.00" xlink:href="#Hd"/>
<path d="M240.00 1289.00v-21.00" class="stroke"/>
<use x="315.30" y="1265.00" xlink:href="#hd"/>
<path d="M311.80 1265.00v21.00" class="stroke"/>
<use x="373.80" y="1253.00" xlink:href="#hl"/>
<use x="373.80" y="1253.00" xlink:href="#hd"/>
<path d="M370.30 1253.00v21.00" class="stroke"/>
<use x="426.60" y="1274.00" xlink:href="#hd"/>
<use x="417.60" y="1274.00" xlink:href="#sh0"/>
<path d="M430.10 1274.00v-21.00" class="stroke"/>
<use x="488.30" y="1277.00" xlink:href="#Hd"/>
<circle class="fill" cx="497.00" cy="1274.00" r="1.2"/>
<path d="M491.80 1277.00v-21.00" class="stroke"/>
<defs>
<path id="r4" class="fill" d="m-1 -8.5
	l3.6 5.1 -2.1 5.2 2.2 4.3
	c-2.6 -2.3 -5.1 0 -2.4 2.6
	-4.8 -3 -1.5 -6.9 1.4 -4.1
	l-3.1 -4.5 1.9 -5.1 -1.5 -3.5"/>
</defs>
<use x="575.00" y="1271.00" xlink:href="#r4"/>
<use x="633.60" y="1259.00" xlink:href="#Hd"/>
<path d="M630.10 1259.00v21.00" class="stroke"/>
</g>
<g stroke-width="0.70" font-family="Helvetica" font-size="12.00">
<path class="stroke" stroke-width="1"
	d="M127.70 1359.00v-24.00"/>
<path class="stroke" stroke-width="1"
	d="M188.00 1359.00v-24.00"/>
<path class="stroke" stroke-width="1"
	d="M248.40 1359.00v-24.00"/>
<path class="stroke" stroke-width="1"
	d="M393.60 1359.00v-24.00"/>
<path class="stroke" stroke-width="1"
	d="M510.80 1359.00v-24.00"/>
<path class="stroke" stroke-width="1"
	d="M631.20 1359.00v-24.00"/>
<path d="m10.00 1359.00
	h681.60
	M10.00 1353.00
	h681.60
	M10.00 1347.00
	h681.60
	M10.00 1341.00
	h681.60
	M10.00 1335.00
	h681.60
	" class="stroke"/>
<text x="42.70" y="1317.60">G</text>
<text x="139.20" y="1317.60">F</text>
<text x="199.50" y="1317.60">F</text>
<text x="259.90" y="1317.60">F</text>
<text x="404.20" y="1317.60">G</text>
<text x="521.40" y="1317.60">G</text>
<text x="641.80" y="1317.60">G</text>
<use x="22.00" y="1353.00" xlink:href="#tclef"/>
<use x="46.50" y="1353.00" xlink:href="#hd"/>
<path d="M50.00 1353.00v-21.00" class="stroke"/>
<use x="87.30" y="1350.00" xlink:href="#Hd"/>
<path d="M90.80 1350.00v-21.00" class="stroke"/>
<use x="142.10" y="1335.00" xlink:href="#Hd"/>
<circle class="fill" cx="150.80" cy="1332.00" r="1.2"/>
<path d="M138.60 1335.00v21.00" class="stroke"/>
<use x="202.50" y="1332.00" xlink:href="#Hd"/>
<circle class="fill" cx="211.20" cy="1332.00" r="1.2"/>
<path d="M199.00 1332.00v21.00" class="stroke"/>
<use x="262.90" y="1329.00" xlink:href="#hl"/>
<use x="262.90" y="1329.00" xlink:href="#hd"/>
<path d="M259.40 1329.00v21.00" class="stroke"/>
<use x="299.60" y="1350.00" xlink:href="#hd"/>
<path d="M303.10 1350.00v-21.00" class="stroke"/>
<defs>
<path id="ubclef" class="fill" d="m-200 -87
	c124 -35 222 -78 254 -236
	43 -228 -167 -246 -192 -103
	59 -80 157 22 92 78
	-62 47 -115 -22 -106 -88
	21 -141 270 -136 274 52
	-1 175 -106 264 -322 297
	m357 -250
	c0 -36 51 -34 51 0
	0 37 -51 36 -51 0
	m-2 -129
	c0 -36 51 -34 51 0
	0 38 -51 37 -51 0"/>
<use id="sbclef" transform="translate(0,14.5) scale(0.037)"
	xlink:href="#ubclef"/>
</defs>
<use x="330.30" y="1341.00" xlink:href="#sbclef"/>
<use x="344.80" y="1341.00" xlink:href="#hd"/>
<path d="M341.30 1341.00v21.00" class="stroke"/>
<defs>
<use id="stclef" transform="translate(0,5.4) scale(0.037)"
	xlink:href="#utclef"/>
</defs>
<use x="375.60" y="1353.00" xlink:href="#stclef"/>
<use x="408.00" y="1356.00" xlink:href="#hd"/>
<path d="M411.50 1356.00v-21.00" class="stroke"/>
<use x="448.80" y="1329.00" xlink:href="#hl"/>
<use x="448.80" y="1329.00" xlink:href="#hd"/>
<circle class="fill" cx="456.50" cy="1326.00" r="1.2"/>
<path d="M445.30 1329.00v21.00" class="stroke"/>
<use x="490.60" y="1362.00" xlink:href="#hd"/>
<path d="M494.10 1362.00v-21.00" class="stroke"/>
<path class="fill"
	d="M494.10 1341.00c0.6 5.6 9.6 9 5.6 18.4
	1.6 -6 -1.3 -11.6 -5.6 -12.8
"/>
<use x="525.20" y="1329.00" xlink:href="#hl"/>
<use x="525.20" y="1326.00" xlink:href="#hd"/>
<path d="M521.70 1326.00v21.00" class="stroke"/>
<use x="566.00" y="1329.00" xlink:href="#hl"/>
<use x="566.00" y="1326.00" xlink:href="#hd"/>
<path d="M562.50 1326.00v21.00" class="stroke"/>
<use x="602.70" y="1362.00" xlink:href="#hd"/>
<path d="M606.20 1362.00v-21.00" class="stroke"/>
<use x="645.60" y="1353.00" xlink:href="#Hd"/>
<circle class="fill" cx="654.30" cy="1350.00" r="1.2"/>
<path d="M649.10 1353.00v-21.00" class="stroke"/>
</g>
<g stroke-width="0.70" font-family="Helvetica" font-size="12.00">
<path class="stroke" stroke-width="1"
	d="M42.00 1432.00v-24.00"/>
<path class="stroke" stroke-width="1"
	d="M176.40 1432.00v-24.00"/>
<path class="stroke" stroke-width="1"
	d="M239.90 1432.00v-24.00"/>
<path class="stroke" stroke-width="1"
	d="M344.00 1432.00v-24.00"/>
<path class="stroke" stroke-width="1"
	d="M496.50 1432.00v-24.00"/>
<path class="stroke" stroke-width="1"
	d="M628.10 1432.00v-24.00"/>
<path class="stroke" stroke-width="1"
	d="M691.60 1432.00v-24.00"/>
<path d="m10.00 1432.00
	h681.60
	M10.00 1426.00
	h681.60
	M10.00 1420.00
	h681.60
	M10.00 1414.00
	h681.60
	M10.00 1408.00
	h681.60
	" class="stroke"/>
<text x="56.80" y="1393.60">G</text>
<text x="188.70" y="1393.60">F</text>
<text x="254.80" y="1393.60">G</text>
<text x="355.30" y="1393.60">G</text>
<text x="511.30" y="1393.60">G</text>
<text x="639.40" y="1393.60">G</text>
<use x="22.00" y="1426.00" xlink:href="#tclef"/>
<use x="60.60" y="1438.00" xlink:href="#hl"/>
<use x="60.60" y="1438.00" xlink:href="#hd"/>
<use x="51.60" y="1438.00" xlink:href="#ft0"/>
<path d="M64.10 1438.00v-21.00" class="stroke"/>
<use x="103.50" y="1417.00" xlink:href="#hd"/>
<use x="94.50" y="1417.00" xlink:href="#sh0"/>
<path d="M100.00 1417.00v21.00" class="stroke"/>
<use x="146.40" y="1417.00" xlink:href="#hd"/>
<use x="137.40" y="1417.00" xlink:href="#sh0"/>
<path d="M142.90 1417.00v21.00" class="stroke"/>
<use x="191.60" y="1426.00" xlink:href="#Hd"/>
<circle class="fill" cx="200.30" cy="1423.00" r="1.2"/>
<path d="M195.10 1426.00v-21.00" class="stroke"/>
<use x="258.60" y="1405.00" xlink:href="#hd"/>
<use x="249.60" y="1405.00" xlink:href="#nt0"/>
<path d="M255.10 1405.00v21.00" class="stroke"/>
<use x="301.50" y="1420.00" xlink:href="#r2"/>
<use x="359.10" y="1402.00" xlink:href="#hl"/>
<use x="359.10" y="1402.00" xlink:href="#hd"/>
<path d="M355.60 1402.00v21.00" class="stroke"/>
<path class="fill"
	d="M355.60 1423.00c0.6 -5.6 9.6 -9 5.6 -18.4
	1.6 6 -1.3 11.6 -5.6 12.8
"/>
<use x="389.50" y="1411.00" xlink:href="#hd"/>
<path d="M386.00 1411.00v21.00" class="stroke"/>
<use x="432.40" y="1405.00" xlink:href="#hd"/>
<path d="M428.90 1405.00v21.00" class="stroke"/>
<use x="475.30" y="1402.00" xlink:href="#hl"/>
<use x="475.30" y="1402.00" xlink:href="#hd"/>
<path d="M471.80 1402.00v21.00" class="stroke"/>
<path class="fill"
	d="M471.80 1423.00c0.6 -5.6 9.6 -9 5.6 -18.4
	1.6 6 -1.3 11.6 -5.6 12.8
"/>
<use x="515.10" y="1414.00" xlink:href="#hd"/>
<use x="506.10" y="1414.00" xlink:href="#ft0"/>
<path d="M511.60 1414.00v21.00" class="stroke"/>
<use x="558.00" y="1405.00" xlink:href="#hd"/>
<circle class="fill" cx="565.70" cy="1405.00" r="1.2"/>
<path d="M554.50 1405.00v21.00" class="stroke"/>
<use x="606.80" y="1414.00" xlink:href="#hd"/>
<path d="M603.30 1414.00v21.00" class="stroke"/>
<path class="fill"
	d="M603.30 1435.00c0.6 -5.6 9.6 -9 5.6 -18.4
	1.6 6 -1.3 11.6 -5.6 12.8
"/>
<use x="643.30" y="1426.00" xlink:href="#Hd"/>
<circle class="fill" cx="652.00" cy="1423.00" r="1.2"/>
<path d="M646.80 1426.00v-21.00" class="stroke"/>
</g>
<g stroke-width="0.70" font-family="Helvetica" font-size="12.00">
<path class="stroke" stroke-width="1"
	d="M179.40 1503.00v-24.00"/>
<path class="stroke" stroke-width="1"
	d="M299.30 1503.00v-24.00"/>
<path class="stroke" stroke-width="1"
	d="M414.00 1503.00v-24.00"/>
<path class="stroke" stroke-width="1"
	d="M489.70 1503.00v-24.00"/>
<path class="stroke" stroke-width="1"
	d="M565.40 1503.00v-24.00"/>
<path class="stroke" stroke-width="1"
	d="M691.60 1503.00v-24.00"/>
<path d="m10.00 1503.00
	h681.60
	M10.00 1497.00
	h681.60
	M10.00 1491.00
	h681.60
	M10.00 1485.00
	h681.60
	M10.00 1479.00
	h681.60
	" class="stroke"/>
<text x="43.60" y="1466.60">F</text>
<text x="193.70" y="1466.60">G</text>
<text x="314.40" y="1466.60">F</text>
<text x="428.30" y="1466.60">G</text>
<text x="504.00" y="1466.60">G</text>
<text x="580.50" y="1466.60">F</text>
<use x="22.00" y="1497.00" xlink:href="#tclef"/>
<use x="46.50" y="1485.00" xlink:href="#hd"/>
<path d="M43.00 1485.00v21.00" class="stroke"/>
<use x="92.50" y="1503.00" xlink:href="#hd"/>
<path d="M96.00 1503.00v-21.00" class="stroke"/>
<use x="143.60" y="1509.00" xlink:href="#hl"/>
<use x="143.60" y="1509.00" xlink:href="#hd"/>
<path d="M147.10 1509.00v-21.00" class="stroke"/>
<use x="197.50" y="1494.00" xlink:href="#hd"/>
<path d="M201.00 1494.00v-21.00" class="stroke"/>
<use x="248.60" y="1488.00" xlink:href="#Hd"/>
<path d="M245.10 1488.00v21.00" class="stroke"/>
<use x="317.30" y="1476.00" xlink:href="#hd"/>
<path d="M313.80 1476.00v21.00" class="stroke"/>
<use x="363.40" y="1509.00" xlink:href="#hl"/>
<use x="363.40" y="1509.00" xlink:href="#Hd"/>
<path d="M366.90 1509.00v-21.00" class="stroke"/>
<use x="432.10" y="1494.00" xlink:href="#Hd"/>
<circle class="fill" cx="440.80" cy="1494.00" r="1.2"/>
<path d="M435.60 1494.00v-21.00" class="stroke"/>
<use x="507.80" y="1497.00" xlink:href="#Hd"/>
<circle class="fill" cx="516.50" cy="1494.00" r="1.2"/>
<path d="M511.30 1497.00v-21.00" class="stroke"/>
<use x="583.50" y="1479.00" xlink:href="#Hd"/>
<path d="M580.00 1479.00v21.00" class="stroke"/>
<use x="655.80" y="1491.00" xlink:href="#r4"/>
</g>
<g stroke-width="0.70" font-family="Helvetica" font-size="12.00">
<path class="stroke" stroke-width="1"
	d="M134.50 1582.00v-24.00"/>
<path class="stroke" stroke-width="1"
	d="M200.00 1582.00v-24.00"/>
<path class="stroke" stroke-width="1"
	d="M265.50 1582.00v-24.00"/>
<path class="stroke" stroke-width="1"
	d="M400.60 1582.00v-24.00"/>
<path class="stroke" stroke-width="1"
	d="M495.50 1582.00v-24.00"/>
<path class="stroke" stroke-width="1"
	d="M626.10 1582.00v-24.00"/>
<path d="m10.00 1582.00
	h681.60
	M10.00 1576.00
	h681.60
	M10.00 1570.00
	h681.60
	M10.00 1564.00
	h681.60
	M10.00 1558.00
	h681.60
	" class="stroke"/>
<text x="43.60" y="1537.60">F</text>
<text x="147.20" y="1537.60">F</text>
<text x="212.70" y="1537.60">F</text>
<text x="277.30" y="1537.60">G</text>
<text x="412.50" y="1537.60">G</text>
<text x="507.30" y="1537.60">G</text>
<text x="637.90" y="1537.60">G</text>
<use x="22.00" y="1576.00" xlink:href="#tclef"/>
<use x="46.50" y="1576.00" xlink:href="#hd"/>
<path d="M50.00 1576.00v-21.00" class="stroke"/>
<use x="90.70" y="1573.00" xlink:href="#Hd"/>
<path d="M94.20 1573.00v-21.00" class="stroke"/>
<use x="150.20" y="1558.00" xlink:href="#Hd"/>
<circle class="fill" cx="158.90" cy="1555.00" r="1.2"/>
<path d="M146.70 1558.00v21.00" class="stroke"/>
<use x="215.70" y="1555.00" xlink:href="#Hd"/>
<circle class="fill" cx="224.40" cy="1555.00" r="1.2"/>
<path d="M212.20 1555.00v21.00" class="stroke"/>
<use x="281.10" y="1552.00" xlink:href="#hl"/>
<use x="281.10" y="1546.00" xlink:href="#hl"/>
<use x="281.10" y="1546.00" xlink:href="#hd"/>
<path d="M277.60 1546.00v24.00" class="stroke"/>
<use x="321.00" y="1573.00" xlink:href="#hd"/>
<path d="M324.50 1573.00v-21.00" class="stroke"/>
<use x="355.20" y="1564.00" xlink:href="#sbclef"/>
<use x="369.70" y="1564.00" xlink:href="#hd"/>
<path d="M366.20 1564.00v21.00" class="stroke"/>
<use x="416.30" y="1552.00" xlink:href="#hl"/>
<use x="416.30" y="1549.00" xlink:href="#Hd"/>
<circle class="fill" cx="425.00" cy="1549.00" r="1.2"/>
<path d="M412.80 1549.00v21.00" class="stroke"/>
<use x="477.50" y="1576.00" xlink:href="#stclef"/>
<use x="511.10" y="1552.00" xlink:href="#hl"/>
<use x="511.10" y="1549.00" xlink:href="#hd"/>
<path d="M507.60 1549.00v21.00" class="stroke"/>
<use x="555.40" y="1552.00" xlink:href="#hl"/>
<use x="555.40" y="1549.00" xlink:href="#hd"/>
<path d="M551.90 1549.00v21.00" class="stroke"/>
<use x="595.20" y="1585.00" xlink:href="#hd"/>
<path d="M598.70 1585.00v-21.00" class="stroke"/>
<use x="641.80" y="1576.00" xlink:href="#Hd"/>
<circle class="fill" cx="650.50" cy="1573.00" r="1.2"/>
<path d="M645.30 1576.00v-21.00" class="stroke"/>
</g>
<g stroke-width="0.70" font-family="Helvetica" font-size="12.00">
<path class="stroke" stroke-width="1"
	d="M42.00 1655.00v-24.00"/>
<path class="stroke" stroke-width="1"
	d="M146.40 1655.00v-24.00"/>
<path class="stroke" stroke-width="1"
	d="M195.40 1655.00v-24.00"/>
<path class="stroke" stroke-width="1"
	d="M295.60 1655.00v-24.00"/>
<path class="stroke" stroke-width="1"
	d="M408.70 1655.00v-24.00"/>
<path class="stroke" stroke-width="1"
	d="M516.70 1655.00v-24.00"/>
<path class="stroke" stroke-width="1"
	d="M565.60 1655.00v-24.00"/>
<path class="stroke" stroke-width="1"
	d="M691.60 1655.00v-24.00"/>
<path d="m10.00 1655.00
	h681.60
	M10.00 1649.00
	h681.60
	M10.00 1643.00
	h681.60
	M10.00 1637.00
	h681.60
	M10.00 1631.00
	h681.60
	" class="stroke"/>
<text x="56.70" y="1616.60">G</text>
<text x="156.50" y="1616.60">F</text>
<text x="210.90" y="1616.60">F</text>
<text x="304.30" y="1616.60">G</text>
<text x="417.40" y="1616.60">G</text>
<text x="525.90" y="1616.60">G</text>
<text x="575.20" y="1616.60">F</text>
<use x="22.00" y="1649.00" xlink:href="#tclef"/>
<use x="60.50" y="1661.00" xlink:href="#hl"/>
<use x="60.50" y="1661.00" xlink:href="#hd"/>
<use x="51.50" y="1661.00" xlink:href="#ft0"/>
<path d="M64.00 1661.00v-21.00" class="stroke"/>
<use x="92.30" y="1640.00" xlink:href="#hd"/>
<use x="83.30" y="1640.00" xlink:href="#sh0"/>
<path d="M88.80 1640.00v21.00" class="stroke"/>
<use x="124.20" y="1640.00" xlink:href="#hd"/>
<use x="115.20" y="1640.00" xlink:href="#sh0"/>
<path d="M120.70 1640.00v21.00" class="stroke"/>
<use x="159.40" y="1649.00" xlink:href="#Hd"/>
<circle class="fill" cx="168.10" cy="1646.00" r="1.2"/>
<path d="M162.90 1649.00v-21.00" class="stroke"/>
<use x="213.90" y="1646.00" xlink:href="#hd"/>
<use x="204.90" y="1646.00" xlink:href="#ft0"/>
<path d="M217.40 1646.00v-21.00" class="stroke"/>
<use x="245.20" y="1628.00" xlink:href="#hd"/>
<path d="M241.70 1628.00v21.00" class="stroke"/>
<use x="273.30" y="1661.00" xlink:href="#hl"/>
<use x="273.30" y="1667.00" xlink:href="#hl"/>
<use x="273.30" y="1670.00" xlink:href="#hd"/>
<path d="M276.80 1670.00v-27.00" class="stroke"/>
<use x="308.10" y="1625.00" xlink:href="#hl"/>
<use x="308.10" y="1625.00" xlink:href="#hd"/>
<path d="M304.60 1625.00v21.00" class="stroke"/>
<path class="fill"
	d="M304.60 1646.00c0.6 -5.6 9.6 -9 5.6 -18.4
	1.6 6 -1.3 11.6 -5.6 12.8
"/>
<use x="330.30" y="1634.00" xlink:href="#hd"/>
<path d="M326.80 1634.00v21.00" class="stroke"/>
<use x="361.50" y="1628.00" xlink:href="#hd"/>
<path d="M358.00 1628.00v21.00" class="stroke"/>
<use x="392.70" y="1625.00" xlink:href="#hl"/>
<use x="392.70" y="1625.00" xlink:href="#hd"/>
<path d="M389.20 1625.00v21.00" class="stroke"/>
<path class="fill"
	d="M389.20 1646.00c0.6 -5.6 9.6 -9 5.6 -18.4
	1.6 6 -1.3 11.6 -5.6 12.8
"/>
<use x="421.20" y="1643.00" xlink:href="#r4"/>
<use x="452.40" y="1628.00" xlink:href="#hd"/>
<circle class="fill" cx="460.10" cy="1628.00" r="1.2"/>
<path d="M448.90 1628.00v21.00" class="stroke"/>
<use x="488.30" y="1637.00" xlink:href="#hd"/>
<path d="M484.80 1637.00v23.00" class="stroke"/>
<path class="fill"
	d="M484.80 1660.00c0.9 -3.7 9.1 -6.4 6 -12.4
	1 5.4 -4.2 8.4 -6 8.4
M484.80 1654.60c0.9 -3.7 9.1 -6.4 6 -12.4
	1 5.4 -4.2 8.4 -6 8.4
"/>
<use x="504.20" y="1631.00" xlink:href="#hd"/>
<path d="M500.70 1631.00v23.00" class="stroke"/>
<path class="fill"
	d="M500.70 1654.00c0.9 -3.7 9.1 -6.4 6 -12.4
	1 5.4 -4.2 8.4 -6 8.4
M500.70 1648.60c0.9 -3.7 9.1 -6.4 6 -12.4
	1 5.4 -4.2 8.4 -6 8.4
"/>
<use x="529.70" y="1649.00" xlink:href="#Hd"/>
<circle class="fill" cx="538.40" cy="1646.00" r="1.2"/>
<path d="M533.20 1649.00v-21.00" class="stroke"/>
<use x="578.10" y="1634.00" xlink:href="#hd"/>
<path d="M574.60 1634.00v21.00" class="stroke"/>
<use x="606.30" y="1646.00" xlink:href="#hd"/>
<path d="M609.80 1646.00v-21.00" class="stroke"/>
<use x="638.10" y="1649.00" xlink:href="#hd"/>
<use x="629.10" y="1649.00" xlink:href="#sh0"/>
<path d="M641.60 1649.00v-22.00" class="stroke"/>
<path class="fill"
	d="M641.60 1627.00c0.9 3.7 9.1 6.4 6 12.4
	1 -5.4 -4.2 -8.4 -6 -8.4
M641.60 1632.40c0.9 3.7 9.1 6.4 6 12.4
	1 -5.4 -4.2 -8.4 -6 -8.4
"/>
<use x="654.50" y="1631.00" xlink:href="#hd"/>
<path d="M651.00 1631.00v21.00" class="stroke"/>
<path class="fill"
	d="M651.00 1652.00c0.6 -5.6 9.6 -9 5.6 -18.4
	1.6 6 -1.3 11.6 -5.6 12.8
"/>
<use x="674.60" y="1661.00" xlink:href="#hl"/>
<use x="674.60" y="1661.00" xlink:href="#hd"/>
<path d="M678.10 1661.00v-22.00" class="stroke"/>
<path class="fill"
	d="M678.10 1639.00c0.9 3.7 9.1 6.4 6 12.4
	1 -5.4 -4.2 -8.4 -6 -8.4
M678.10 1644.40c0.9 3.7 9.1 6.4 6 12.4
	1 -5.4 -4.2 -8.4 -6 -8.4
"/>
</g>
<g stroke-width="0.70" font-family="Helvetica" font-size="12.00">
<path class="stroke" stroke-width="1"
	d="M80.30 1734.00v-24.00"/>
<path class="stroke" stroke-width="1"
	d="M133.90 1734.00v-24.00"/>
<path class="stroke" stroke-width="1"
	d="M173.70 1734.00v-24.00"/>
<path class="stroke" stroke-width="1"
	d="M213.60 1734.00v-24.00"/>
<path class="stroke" stroke-width="1"
	d="M271.60 1734.00v-24.00"/>
<path class="stroke" stroke-width="1"
	d="M329.80 1734.00v-24.00"/>
<path class="stroke" stroke-width="1"
	d="M402.70 1734.00v-24.00"/>
<path class="stroke" stroke-width="1"
	d="M442.50 1734.00v-24.00"/>
<path class="stroke" stroke-width="1"
	d="M521.60 1734.00v-24.00"/>
<path class="stroke" stroke-width="1"
	d="M582.40 1734.00v-24.00"/>
<path class="stroke" stroke-width="1"
	d="M651.80 1734.00v-24.00"/>
<path d="m10.00 1734.00
	h681.60
	M10.00 1728.00
	h681.60
	M10.00 1722.00
	h681.60
	M10.00 1716.00
	h681.60
	M10.00 1710.00
	h681.60
	" class="stroke"/>
<text x="49.70" y="1689.60">G</text>
<text x="89.90" y="1689.60">F</text>
<text x="144.00" y="1689.60">F</text>
<text x="182.90" y="1689.60">G</text>
<text x="223.60" y="1689.60">F</text>
<text x="281.70" y="1689.60">F</text>
<text x="339.00" y="1689.60">G</text>
<text x="412.80" y="1689.60">F</text>
<text x="451.20" y="1689.60">G</text>
<text x="530.80" y="1689.60">G</text>
<text x="591.10" y="1689.60">G</text>
<text x="661.00" y="1689.60">G</text>
<use x="22.00" y="1728.00" xlink:href="#tclef"/>
<use x="53.50" y="1740.00" xlink:href="#hl"/>
<use x="53.50" y="1740.00" xlink:href="#Hd"/>
<circle class="fill" cx="63.20" cy="1737.00" r="1.2"/>
<use x="43.50" y="1740.00" xlink:href="#ft0"/>
<path d="M57.00 1740.00v-21.00" class="stroke"/>
<use x="92.80" y="1707.00" xlink:href="#hd"/>
<path d="M89.30 1707.00v21.00" class="stroke"/>
<use x="112.00" y="1740.00" xlink:href="#hl"/>
<use x="112.00" y="1740.00" xlink:href="#Hd"/>
<path d="M115.50 1740.00v-21.00" class="stroke"/>
<use x="146.90" y="1725.00" xlink:href="#Hd"/>
<circle class="fill" cx="155.60" cy="1725.00" r="1.2"/>
<path d="M150.40 1725.00v-21.00" class="stroke"/>
<use x="186.70" y="1737.00" xlink:href="#Hd"/>
<circle class="fill" cx="195.40" cy="1737.00" r="1.2"/>
<path d="M190.20 1737.00v-21.00" class="stroke"/>
<use x="226.60" y="1710.00" xlink:href="#Hd"/>
<path d="M223.10 1710.00v21.00" class="stroke"/>
<use x="255.10" y="1722.00" xlink:href="#r4"/>
<use x="284.60" y="1722.00" xlink:href="#r2"/>
<use x="313.30" y="1740.00" xlink:href="#hl"/>
<use x="313.30" y="1740.00" xlink:href="#hd"/>
<use x="304.30" y="1740.00" xlink:href="#nt0"/>
<path d="M316.80 1740.00v-21.00" class="stroke"/>
<use x="342.80" y="1719.00" xlink:href="#Hd"/>
<path d="M339.30 1719.00v21.00" class="stroke"/>
<use x="368.80" y="1737.00" xlink:href="#hd"/>
<path d="M372.30 1737.00v-21.00" class="stroke"/>
<path class="fill"
	d="M372.30 1716.00c0.6 5.6 9.6 9 5.6 18.4
	1.6 -6 -1.3 -11.6 -5.6 -12.8
"/>
<use x="385.70" y="1740.00" xlink:href="#hl"/>
<use x="385.70" y="1743.00" xlink:href="#hd"/>
<path d="M389.20 1743.00v-21.00" class="stroke"/>
<path class="fill"
	d="M389.20 1722.00c0.6 5.6 9.6 9 5.6 18.4
	1.6 -6 -1.3 -11.6 -5.6 -12.8
"/>
<use x="415.70" y="1707.00" xlink:href="#Hd"/>
<circle class="fill" cx="424.40" cy="1707.00" r="1.2"/>
<path d="M412.20 1707.00v21.00" class="stroke"/>
<use x="455.00" y="1704.00" xlink:href="#hl"/>
<use x="455.00" y="1698.00" xlink:href="#hl"/>
<use x="455.00" y="1698.00" xlink:href="#hd"/>
<path d="M451.50 1698.00v24.00" class="stroke"/>
<use x="474.10" y="1725.00" xlink:href="#hd"/>
<path d="M477.60 1725.00v-21.00" class="stroke"/>
<use x="490.60" y="1716.00" xlink:href="#sbclef"/>
<use x="505.10" y="1716.00" xlink:href="#hd"/>
<path d="M501.60 1716.00v21.00" class="stroke"/>
<use x="534.60" y="1704.00" xlink:href="#hl"/>
<use x="534.60" y="1701.00" xlink:href="#Hd"/>
<circle class="fill" cx="543.30" cy="1701.00" r="1.2"/>
<path d="M531.10 1701.00v21.00" class="stroke"/>
<use x="564.40" y="1728.00" xlink:href="#stclef"/>
<use x="594.90" y="1704.00" xlink:href="#hl"/>
<use x="594.90" y="1701.00" xlink:href="#hd"/>
<path d="M591.40 1701.00v21.00" class="stroke"/>
<use x="616.20" y="1704.00" xlink:href="#hl"/>
<use x="616.20" y="1701.00" xlink:href="#hd"/>
<path d="M612.70 1701.00v21.00" class="stroke"/>
<use x="635.30" y="1737.00" xlink:href="#hd"/>
<path d="M638.80 1737.00v-21.00" class="stroke"/>
<use x="664.80" y="1728.00" xlink:href="#Hd"/>
<circle class="fill" cx="673.50" cy="1725.00" r="1.2"/>
<path d="M668.30 1728.00v-21.00" class="stroke"/>
</g>
<g stroke-width="0.70" font-family="Helvetica" font-size="12.00">
<path class="stroke" stroke-width="1"
	d="M42.00 1805.00v-24.00"/>
<path class="stroke" stroke-width="1"
	d="M186.80 1805.00v-24.00"/>
<path class="stroke" stroke-width="1"
	d="M255.90 1805.00v-24.00"/>
<path class="stroke" stroke-width="1"
	d="M396.00 1805.00v-24.00"/>
<path class="stroke" stroke-width="1"
	d="M534.60 1805.00v-24.00"/>
<path class="stroke" stroke-width="1"
	d="M691.60 1805.00v-24.00"/>
<path d="m10.00 1805.00
	h681.60
	M10.00 1799.00
	h681.60
	M10.00 1793.00
	h681.60
	M10.00 1787.00
	h681.60
	M10.00 1781.00
	h681.60
	" class="stroke"/>
<text x="57.10" y="1768.60">G</text>
<text x="200.40" y="1768.60">F</text>
<text x="271.80" y="1768.60">F</text>
<text x="409.60" y="1768.60">F</text>
<text x="549.70" y="1768.60">G</text>
<use x="22.00" y="1799.00" xlink:href="#tclef"/>
<use x="60.90" y="1811.00" xlink:href="#hl"/>
<use x="60.90" y="1811.00" xlink:href="#hd"/>
<use x="51.90" y="1811.00" xlink:href="#ft0"/>
<path d="M64.40 1811.00v-21.00" class="stroke"/>
<use x="107.50" y="1790.00" xlink:href="#hd"/>
<use x="98.50" y="1790.00" xlink:href="#sh0"/>
<path d="M104.00 1790.00v21.00" class="stroke"/>
<use x="154.20" y="1790.00" xlink:href="#hd"/>
<use x="145.20" y="1790.00" xlink:href="#sh0"/>
<path d="M150.70 1790.00v21.00" class="stroke"/>
<use x="203.30" y="1799.00" xlink:href="#Hd"/>
<circle class="fill" cx="212.00" cy="1796.00" r="1.2"/>
<path d="M206.80 1799.00v-21.00" class="stroke"/>
<use x="274.80" y="1796.00" xlink:href="#hd"/>
<use x="265.80" y="1796.00" xlink:href="#ft0"/>
<path d="M278.30 1796.00v-21.00" class="stroke"/>
<use x="321.40" y="1778.00" xlink:href="#hd"/>
<path d="M317.90 1778.00v21.00" class="stroke"/>
<use x="363.40" y="1811.00" xlink:href="#hl"/>
<use x="363.40" y="1817.00" xlink:href="#hl"/>
<use x="363.40" y="1820.00" xlink:href="#hd"/>
<path d="M366.90 1820.00v-27.00" class="stroke"/>
<use x="412.50" y="1802.00" xlink:href="#hd"/>
<path d="M416.00 1802.00v-21.00" class="stroke"/>
<path class="fill"
	d="M416.00 1781.00c0.6 5.6 9.6 9 5.6 18.4
	1.6 -6 -1.3 -11.6 -5.6 -12.8
"/>
<use x="445.50" y="1784.00" xlink:href="#Hd"/>
<path d="M442.00 1784.00v21.00" class="stroke"/>
<use x="511.50" y="1775.00" xlink:href="#hl"/>
<use x="511.50" y="1775.00" xlink:href="#hd"/>
<path d="M508.00 1775.00v21.00" class="stroke"/>
<path class="fill"
	d="M508.00 1796.00c0.6 -5.6 9.6 -9 5.6 -18.4
	1.6 6 -1.3 11.6 -5.6 12.8
"/>
<use x="553.50" y="1802.00" xlink:href="#hd"/>
<use x="544.50" y="1802.00" xlink:href="#nt0"/>
<path d="M557.00 1802.00v-21.00" class="stroke"/>
<use x="600.10" y="1793.00" xlink:href="#r4"/>
<circle class="fill" cx="608.10" cy="1790.00" r="1.2"/>
<use x="653.20" y="1778.00" xlink:href="#hd"/>
<path d="M649.70 1778.00v23.00" class="stroke"/>
<path class="fill"
	d="M649.70 1801.00c0.9 -3.7 9.1 -6.4 6 -12.4
	1 5.4 -4.2 8.4 -6 8.4
M649.70 1795.60c0.9 -3.7 9.1 -6.4 6 -12.4
	1 5.4 -4.2 8.4 -6 8.4
"/>
<use x="674.20" y="1811.00" xlink:href="#hl"/>
<use x="674.20" y="1811.00" xlink:href="#hd"/>
<path d="M677.70 1811.00v-22.00" class="stroke"/>
<path class="fill"
	d="M677.70 1789.00c0.9 3.7 9.1 6.4 6 12.4
	1 -5.4 -4.2 -8.4 -6 -8.4
M677.70 1794.40c0.9 3.7 9.1 6.4 6 12.4
	1 -5.4 -4.2 -8.4 -6 -8.4
"/>
</g>
<g stroke-width="0.70" font-family="Helvetica" font-size="12.00">
<path class="stroke" stroke-width="1"
	d="M105.30 1881.00v-24.00"/>
<path class="stroke" stroke-width="1"
	d="M298.80 1881.00v-24.00"/>
<path class="stroke" stroke-width="1"
	d="M377.30 1881.00v-24.00"/>
<path class="stroke" stroke-width="1"
	d="M538.40 1881.00v-24.00"/>
<path class="stroke" stroke-width="1"
	d="M615.00 1881.00v-24.00"/>
<path class="stroke" stroke-width="1"
	d="M691.60 1881.00v-24.00"/>
<path d="m10.00 1881.00
	h681.60
	M10.00 1875.00
	h681.60
	M10.00 1869.00
	h681.60
	M10.00 1863.00
	h681.60
	M10.00 1857.00
	h681.60
	" class="stroke"/>
<text x="43.20" y="1839.60">G</text>
<text x="120.70" y="1839.60">F</text>
<text x="315.10" y="1839.60">G</text>
<text x="391.80" y="1839.60">G</text>
<text x="553.20" y="1839.60">C</text>
<text x="629.50" y="1839.60">G</text>
<use x="22.00" y="1875.00" xlink:href="#tclef"/>
<use x="47.00" y="1875.00" xlink:href="#Hd"/>
<circle class="fill" cx="56.70" cy="1872.00" r="1.2"/>
<path d="M50.50 1875.00v-21.00" class="stroke"/>
<use x="123.60" y="1860.00" xlink:href="#hd"/>
<path d="M120.10 1860.00v21.00" class="stroke"/>
<use x="170.20" y="1872.00" xlink:href="#hd"/>
<path d="M173.70 1872.00v-21.00" class="stroke"/>
<use x="221.90" y="1875.00" xlink:href="#hd"/>
<use x="212.90" y="1875.00" xlink:href="#sh0"/>
<path d="M225.40 1875.00v-22.00" class="stroke"/>
<path class="fill"
	d="M225.40 1853.00c0.9 3.7 9.1 6.4 6 12.4
	1 -5.4 -4.2 -8.4 -6 -8.4
M225.40 1858.40c0.9 3.7 9.1 6.4 6 12.4
	1 -5.4 -4.2 -8.4 -6 -8.4
"/>
<use x="247.80" y="1857.00" xlink:href="#hd"/>
<path d="M244.30 1857.00v21.00" class="stroke"/>
<path class="fill"
	d="M244.30 1878.00c0.6 -5.6 9.6 -9 5.6 -18.4
	1.6 6 -1.3 11.6 -5.6 12.8
"/>
<use x="280.70" y="1887.00" xlink:href="#hl"/>
<use x="280.70" y="1887.00" xlink:href="#hd"/>
<path d="M284.20 1887.00v-22.00" class="stroke"/>
<path class="fill"
	d="M284.20 1865.00c0.9 3.7 9.1 6.4 6 12.4
	1 -5.4 -4.2 -8.4 -6 -8.4
M284.20 1870.40c0.9 3.7 9.1 6.4 6 12.4
	1 -5.4 -4.2 -8.4 -6 -8.4
"/>
<use x="319.00" y="1887.00" xlink:href="#hl"/>
<use x="319.00" y="1887.00" xlink:href="#Hd"/>
<circle class="fill" cx="327.70" cy="1884.00" r="1.2"/>
<use x="309.00" y="1887.00" xlink:href="#ft0"/>
<path d="M322.50 1887.00v-21.00" class="stroke"/>
<use x="395.60" y="1851.00" xlink:href="#hl"/>
<use x="395.60" y="1848.00" xlink:href="#hd"/>
<path d="M392.10 1848.00v21.00" class="stroke"/>
<path class="fill"
	d="M392.10 1869.00c0.6 -5.6 9.6 -9 5.6 -18.4
	1.6 6 -1.3 11.6 -5.6 12.8
"/>
<defs>
<path id="r8e" class="fill" d="m 0 0
	c-1.5 1.5 -2.4 2 -3.6 2
	2.4 -2.8 -2.8 -4 -2.8 -1.2
	c0 2.7 4.3 2.4 5.9 0.6"/>
<g id="r16">
	<path d="m3.3 -4l-4 15.6" class="stroke"/>
	<use x="3.4" y="-4" xlink:href="#r8e"/>
	<use x="1.9" y="2" xlink:href="#r8e"/>
</g>
</defs>
<use x="428.50" y="1869.00" xlink:href="#r16"/>
<use x="454.40" y="1854.00" xlink:href="#Hd"/>
<path d="M450.90 1854.00v21.00" class="stroke"/>
<use x="520.30" y="1878.00" xlink:href="#hd"/>
<use x="511.30" y="1878.00" xlink:href="#ft0"/>
<path d="M523.80 1878.00v-22.00" class="stroke"/>
<path class="fill"
	d="M523.80 1856.00c0.9 3.7 9.1 6.4 6 12.4
	1 -5.4 -4.2 -8.4 -6 -8.4
M523.80 1861.40c0.9 3.7 9.1 6.4 6 12.4
	1 -5.4 -4.2 -8.4 -6 -8.4
"/>
<use x="556.70" y="1872.00" xlink:href="#Hd"/>
<circle class="fill" cx="565.40" cy="1872.00" r="1.2"/>
<path d="M560.20 1872.00v-21.00" class="stroke"/>
<use x="633.30" y="1884.00" xlink:href="#Hd"/>
<circle class="fill" cx="642.00" cy="1884.00" r="1.2"/>
<path d="M636.80 1884.00v-21.00" class="stroke"/>
</g>
<g stroke-width="0.70" font-family="Helvetica" font-size="12.00">
<path class="stroke" stroke-width="1"
	d="M123.80 1965.00v-24.00"/>
<path class="stroke" stroke-width="1"
	d="M188.40 1965.00v-24.00"/>
<path class="stroke" stroke-width="1"
	d="M268.60 1965.00v-24.00"/>
<path class="stroke" stroke-width="1"
	d="M353.10 1965.00v-24.00"/>
<path class="stroke" stroke-width="1"
	d="M439.30 1965.00v-24.00"/>
<path class="stroke" stroke-width="1"
	d="M531.10 1965.00v-24.00"/>
<path class="stroke" stroke-width="1"
	d="M609.90 1965.00v-24.00"/>
<path class="stroke" stroke-width="3"
	d="M690.10 1965.00v-24.00"/>
<path class="stroke" stroke-width="1"
	d="M685.60 1965.00v-24.00"/>
<path d="m10.00 1965.00
	h681.60
	M10.00 1959.00
	h681.60
	M10.00 1953.00
	h681.60
	M10.00 1947.00
	h681.60
	M10.00 1941.00
	h681.60
	" class="stroke"/>
<text x="39.10" y="1915.60">Am</text>
<text x="133.90" y="1915.60">F</text>
<text x="193.50" y="1915.60">Am</text>
<text x="277.60" y="1915.60">C</text>
<text x="357.70" y="1915.60">Am</text>
<text x="450.80" y="1915.60">Bdim</text>
<text x="539.80" y="1915.60">G</text>
<text x="619.50" y="1915.60">F</text>
<use x="22.00" y="1959.00" xlink:href="#tclef"/>
<use x="47.00" y="1953.00" xlink:href="#r2"/>
<use x="78.40" y="1953.00" xlink:href="#r16"/>
<use x="91.60" y="1938.00" xlink:href="#hd"/>
<path d="M88.10 1938.00v21.00" class="stroke"/>
<path class="fill"
	d="M88.10 1959.00c0.6 -5.6 9.6 -9 5.6 -18.4
	1.6 6 -1.3 11.6 -5.6 12.8
"/>
<use x="111.30" y="1953.00" xlink:href="#hd"/>
<use x="102.30" y="1953.00" xlink:href="#ft0"/>
<path d="M107.80 1953.00v23.00" class="stroke"/>
<path class="fill"
	d="M107.80 1976.00c0.9 -3.7 9.1 -6.4 6 -12.4
	1 5.4 -4.2 8.4 -6 8.4
M107.80 1970.60c0.9 -3.7 9.1 -6.4 6 -12.4
	1 5.4 -4.2 8.4 -6 8.4
"/>
<use x="136.80" y="1953.00" xlink:href="#r2"/>
<use x="169.80" y="1971.00" xlink:href="#hl"/>
<use x="169.80" y="1971.00" xlink:href="#hd"/>
<use x="160.80" y="1971.00" xlink:href="#nt0"/>
<path d="M173.30 1971.00v-21.00" class="stroke"/>
<use x="201.40" y="1950.00" xlink:href="#Hd"/>
<path d="M197.90 1950.00v21.00" class="stroke"/>
<use x="232.70" y="1968.00" xlink:href="#hd"/>
<path d="M236.20 1968.00v-21.00" class="stroke"/>
<path class="fill"
	d="M236.20 1947.00c0.6 5.6 9.6 9 5.6 18.4
	1.6 -6 -1.3 -11.6 -5.6 -12.8
"/>
<use x="251.60" y="1971.00" xlink:href="#hl"/>
<use x="251.60" y="1974.00" xlink:href="#hd"/>
<path d="M255.10 1974.00v-21.00" class="stroke"/>
<path class="fill"
	d="M255.10 1953.00c0.6 5.6 9.6 9 5.6 18.4
	1.6 -6 -1.3 -11.6 -5.6 -12.8
"/>
<use x="281.10" y="1962.00" xlink:href="#hd"/>
<path d="M284.60 1962.00v-21.00" class="stroke"/>
<path class="fill"
	d="M284.60 1941.00c0.6 5.6 9.6 9 5.6 18.4
	1.6 -6 -1.3 -11.6 -5.6 -12.8
"/>
<use x="304.60" y="1947.00" xlink:href="#Hd"/>
<use x="294.60" y="1947.00" xlink:href="#ft0"/>
<path d="M301.10 1947.00v21.00" class="stroke"/>
<use x="339.30" y="1941.00" xlink:href="#hd"/>
<path d="M335.80 1941.00v21.00" class="stroke"/>
<path class="fill"
	d="M335.80 1962.00c0.6 -5.6 9.6 -9 5.6 -18.4
	1.6 6 -1.3 11.6 -5.6 12.8
"/>
<use x="365.60" y="1935.00" xlink:href="#hl"/>
<use x="365.60" y="1929.00" xlink:href="#hl"/>
<use x="365.60" y="1929.00" xlink:href="#hd"/>
<path d="M362.10 1929.00v24.00" class="stroke"/>
<use x="388.20" y="1956.00" xlink:href="#hd"/>
<path d="M391.70 1956.00v-21.00" class="stroke"/>
<use x="406.20" y="1947.00" xlink:href="#sbclef"/>
<use x="420.70" y="1947.00" xlink:href="#hd"/>
<path d="M417.20 1947.00v21.00" class="stroke"/>
<use x="458.80" y="1935.00" xlink:href="#hl"/>
<use x="458.80" y="1929.00" xlink:href="#hl"/>
<use x="458.80" y="1926.00" xlink:href="#Hd"/>
<use x="448.80" y="1926.00" xlink:href="#nt0"/>
<path d="M455.30 1926.00v27.00" class="stroke"/>
<use x="495.10" y="1953.00" xlink:href="#hd"/>
<use x="486.10" y="1953.00" xlink:href="#nt0"/>
<path d="M491.60 1953.00v21.00" class="stroke"/>
<use x="513.10" y="1959.00" xlink:href="#stclef"/>
<use x="543.60" y="1935.00" xlink:href="#hl"/>
<use x="543.60" y="1932.00" xlink:href="#hd"/>
<path d="M540.10 1932.00v21.00" class="stroke"/>
<use x="568.80" y="1935.00" xlink:href="#hl"/>
<use x="568.80" y="1932.00" xlink:href="#hd"/>
<path d="M565.30 1932.00v21.00" class="stroke"/>
<use x="591.40" y="1968.00" xlink:href="#hd"/>
<path d="M594.90 1968.00v-21.00" class="stroke"/>
<use x="622.40" y="1971.00" xlink:href="#hl"/>
<use x="622.40" y="1977.00" xlink:href="#hl"/>
<use x="622.40" y="1977.00" xlink:href="#hd"/>
<path d="M625.90 1977.00v-24.00" class="stroke"/>
<use x="647.30" y="1956.00" xlink:href="#hd"/>
<path d="M650.80 1956.00v-21.00" class="stroke"/>
<path class="fill"
	d="M650.80 1935.00c0.6 5.6 9.6 9 5.6 18.4
	1.6 -6 -1.3 -11.6 -5.6 -12.8
"/>
<use x="666.20" y="1953.00" xlink:href="#hd"/>
<circle class="fill" cx="673.90" cy="1950.00" r="1.2"/>
<path d="M669.70 1953.00v-21.00" class="stroke"/>
</g>
</svg>
