<?xml version="1.0" standalone="no"?>
<!DOCTYPE svg PUBLIC "-//W3C//DTD SVG 1.1//EN"
	"http://www.w3.org/Graphics/SVG/1.1/DTD/svg11.dtd">
<svg xmlns="http://www.w3.org/2000/svg" version="1.1"
	xmlns:xlink="http://www.w3.org/1999/xlink"
	color="black"
	width="701.60px" height="545.00px">
<style type="text/css">
.fill {fill: currentColor}
.stroke {stroke: currentColor; fill: none}
text{white-space: pre}
</style>
<title>generated_songs/0.abc (1) tune 1</title>
<!-- Creator: abcm2ps-8.13.23 -->
<!-- CreationDate: Nov  6, 2018 23:07 -->
<!-- CommandLine: generated_songs/0.abc -g -->
<g stroke-width="0.70">
<!-- title: Invention -->
</g>
<g stroke-width="0.70" font-family="Times" font-size="20.00">
<text x="350.80" y="22.00" text-anchor="middle">Invention</text>
</g>
<g stroke-width="0.70" transform="scale(0.700)" font-family="Times" font-size="20.00">
<defs>
<ellipse id="hd" rx="4.1" ry="2.9"
	transform="rotate(-20)" class="fill"/>
</defs>
<use x="110.14" y="75.57" xlink:href="#hd"/>
<path d="M113.64 75.57v-21.00" class="stroke"/>
</g>
<g stroke-width="0.70" font-family="Times" font-size="15.00" font-weight="bold">
<text x="84.80" y="55.00">= 80</text>
<path class="stroke" stroke-width="1"
	d="M216.70 98.00v-24.00"/>
<path class="stroke" stroke-width="1"
	d="M369.30 98.00v-24.00"/>
<path class="stroke" stroke-width="1"
	d="M521.90 98.00v-24.00"/>
<path d="m10.00 98.00
	h681.60
	M10.00 92.00
	h681.60
	M10.00 86.00
	h681.60
	M10.00 80.00
	h681.60
	M10.00 74.00
	h681.60
	" class="stroke"/>
<defs>
<path id="utclef" class="fill" d="m-50 -90
	c-72 -41 -72 -158 52 -188
	150 -10 220 188 90 256
	-114 52 -275 0 -293 -136
	-15 -181 93 -229 220 -334
	88 -87 79 -133 62 -210
	-51 33 -94 105 -89 186
	17 267 36 374 49 574
	6 96 -19 134 -77 135
	-80 1 -126 -93 -61 -133
	85 -41 133 101 31 105
	23 17 92 37 90 -92
	-10 -223 -39 -342 -50 -617
	0 -90 0 -162 96 -232
	56 72 63 230 22 289
	-74 106 -257 168 -255 316
	9 153 148 185 252 133
	86 -65 29 -192 -80 -176
	-71 12 -105 67 -59 124"/>
<use id="tclef" transform="translate(0,6) scale(0.045)"
	xlink:href="#utclef"/>
</defs>
<use x="22.00" y="92.00" xlink:href="#tclef"/>
<defs>
<path id="uflat" class="fill" d="
	m100 -746
	h32
	v734
	l-32 4
	m32 -332
	c46 -72 152 -90 208 -20
	100 110 -120 326 -208 348
	m0 -28
	c54 0 200 -206 130 -290
	-50 -60 -130 -4 -130 34"/>
<use id="ft0" transform="translate(-3.5,3.5) scale(0.018)"
	xlink:href="#uflat"/>
</defs>
<use x="37.00" y="86.00" xlink:href="#ft0"/>
<use x="42.50" y="77.00" xlink:href="#ft0"/>
<g font-family="serif" font-size="16" font-weight="bold" font-style="normal"
	transform="translate(58.50,97.50) scale(1.2,1)">
	<text text-anchor="middle">4</text>
	<text y="-12" text-anchor="middle">4</text>
</g>
<defs>
<path id="hl" class="stroke" d="m-6 0h12"/>
</defs>
<use x="76.50" y="68.00" xlink:href="#hl"/>
<use x="76.50" y="65.00" xlink:href="#hd"/>
<path d="M73.00 65.00v21.00" class="stroke"/>
<path class="fill"
	d="M73.00 86.00c0.6 -5.6 9.6 -9 5.6 -18.4
	1.6 6 -1.3 11.6 -5.6 12.8
"/>
<use x="100.60" y="68.00" xlink:href="#hl"/>
<use x="100.60" y="65.00" xlink:href="#hd"/>
<path d="M97.10 65.00v21.00" class="stroke"/>
<use x="134.60" y="68.00" xlink:href="#hl"/>
<use x="134.60" y="65.00" xlink:href="#hd"/>
<path d="M131.10 65.00v21.00" class="stroke"/>
<use x="168.60" y="68.00" xlink:href="#hl"/>
<use x="168.60" y="62.00" xlink:href="#hl"/>
<use x="168.60" y="62.00" xlink:href="#hd"/>
<path d="M165.10 62.00v24.00" class="stroke"/>
<path class="fill"
	d="M165.10 86.00c0.6 -5.6 9.6 -9 5.6 -18.4
	1.6 6 -1.3 11.6 -5.6 12.8
"/>
<use x="192.80" y="68.00" xlink:href="#hl"/>
<use x="192.80" y="65.00" xlink:href="#hd"/>
<path d="M189.30 65.00v21.00" class="stroke"/>
<use x="229.20" y="68.00" xlink:href="#hl"/>
<use x="229.20" y="68.00" xlink:href="#hd"/>
<path d="M225.70 68.00v21.00" class="stroke"/>
<path class="fill"
	d="M225.70 89.00c0.6 -5.6 9.6 -9 5.6 -18.4
	1.6 6 -1.3 11.6 -5.6 12.8
"/>
<use x="253.30" y="71.00" xlink:href="#hd"/>
<path d="M249.80 71.00v21.00" class="stroke"/>
<use x="287.30" y="74.00" xlink:href="#hd"/>
<path d="M283.80 74.00v21.00" class="stroke"/>
<use x="321.20" y="71.00" xlink:href="#hd"/>
<path d="M317.70 71.00v21.00" class="stroke"/>
<path class="fill"
	d="M317.70 92.00c0.6 -5.6 9.6 -9 5.6 -18.4
	1.6 6 -1.3 11.6 -5.6 12.8
"/>
<use x="345.30" y="68.00" xlink:href="#hl"/>
<use x="345.30" y="68.00" xlink:href="#hd"/>
<path d="M341.80 68.00v21.00" class="stroke"/>
<use x="381.80" y="68.00" xlink:href="#hl"/>
<use x="381.80" y="65.00" xlink:href="#hd"/>
<path d="M378.30 65.00v21.00" class="stroke"/>
<path class="fill"
	d="M378.30 86.00c0.6 -5.6 9.6 -9 5.6 -18.4
	1.6 6 -1.3 11.6 -5.6 12.8
"/>
<use x="405.90" y="68.00" xlink:href="#hl"/>
<use x="405.90" y="68.00" xlink:href="#hd"/>
<path d="M402.40 68.00v21.00" class="stroke"/>
<use x="439.90" y="71.00" xlink:href="#hd"/>
<path d="M436.40 71.00v21.00" class="stroke"/>
<use x="473.80" y="74.00" xlink:href="#hd"/>
<path d="M470.30 74.00v21.00" class="stroke"/>
<path class="fill"
	d="M470.30 95.00c0.6 -5.6 9.6 -9 5.6 -18.4
	1.6 6 -1.3 11.6 -5.6 12.8
"/>
<use x="497.90" y="71.00" xlink:href="#hd"/>
<path d="M494.40 71.00v21.00" class="stroke"/>
<use x="534.40" y="77.00" xlink:href="#hd"/>
<path d="M530.90 77.00v21.00" class="stroke"/>
<path class="fill"
	d="M530.90 98.00c0.6 -5.6 9.6 -9 5.6 -18.4
	1.6 6 -1.3 11.6 -5.6 12.8
"/>
<use x="558.50" y="77.00" xlink:href="#hd"/>
<path d="M555.00 77.00v21.00" class="stroke"/>
<use x="592.40" y="77.00" xlink:href="#hd"/>
<path d="M588.90 77.00v21.00" class="stroke"/>
<use x="626.40" y="74.00" xlink:href="#hd"/>
<path d="M622.90 74.00v21.00" class="stroke"/>
<path class="fill"
	d="M622.90 95.00c0.6 -5.6 9.6 -9 5.6 -18.4
	1.6 6 -1.3 11.6 -5.6 12.8
"/>
<use x="650.50" y="71.00" xlink:href="#hd"/>
<path d="M647.00 71.00v21.00" class="stroke"/>
<path class="fill"
	d="M647.00 92.00c0.6 -5.6 9.6 -9 5.6 -18.4
	1.6 6 -1.3 11.6 -5.6 12.8
"/>
<use x="674.60" y="68.00" xlink:href="#hl"/>
<use x="674.60" y="68.00" xlink:href="#hd"/>
<path d="M671.10 68.00v21.00" class="stroke"/>
<path class="fill"
	d="M671.10 89.00c0.6 -5.6 9.6 -9 5.6 -18.4
	1.6 6 -1.3 11.6 -5.6 12.8
"/>
</g>
<g stroke-width="0.70" font-family="Times" font-size="15.00" font-weight="bold">
<path class="stroke" stroke-width="1"
	d="M60.00 168.00v-24.00"/>
<path class="stroke" stroke-width="1"
	d="M200.80 168.00v-24.00"/>
<path class="stroke" stroke-width="1"
	d="M358.50 168.00v-24.00"/>
<path class="stroke" stroke-width="1"
	d="M516.20 168.00v-24.00"/>
<path d="m10.00 168.00
	h681.60
	M10.00 162.00
	h681.60
	M10.00 156.00
	h681.60
	M10.00 150.00
	h681.60
	M10.00 144.00
	h681.60
	" class="stroke"/>
<use x="22.00" y="162.00" xlink:href="#tclef"/>
<use x="37.00" y="156.00" xlink:href="#ft0"/>
<use x="42.50" y="147.00" xlink:href="#ft0"/>
<use x="72.60" y="138.00" xlink:href="#hl"/>
<use x="72.60" y="135.00" xlink:href="#hd"/>
<circle class="fill" cx="80.30" cy="135.00" r="1.2"/>
<path d="M69.10 135.00v21.00" class="stroke"/>
<use x="112.80" y="138.00" xlink:href="#hl"/>
<use x="112.80" y="135.00" xlink:href="#hd"/>
<path d="M109.30 135.00v21.00" class="stroke"/>
<use x="148.00" y="138.00" xlink:href="#hl"/>
<use x="148.00" y="135.00" xlink:href="#hd"/>
<path d="M144.50 135.00v21.00" class="stroke"/>
<use x="183.20" y="153.00" xlink:href="#hd"/>
<path d="M179.70 153.00v21.00" class="stroke"/>
<path class="fill"
	d="M179.70 174.00c0.6 -5.6 9.6 -9 5.6 -18.4
	1.6 6 -1.3 11.6 -5.6 12.8
"/>
<use x="213.40" y="138.00" xlink:href="#hl"/>
<use x="213.40" y="138.00" xlink:href="#hd"/>
<path d="M209.90 138.00v21.00" class="stroke"/>
<path class="fill"
	d="M209.90 159.00c0.6 -5.6 9.6 -9 5.6 -18.4
	1.6 6 -1.3 11.6 -5.6 12.8
"/>
<use x="238.30" y="141.00" xlink:href="#hd"/>
<path d="M234.80 141.00v21.00" class="stroke"/>
<use x="273.60" y="144.00" xlink:href="#hd"/>
<path d="M270.10 144.00v21.00" class="stroke"/>
<use x="308.80" y="138.00" xlink:href="#hl"/>
<use x="308.80" y="138.00" xlink:href="#hd"/>
<path d="M305.30 138.00v21.00" class="stroke"/>
<path class="fill"
	d="M305.30 159.00c0.6 -5.6 9.6 -9 5.6 -18.4
	1.6 6 -1.3 11.6 -5.6 12.8
"/>
<use x="333.70" y="141.00" xlink:href="#hd"/>
<path d="M330.20 141.00v21.00" class="stroke"/>
<use x="371.10" y="138.00" xlink:href="#hl"/>
<use x="371.10" y="135.00" xlink:href="#hd"/>
<path d="M367.60 135.00v21.00" class="stroke"/>
<path class="fill"
	d="M367.60 156.00c0.6 -5.6 9.6 -9 5.6 -18.4
	1.6 6 -1.3 11.6 -5.6 12.8
"/>
<use x="396.00" y="138.00" xlink:href="#hl"/>
<use x="396.00" y="138.00" xlink:href="#hd"/>
<path d="M392.50 138.00v21.00" class="stroke"/>
<use x="431.30" y="141.00" xlink:href="#hd"/>
<path d="M427.80 141.00v21.00" class="stroke"/>
<use x="466.50" y="144.00" xlink:href="#hd"/>
<path d="M463.00 144.00v21.00" class="stroke"/>
<path class="fill"
	d="M463.00 165.00c0.6 -5.6 9.6 -9 5.6 -18.4
	1.6 6 -1.3 11.6 -5.6 12.8
"/>
<use x="491.40" y="141.00" xlink:href="#hd"/>
<path d="M487.90 141.00v21.00" class="stroke"/>
<use x="528.80" y="147.00" xlink:href="#hd"/>
<path d="M525.30 147.00v21.00" class="stroke"/>
<path class="fill"
	d="M525.30 168.00c0.6 -5.6 9.6 -9 5.6 -18.4
	1.6 6 -1.3 11.6 -5.6 12.8
"/>
<use x="553.70" y="147.00" xlink:href="#hd"/>
<path d="M550.20 147.00v21.00" class="stroke"/>
<use x="588.90" y="147.00" xlink:href="#hd"/>
<path d="M585.40 147.00v21.00" class="stroke"/>
<use x="624.10" y="144.00" xlink:href="#hd"/>
<path d="M620.60 144.00v21.00" class="stroke"/>
<path class="fill"
	d="M620.60 165.00c0.6 -5.6 9.6 -9 5.6 -18.4
	1.6 6 -1.3 11.6 -5.6 12.8
"/>
<use x="649.10" y="141.00" xlink:href="#hd"/>
<path d="M645.60 141.00v21.00" class="stroke"/>
<path class="fill"
	d="M645.60 162.00c0.6 -5.6 9.6 -9 5.6 -18.4
	1.6 6 -1.3 11.6 -5.6 12.8
"/>
<use x="674.00" y="138.00" xlink:href="#hl"/>
<use x="674.00" y="138.00" xlink:href="#hd"/>
<path d="M670.50 138.00v21.00" class="stroke"/>
<path class="fill"
	d="M670.50 159.00c0.6 -5.6 9.6 -9 5.6 -18.4
	1.6 6 -1.3 11.6 -5.6 12.8
"/>
</g>
<g stroke-width="0.70" font-family="Times" font-size="15.00" font-weight="bold">
<path class="stroke" stroke-width="1"
	d="M60.00 238.00v-24.00"/>
<path class="stroke" stroke-width="1"
	d="M204.80 238.00v-24.00"/>
<path class="stroke" stroke-width="1"
	d="M348.90 238.00v-24.00"/>
<path class="stroke" stroke-width="1"
	d="M511.10 238.00v-24.00"/>
<path d="m10.00 238.00
	h681.60
	M10.00 232.00
	h681.60
	M10.00 226.00
	h681.60
	M10.00 220.00
	h681.60
	M10.00 214.00
	h681.60
	" class="stroke"/>
<use x="22.00" y="232.00" xlink:href="#tclef"/>
<use x="37.00" y="226.00" xlink:href="#ft0"/>
<use x="42.50" y="217.00" xlink:href="#ft0"/>
<use x="72.90" y="208.00" xlink:href="#hl"/>
<use x="72.90" y="205.00" xlink:href="#hd"/>
<circle class="fill" cx="80.60" cy="205.00" r="1.2"/>
<path d="M69.40 205.00v21.00" class="stroke"/>
<use x="114.30" y="208.00" xlink:href="#hl"/>
<use x="114.30" y="205.00" xlink:href="#hd"/>
<path d="M110.80 205.00v21.00" class="stroke"/>
<use x="150.50" y="208.00" xlink:href="#hl"/>
<use x="150.50" y="205.00" xlink:href="#hd"/>
<path d="M147.00 205.00v21.00" class="stroke"/>
<use x="186.70" y="223.00" xlink:href="#hd"/>
<path d="M183.20 223.00v21.00" class="stroke"/>
<path class="fill"
	d="M183.20 244.00c0.6 -5.6 9.6 -9 5.6 -18.4
	1.6 6 -1.3 11.6 -5.6 12.8
"/>
<use x="217.70" y="208.00" xlink:href="#hl"/>
<use x="217.70" y="208.00" xlink:href="#hd"/>
<path d="M214.20 208.00v21.00" class="stroke"/>
<path class="fill"
	d="M214.20 229.00c0.6 -5.6 9.6 -9 5.6 -18.4
	1.6 6 -1.3 11.6 -5.6 12.8
"/>
<defs>
<path id="Hd" class="fill" d="m3 -1.6
	c-1 -1.8 -7 1.4 -6 3.2
	1 1.8 7 -1.4 6 -3.2
	m0.5 -0.3
	c2 3.8 -5 7.6 -7 3.8
	-2 -3.8 5 -7.6 7 -3.8"/>
</defs>
<use x="243.40" y="211.00" xlink:href="#Hd"/>
<path d="M239.90 211.00v21.00" class="stroke"/>
<use x="294.60" y="214.00" xlink:href="#hd"/>
<path d="M291.10 214.00v21.00" class="stroke"/>
<use x="330.90" y="211.00" xlink:href="#hd"/>
<path d="M327.40 211.00v21.00" class="stroke"/>
<path class="fill"
	d="M327.40 232.00c0.6 -5.6 9.6 -9 5.6 -18.4
	1.6 6 -1.3 11.6 -5.6 12.8
"/>
<use x="361.80" y="208.00" xlink:href="#hl"/>
<use x="361.80" y="205.00" xlink:href="#hd"/>
<path d="M358.30 205.00v21.00" class="stroke"/>
<path class="fill"
	d="M358.30 226.00c0.6 -5.6 9.6 -9 5.6 -18.4
	1.6 6 -1.3 11.6 -5.6 12.8
"/>
<use x="387.50" y="208.00" xlink:href="#hl"/>
<use x="387.50" y="208.00" xlink:href="#hd"/>
<path d="M384.00 208.00v21.00" class="stroke"/>
<use x="423.70" y="223.00" xlink:href="#hd"/>
<path d="M420.20 223.00v21.00" class="stroke"/>
<use x="460.00" y="214.00" xlink:href="#hd"/>
<path d="M456.50 214.00v21.00" class="stroke"/>
<path class="fill"
	d="M456.50 235.00c0.6 -5.6 9.6 -9 5.6 -18.4
	1.6 6 -1.3 11.6 -5.6 12.8
"/>
<use x="485.60" y="211.00" xlink:href="#hd"/>
<path d="M482.10 211.00v21.00" class="stroke"/>
<use x="524.00" y="211.00" xlink:href="#hd"/>
<path d="M520.50 211.00v21.00" class="stroke"/>
<path class="fill"
	d="M520.50 232.00c0.6 -5.6 9.6 -9 5.6 -18.4
	1.6 6 -1.3 11.6 -5.6 12.8
"/>
<use x="549.70" y="217.00" xlink:href="#hd"/>
<path d="M546.20 217.00v21.00" class="stroke"/>
<use x="585.90" y="217.00" xlink:href="#hd"/>
<path d="M582.40 217.00v21.00" class="stroke"/>
<use x="622.10" y="223.00" xlink:href="#hd"/>
<path d="M618.60 223.00v21.00" class="stroke"/>
<path class="fill"
	d="M618.60 244.00c0.6 -5.6 9.6 -9 5.6 -18.4
	1.6 6 -1.3 11.6 -5.6 12.8
"/>
<use x="647.90" y="211.00" xlink:href="#hd"/>
<use x="638.90" y="211.00" xlink:href="#ft0"/>
<path d="M644.40 211.00v21.00" class="stroke"/>
<path class="fill"
	d="M644.40 232.00c0.6 -5.6 9.6 -9 5.6 -18.4
	1.6 6 -1.3 11.6 -5.6 12.8
"/>
<use x="673.60" y="214.00" xlink:href="#hd"/>
<path d="M670.10 214.00v21.00" class="stroke"/>
<path class="fill"
	d="M670.10 235.00c0.6 -5.6 9.6 -9 5.6 -18.4
	1.6 6 -1.3 11.6 -5.6 12.8
"/>
</g>
<g stroke-width="0.70" font-family="Times" font-size="15.00" font-weight="bold">
<path class="stroke" stroke-width="1"
	d="M60.00 308.00v-24.00"/>
<path class="stroke" stroke-width="1"
	d="M210.70 308.00v-24.00"/>
<path class="stroke" stroke-width="1"
	d="M364.50 308.00v-24.00"/>
<path class="stroke" stroke-width="1"
	d="M537.70 308.00v-24.00"/>
<path d="m10.00 308.00
	h681.60
	M10.00 302.00
	h681.60
	M10.00 296.00
	h681.60
	M10.00 290.00
	h681.60
	M10.00 284.00
	h681.60
	" class="stroke"/>
<use x="22.00" y="302.00" xlink:href="#tclef"/>
<use x="37.00" y="296.00" xlink:href="#ft0"/>
<use x="42.50" y="287.00" xlink:href="#ft0"/>
<use x="73.70" y="278.00" xlink:href="#hl"/>
<use x="73.70" y="275.00" xlink:href="#hd"/>
<circle class="fill" cx="81.40" cy="275.00" r="1.2"/>
<path d="M70.20 275.00v21.00" class="stroke"/>
<use x="117.90" y="278.00" xlink:href="#hl"/>
<use x="117.90" y="275.00" xlink:href="#hd"/>
<path d="M114.40 275.00v21.00" class="stroke"/>
<use x="152.70" y="308.00" xlink:href="#hd"/>
<path d="M156.20 308.00v-21.00" class="stroke"/>
<use x="191.40" y="305.00" xlink:href="#hd"/>
<path d="M194.90 305.00v-21.00" class="stroke"/>
<path class="fill"
	d="M194.90 284.00c0.6 5.6 9.6 9 5.6 18.4
	1.6 -6 -1.3 -11.6 -5.6 -12.8
"/>
<use x="224.40" y="278.00" xlink:href="#hl"/>
<use x="224.40" y="278.00" xlink:href="#hd"/>
<path d="M220.90 278.00v21.00" class="stroke"/>
<path class="fill"
	d="M220.90 299.00c0.6 -5.6 9.6 -9 5.6 -18.4
	1.6 6 -1.3 11.6 -5.6 12.8
"/>
<use x="251.80" y="281.00" xlink:href="#Hd"/>
<path d="M248.30 281.00v21.00" class="stroke"/>
<use x="306.60" y="284.00" xlink:href="#hd"/>
<path d="M303.10 284.00v21.00" class="stroke"/>
<use x="345.30" y="281.00" xlink:href="#hd"/>
<path d="M341.80 281.00v21.00" class="stroke"/>
<path class="fill"
	d="M341.80 302.00c0.6 -5.6 9.6 -9 5.6 -18.4
	1.6 6 -1.3 11.6 -5.6 12.8
"/>
<use x="378.30" y="311.00" xlink:href="#hd"/>
<path d="M381.80 311.00v-21.00" class="stroke"/>
<path class="fill"
	d="M381.80 290.00c0.6 5.6 9.6 9 5.6 18.4
	1.6 -6 -1.3 -11.6 -5.6 -12.8
"/>
<use x="405.70" y="278.00" xlink:href="#hl"/>
<use x="405.70" y="275.00" xlink:href="#hd"/>
<path d="M402.20 275.00v21.00" class="stroke"/>
<use x="444.40" y="278.00" xlink:href="#hl"/>
<use x="444.40" y="278.00" xlink:href="#hd"/>
<path d="M440.90 278.00v21.00" class="stroke"/>
<use x="483.20" y="281.00" xlink:href="#hd"/>
<path d="M479.70 281.00v21.00" class="stroke"/>
<path class="fill"
	d="M479.70 302.00c0.6 -5.6 9.6 -9 5.6 -18.4
	1.6 6 -1.3 11.6 -5.6 12.8
"/>
<use x="510.60" y="281.00" xlink:href="#hd"/>
<path d="M507.10 281.00v21.00" class="stroke"/>
<use x="551.50" y="287.00" xlink:href="#hd"/>
<path d="M548.00 287.00v21.00" class="stroke"/>
<path class="fill"
	d="M548.00 308.00c0.6 -5.6 9.6 -9 5.6 -18.4
	1.6 6 -1.3 11.6 -5.6 12.8
"/>
<use x="578.90" y="287.00" xlink:href="#Hd"/>
<path d="M575.40 287.00v21.00" class="stroke"/>
<use x="633.70" y="287.00" xlink:href="#hd"/>
<path d="M630.20 287.00v21.00" class="stroke"/>
<use x="672.40" y="284.00" xlink:href="#hd"/>
<path d="M668.90 284.00v21.00" class="stroke"/>
<path class="fill"
	d="M668.90 305.00c0.6 -5.6 9.6 -9 5.6 -18.4
	1.6 6 -1.3 11.6 -5.6 12.8
"/>
</g>
<g stroke-width="0.70" font-family="Times" font-size="15.00" font-weight="bold">
<path class="stroke" stroke-width="1"
	d="M60.00 378.00v-24.00"/>
<path class="stroke" stroke-width="1"
	d="M223.10 378.00v-24.00"/>
<path class="stroke" stroke-width="1"
	d="M389.60 378.00v-24.00"/>
<path class="stroke" stroke-width="1"
	d="M530.90 378.00v-24.00"/>
<path d="m10.00 378.00
	h681.60
	M10.00 372.00
	h681.60
	M10.00 366.00
	h681.60
	M10.00 360.00
	h681.60
	M10.00 354.00
	h681.60
	" class="stroke"/>
<use x="22.00" y="372.00" xlink:href="#tclef"/>
<use x="37.00" y="366.00" xlink:href="#ft0"/>
<use x="42.50" y="357.00" xlink:href="#ft0"/>
<use x="74.80" y="348.00" xlink:href="#hl"/>
<use x="74.80" y="345.00" xlink:href="#hd"/>
<circle class="fill" cx="82.50" cy="345.00" r="1.2"/>
<path d="M71.30 345.00v21.00" class="stroke"/>
<use x="122.60" y="348.00" xlink:href="#hl"/>
<use x="122.60" y="345.00" xlink:href="#hd"/>
<path d="M119.10 345.00v21.00" class="stroke"/>
<use x="160.30" y="378.00" xlink:href="#hd"/>
<path d="M163.80 378.00v-21.00" class="stroke"/>
<use x="202.30" y="375.00" xlink:href="#hd"/>
<path d="M205.80 375.00v-21.00" class="stroke"/>
<path class="fill"
	d="M205.80 354.00c0.6 5.6 9.6 9 5.6 18.4
	1.6 -6 -1.3 -11.6 -5.6 -12.8
"/>
<use x="237.90" y="363.00" xlink:href="#hd"/>
<path d="M234.40 363.00v21.00" class="stroke"/>
<path class="fill"
	d="M234.40 384.00c0.6 -5.6 9.6 -9 5.6 -18.4
	1.6 6 -1.3 11.6 -5.6 12.8
"/>
<use x="267.60" y="348.00" xlink:href="#hl"/>
<use x="267.60" y="348.00" xlink:href="#Hd"/>
<path d="M264.10 348.00v21.00" class="stroke"/>
<use x="326.90" y="354.00" xlink:href="#hd"/>
<path d="M323.40 354.00v21.00" class="stroke"/>
<use x="368.90" y="351.00" xlink:href="#hd"/>
<path d="M365.40 351.00v21.00" class="stroke"/>
<path class="fill"
	d="M365.40 372.00c0.6 -5.6 9.6 -9 5.6 -18.4
	1.6 6 -1.3 11.6 -5.6 12.8
"/>
<use x="404.50" y="348.00" xlink:href="#hl"/>
<use x="404.50" y="345.00" xlink:href="#Hd"/>
<path d="M401.00 345.00v21.00" class="stroke"/>
<use x="463.80" y="348.00" xlink:href="#hl"/>
<use x="463.80" y="348.00" xlink:href="#hd"/>
<path d="M460.30 348.00v21.00" class="stroke"/>
<use x="501.60" y="378.00" xlink:href="#hd"/>
<path d="M505.10 378.00v-21.00" class="stroke"/>
<use x="545.80" y="357.00" xlink:href="#hd"/>
<path d="M542.30 357.00v21.00" class="stroke"/>
<path class="fill"
	d="M542.30 378.00c0.6 -5.6 9.6 -9 5.6 -18.4
	1.6 6 -1.3 11.6 -5.6 12.8
"/>
<use x="575.50" y="366.00" xlink:href="#Hd"/>
<path d="M572.00 366.00v21.00" class="stroke"/>
<use x="628.90" y="375.00" xlink:href="#hd"/>
<path d="M632.40 375.00v-21.00" class="stroke"/>
<use x="670.80" y="354.00" xlink:href="#hd"/>
<path d="M667.30 354.00v21.00" class="stroke"/>
<path class="fill"
	d="M667.30 375.00c0.6 -5.6 9.6 -9 5.6 -18.4
	1.6 6 -1.3 11.6 -5.6 12.8
"/>
</g>
<g stroke-width="0.70" font-family="Times" font-size="15.00" font-weight="bold">
<path class="stroke" stroke-width="1"
	d="M60.00 448.00v-24.00"/>
<path class="stroke" stroke-width="1"
	d="M239.40 448.00v-24.00"/>
<path class="stroke" stroke-width="1"
	d="M393.50 448.00v-24.00"/>
<path class="stroke" stroke-width="1"
	d="M533.20 448.00v-24.00"/>
<path d="m10.00 448.00
	h681.60
	M10.00 442.00
	h681.60
	M10.00 436.00
	h681.60
	M10.00 430.00
	h681.60
	M10.00 424.00
	h681.60
	" class="stroke"/>
<use x="22.00" y="442.00" xlink:href="#tclef"/>
<use x="37.00" y="436.00" xlink:href="#ft0"/>
<use x="42.50" y="427.00" xlink:href="#ft0"/>
<use x="74.20" y="418.00" xlink:href="#hl"/>
<use x="74.20" y="415.00" xlink:href="#hd"/>
<path d="M70.70 415.00v21.00" class="stroke"/>
<use x="114.50" y="418.00" xlink:href="#hl"/>
<use x="114.50" y="415.00" xlink:href="#hd"/>
<path d="M111.00 415.00v21.00" class="stroke"/>
<use x="150.70" y="448.00" xlink:href="#hd"/>
<path d="M154.20 448.00v-21.00" class="stroke"/>
<use x="191.00" y="445.00" xlink:href="#hd"/>
<path d="M194.50 445.00v-21.00" class="stroke"/>
<path class="fill"
	d="M194.50 424.00c0.6 5.6 9.6 9 5.6 18.4
	1.6 -6 -1.3 -11.6 -5.6 -12.8
"/>
<use x="219.40" y="421.00" xlink:href="#hd"/>
<path d="M215.90 421.00v21.00" class="stroke"/>
<path class="fill"
	d="M215.90 442.00c0.6 -5.6 9.6 -9 5.6 -18.4
	1.6 6 -1.3 11.6 -5.6 12.8
"/>
<use x="253.60" y="433.00" xlink:href="#hd"/>
<path d="M250.10 433.00v21.00" class="stroke"/>
<path class="fill"
	d="M250.10 454.00c0.6 -5.6 9.6 -9 5.6 -18.4
	1.6 6 -1.3 11.6 -5.6 12.8
"/>
<use x="282.10" y="418.00" xlink:href="#hl"/>
<use x="282.10" y="418.00" xlink:href="#Hd"/>
<path d="M278.60 418.00v21.00" class="stroke"/>
<use x="333.40" y="442.00" xlink:href="#hd"/>
<path d="M336.90 442.00v-21.00" class="stroke"/>
<use x="373.60" y="421.00" xlink:href="#hd"/>
<path d="M370.10 421.00v21.00" class="stroke"/>
<path class="fill"
	d="M370.10 442.00c0.6 -5.6 9.6 -9 5.6 -18.4
	1.6 6 -1.3 11.6 -5.6 12.8
"/>
<use x="407.80" y="418.00" xlink:href="#hl"/>
<use x="407.80" y="418.00" xlink:href="#Hd"/>
<path d="M404.30 418.00v21.00" class="stroke"/>
<use x="464.70" y="424.00" xlink:href="#hd"/>
<path d="M461.20 424.00v21.00" class="stroke"/>
<defs>
<path id="r4" class="fill" d="m-1 -8.5
	l3.6 5.1 -2.1 5.2 2.2 4.3
	c-2.6 -2.3 -5.1 0 -2.4 2.6
	-4.8 -3 -1.5 -6.9 1.4 -4.1
	l-3.1 -4.5 1.9 -5.1 -1.5 -3.5"/>
</defs>
<use x="505.00" y="436.00" xlink:href="#r4"/>
<use x="551.70" y="427.00" xlink:href="#hd"/>
<use x="542.70" y="427.00" xlink:href="#ft0"/>
<path d="M548.20 427.00v21.00" class="stroke"/>
<path class="fill"
	d="M548.20 448.00c0.6 -5.6 9.6 -9 5.6 -18.4
	1.6 6 -1.3 11.6 -5.6 12.8
"/>
<use x="580.20" y="436.00" xlink:href="#Hd"/>
<path d="M576.70 436.00v21.00" class="stroke"/>
<use x="631.40" y="445.00" xlink:href="#hd"/>
<path d="M634.90 445.00v-21.00" class="stroke"/>
<use x="671.70" y="424.00" xlink:href="#hd"/>
<path d="M668.20 424.00v21.00" class="stroke"/>
<path class="fill"
	d="M668.20 445.00c0.6 -5.6 9.6 -9 5.6 -18.4
	1.6 6 -1.3 11.6 -5.6 12.8
"/>
</g>
<g stroke-width="0.70" font-family="Times" font-size="15.00" font-weight="bold">
<path class="stroke" stroke-width="1"
	d="M60.00 522.00v-24.00"/>
<path class="stroke" stroke-width="1"
	d="M190.80 522.00v-24.00"/>
<path class="stroke" stroke-width="1"
	d="M390.50 522.00v-24.00"/>
<path class="stroke" stroke-width="1"
	d="M505.00 522.00v-24.00"/>
<path class="stroke" stroke-width="3"
	d="M690.10 522.00v-24.00"/>
<path class="stroke" stroke-width="1"
	d="M685.60 522.00v-24.00"/>
<path d="m10.00 522.00
	h681.60
	M10.00 516.00
	h681.60
	M10.00 510.00
	h681.60
	M10.00 504.00
	h681.60
	M10.00 498.00
	h681.60
	" class="stroke"/>
<use x="22.00" y="516.00" xlink:href="#tclef"/>
<use x="37.00" y="510.00" xlink:href="#ft0"/>
<use x="42.50" y="501.00" xlink:href="#ft0"/>
<use x="79.70" y="507.00" xlink:href="#Hd"/>
<defs>
<path id="unat" class="fill" d="
	m96 -750
	h-32
	v716
	l32 -8
	182 -54
	v282
	h32
	v-706
	l-34 10
	-180 50
	v-290
	m0 592
	v-190
	l182 -52
	v188"/>
<use id="nt0" transform="translate(-3,5) scale(0.018)"
	xlink:href="#unat"/>
</defs>
<use x="69.70" y="507.00" xlink:href="#nt0"/>
<path d="M76.20 507.00v21.00" class="stroke"/>
<use x="145.10" y="495.00" xlink:href="#Hd"/>
<path d="M141.60 495.00v21.00" class="stroke"/>
<use x="207.10" y="507.00" xlink:href="#hd"/>
<path d="M203.60 507.00v21.00" class="stroke"/>
<path class="fill"
	d="M203.60 528.00c0.6 -5.6 9.6 -9 5.6 -18.4
	1.6 6 -1.3 11.6 -5.6 12.8
"/>
<use x="239.80" y="492.00" xlink:href="#hl"/>
<use x="239.80" y="492.00" xlink:href="#Hd"/>
<path d="M236.30 492.00v21.00" class="stroke"/>
<use x="305.10" y="492.00" xlink:href="#hl"/>
<use x="305.10" y="486.00" xlink:href="#hl"/>
<use x="305.10" y="480.00" xlink:href="#hl"/>
<use x="305.10" y="477.00" xlink:href="#hd"/>
<path d="M301.60 477.00v33.00" class="stroke"/>
<use x="351.30" y="498.00" xlink:href="#hd"/>
<defs>
<path id="usharp" class="fill" d="
	m136 -702
	v890
	h32
	v-890
	m128 840
	h32
	v-888
	h-32
	m-232 286
	v116
	l338 -96
	v-116
	m-338 442
	v116
	l338 -98
	v-114"/>
<use id="sh0" transform="translate(-4,5) scale(0.018)"
	xlink:href="#usharp"/>
</defs>
<use x="342.30" y="498.00" xlink:href="#sh0"/>
<path d="M347.80 498.00v23.00" class="stroke"/>
<path class="fill"
	d="M347.80 521.00c0.9 -3.7 9.1 -6.4 6 -12.4
	1 5.4 -4.2 8.4 -6 8.4
M347.80 515.60c0.9 -3.7 9.1 -6.4 6 -12.4
	1 5.4 -4.2 8.4 -6 8.4
"/>
<use x="374.30" y="495.00" xlink:href="#hd"/>
<path d="M370.80 495.00v23.00" class="stroke"/>
<path class="fill"
	d="M370.80 518.00c0.9 -3.7 9.1 -6.4 6 -12.4
	1 5.4 -4.2 8.4 -6 8.4
M370.80 512.60c0.9 -3.7 9.1 -6.4 6 -12.4
	1 5.4 -4.2 8.4 -6 8.4
"/>
<use x="406.80" y="528.00" xlink:href="#hl"/>
<use x="406.80" y="528.00" xlink:href="#hd"/>
<path d="M410.30 528.00v-21.00" class="stroke"/>
<use x="453.00" y="525.00" xlink:href="#Hd"/>
<circle class="fill" cx="461.70" cy="525.00" r="1.2"/>
<path d="M456.50 525.00v-21.00" class="stroke"/>
<use x="521.30" y="510.00" xlink:href="#Hd"/>
<path d="M524.80 510.00v-21.00" class="stroke"/>
<use x="586.70" y="495.00" xlink:href="#hd"/>
<path d="M583.20 495.00v21.00" class="stroke"/>
<use x="632.80" y="498.00" xlink:href="#hd"/>
<path d="M629.30 498.00v21.00" class="stroke"/>
<path class="fill"
	d="M629.30 519.00c0.6 -5.6 9.6 -9 5.6 -18.4
	1.6 6 -1.3 11.6 -5.6 12.8
"/>
<use x="665.50" y="507.00" xlink:href="#hd"/>
<use x="656.50" y="507.00" xlink:href="#nt0"/>
<path d="M662.00 507.00v21.00" class="stroke"/>
<path class="fill"
	d="M662.00 528.00c0.6 -5.6 9.6 -9 5.6 -18.4
	1.6 6 -1.3 11.6 -5.6 12.8
"/>
</g>
</svg>
