<?xml version="1.0" standalone="no"?>
<!DOCTYPE svg PUBLIC "-//W3C//DTD SVG 1.1//EN"
	"http://www.w3.org/Graphics/SVG/1.1/DTD/svg11.dtd">
<svg xmlns="http://www.w3.org/2000/svg" version="1.1"
	xmlns:xlink="http://www.w3.org/1999/xlink"
	xml:space='preserve' color="black"
	width="7.38in" height="3.67in" viewBox="0 0 531 264">
<title>generated_songs/violin_test_1.abc (1) tune 1</title>
<!-- Creator: abcm2ps-7.8.9 -->
<!-- CreationDate: Jan 29, 2019 13:56 -->
<!-- CommandLine: -g generated_songs/violin_test_1.abc -k 100000 -R -->
<g transform="scale(0.750)" stroke-width="0.70" font-family="Times" font-size="20.00">
<text x="354.13" y="21.67" text-anchor="middle">violin_test evolved</text>
<path stroke="currentColor" fill="none"
	d="M217.13 99.01v-24.00"/>
<path stroke="currentColor" fill="none"
	d="M337.43 99.01v-24.00"/>
<path stroke="currentColor" fill="none"
	d="M457.63 99.01v-24.00"/>
<path stroke="currentColor" fill="none"
	d="M577.93 99.01v-24.00"/>
<path stroke="currentColor" fill="none"
	d="M13.33 99.01h681.60m-681.60 -6h681.60m-681.60 -6h681.60m-681.60 -6h681.60m-681.60 -6h681.60"/>
</g>
<g transform="scale(0.750)" stroke-width="0.70" font-family="Helvetica" font-size="12.00">
<text x="107.33" y="62.61">B</text>
<text x="227.63" y="62.61">B</text>
<text x="347.83" y="62.61">B</text>
<text x="468.13" y="62.61">B</text>
<text x="588.43" y="62.61">B</text>
<defs>
<path id="utclef" fill="currentColor" d="m-50 -90
	c-72 -41 -72 -158 52 -188
	c150 -10 220 188 90 256
	c-114 52 -275 0 -293 -136
	c-15 -181 93 -229 220 -334
	c88 -87 79 -133 62 -210
	c-51 33 -94 105 -89 186
	c17 267 36 374 49 574
	c6 96 -19 134 -77 135
	c-80 1 -126 -93 -61 -133
	c85 -41 133 101 31 105
	c23 17 92 37 90 -92
	c-10 -223 -39 -342 -50 -617
	c0 -90 0 -162 96 -232
	c56 72 63 230 22 289
	c-74 106 -257 168 -255 316
	c9 153 148 185 252 133
	c86 -65 29 -192 -80 -176
	c-71 12 -105 67 -59 124"/>
<use id="tclef" transform="scale(0.045)"
	xlink:href="#utclef"/>
</defs>
<use x="25.33" y="99.01" xlink:href="#tclef"/>
<defs>
<path id="usharp" fill="currentColor" d="
	m136 -702
	v890
	h32
	v-890
	m128 840
	h32
	v-888
	h-32
	m-232 286
	v116
	l338 -96
	v-116
	m-338 442
	v116
	l338 -98
	v-114"/>
<use id="sh0" transform="translate(-4,5) scale(0.018)"
	xlink:href="#usharp"/>
</defs>
<use x="40.33" y="75.01" xlink:href="#sh0"/>
<use x="45.83" y="84.01" xlink:href="#sh0"/>
<use x="51.33" y="72.01" xlink:href="#sh0"/>
<use x="56.83" y="81.01" xlink:href="#sh0"/>
<use x="62.33" y="90.01" xlink:href="#sh0"/>
<g font-family="serif" font-size="16" font-weight="bold" font-style="normal"
	transform="translate(84.83,99.01) scale(1.2,1)">
	<text y="-1" text-anchor="middle">4</text>
	<text y="-13" text-anchor="middle">11</text>
</g>
<defs>
<path id="HD" fill="currentColor" d="m-2.7 -1.4
	c1.5 -2.8 6.9 0 5.3 2.7
	c-1.5 2.8 -6.9 0 -5.3 -2.7
	m8.3 1.4
	c0 -1.5 -2.2 -3 -5.6 -3
	c-3.4 0 -5.6 1.5 -5.6 3
	c0 1.5 2.2 3 5.6 3
	c3.4 0 5.6 -1.5 5.6 -3"/>
</defs>
<use x="111.83" y="87.01" xlink:href="#HD"/>
<circle fill="currentColor" cx="123.83" cy="84.01" r="1.2"/>
<circle fill="currentColor" cx="127.33" cy="84.01" r="1.2"/>
<circle fill="currentColor" cx="130.83" cy="84.01" r="1.2"/>
<defs>
<path id="Hd" fill="currentColor" d="m3 -1.6
	c-1 -1.8 -7 1.4 -6 3.2
	c1 1.8 7 -1.4 6 -3.2
	m0.5 -0.3
	c2 3.8 -5 7.6 -7 3.8
	c-2 -3.8 5 -7.6 7 -3.8"/>
</defs>
<use x="156.33" y="87.01" xlink:href="#Hd"/>
<path d="M152.83 87.01v20.00" stroke="currentColor" fill="none"/>
<use x="186.03" y="87.01" xlink:href="#HD"/>
<use x="232.13" y="87.01" xlink:href="#HD"/>
<circle fill="currentColor" cx="242.13" cy="84.01" r="1.2"/>
<circle fill="currentColor" cx="245.63" cy="84.01" r="1.2"/>
<circle fill="currentColor" cx="249.13" cy="84.01" r="1.2"/>
<use x="276.63" y="87.01" xlink:href="#Hd"/>
<path d="M273.13 87.01v20.00" stroke="currentColor" fill="none"/>
<use x="306.23" y="87.01" xlink:href="#HD"/>
<use x="352.43" y="87.01" xlink:href="#HD"/>
<circle fill="currentColor" cx="362.43" cy="84.01" r="1.2"/>
<circle fill="currentColor" cx="365.93" cy="84.01" r="1.2"/>
<circle fill="currentColor" cx="369.43" cy="84.01" r="1.2"/>
<use x="396.93" y="87.01" xlink:href="#Hd"/>
<path d="M393.43 87.01v20.00" stroke="currentColor" fill="none"/>
<use x="426.53" y="87.01" xlink:href="#HD"/>
<use x="472.63" y="87.01" xlink:href="#HD"/>
<circle fill="currentColor" cx="482.63" cy="84.01" r="1.2"/>
<circle fill="currentColor" cx="486.13" cy="84.01" r="1.2"/>
<circle fill="currentColor" cx="489.63" cy="84.01" r="1.2"/>
<use x="517.23" y="87.01" xlink:href="#Hd"/>
<path d="M513.73 87.01v20.00" stroke="currentColor" fill="none"/>
<use x="546.83" y="87.01" xlink:href="#HD"/>
<use x="592.93" y="87.01" xlink:href="#HD"/>
<circle fill="currentColor" cx="602.93" cy="84.01" r="1.2"/>
<circle fill="currentColor" cx="606.43" cy="84.01" r="1.2"/>
<circle fill="currentColor" cx="609.93" cy="84.01" r="1.2"/>
<use x="637.43" y="87.01" xlink:href="#Hd"/>
<path d="M633.93 87.01v20.00" stroke="currentColor" fill="none"/>
<use x="667.13" y="87.01" xlink:href="#HD"/>
<path stroke="currentColor" fill="none"
	d="M76.83 170.01v-24.00"/>
<path stroke="currentColor" fill="none"
	d="M202.23 170.01v-24.00"/>
<path stroke="currentColor" fill="none"
	d="M327.63 170.01v-24.00"/>
<path stroke="currentColor" fill="none"
	d="M450.63 170.01v-24.00"/>
<path stroke="currentColor" fill="none"
	d="M573.03 170.01v-24.00"/>
<path stroke="currentColor" fill="none"
	d="M13.33 170.01h681.60m-681.60 -6h681.60m-681.60 -6h681.60m-681.60 -6h681.60m-681.60 -6h681.60"/>
<text x="87.33" y="133.61">B</text>
<text x="212.73" y="133.61">B</text>
<text x="338.13" y="133.61">B</text>
<text x="461.13" y="133.61">B</text>
<text x="583.53" y="133.61">B</text>
<use x="25.33" y="170.01" xlink:href="#tclef"/>
<use x="40.33" y="146.01" xlink:href="#sh0"/>
<use x="45.83" y="155.01" xlink:href="#sh0"/>
<use x="51.33" y="143.01" xlink:href="#sh0"/>
<use x="56.83" y="152.01" xlink:href="#sh0"/>
<use x="62.33" y="161.01" xlink:href="#sh0"/>
<use x="91.83" y="158.01" xlink:href="#HD"/>
<circle fill="currentColor" cx="101.83" cy="155.01" r="1.2"/>
<circle fill="currentColor" cx="105.33" cy="155.01" r="1.2"/>
<circle fill="currentColor" cx="108.83" cy="155.01" r="1.2"/>
<use x="138.33" y="158.01" xlink:href="#Hd"/>
<path d="M134.83 158.01v20.00" stroke="currentColor" fill="none"/>
<use x="169.43" y="158.01" xlink:href="#HD"/>
<use x="217.23" y="149.01" xlink:href="#HD"/>
<circle fill="currentColor" cx="227.23" cy="149.01" r="1.2"/>
<circle fill="currentColor" cx="230.73" cy="149.01" r="1.2"/>
<circle fill="currentColor" cx="234.23" cy="149.01" r="1.2"/>
<use x="263.73" y="158.01" xlink:href="#Hd"/>
<path d="M260.23 158.01v20.00" stroke="currentColor" fill="none"/>
<use x="294.83" y="158.01" xlink:href="#HD"/>
<use x="342.63" y="164.01" xlink:href="#HD"/>
<circle fill="currentColor" cx="352.63" cy="161.01" r="1.2"/>
<use x="391.73" y="158.01" xlink:href="#Hd"/>
<use x="381.73" y="158.01" xlink:href="#sh0"/>
<path d="M395.23 158.01v-20.00" stroke="currentColor" fill="none"/>
<defs>
<path id="hl" stroke="currentColor" d="m-6 0h12"/>
</defs>
<use x="422.03" y="140.01" xlink:href="#hl"/>
<use x="422.03" y="140.01" xlink:href="#Hd"/>
<circle fill="currentColor" cx="431.03" cy="137.01" r="1.2"/>
<path d="M418.53 140.01v20.00" stroke="currentColor" fill="none"/>
<use x="465.63" y="167.01" xlink:href="#HD"/>
<circle fill="currentColor" cx="475.63" cy="167.01" r="1.2"/>
<circle fill="currentColor" cx="479.13" cy="167.01" r="1.2"/>
<circle fill="currentColor" cx="482.63" cy="167.01" r="1.2"/>
<defs>
<ellipse id="hd" rx="4.1" ry="2.9"
	transform="rotate(-20)" fill="currentColor"/>
</defs>
<use x="512.53" y="158.01" xlink:href="#hd"/>
<path d="M509.03 158.01v20.00" stroke="currentColor" fill="none"/>
<use x="535.23" y="158.01" xlink:href="#HD"/>
<circle fill="currentColor" cx="545.23" cy="155.01" r="1.2"/>
<circle fill="currentColor" cx="548.73" cy="155.01" r="1.2"/>
<circle fill="currentColor" cx="552.23" cy="155.01" r="1.2"/>
<use x="588.03" y="158.01" xlink:href="#HD"/>
<circle fill="currentColor" cx="598.03" cy="155.01" r="1.2"/>
<circle fill="currentColor" cx="601.53" cy="155.01" r="1.2"/>
<circle fill="currentColor" cx="605.03" cy="155.01" r="1.2"/>
<use x="634.63" y="158.01" xlink:href="#Hd"/>
<path d="M631.13 158.01v20.00" stroke="currentColor" fill="none"/>
<use x="665.63" y="158.01" xlink:href="#HD"/>
<path stroke="currentColor" fill="none"
	d="M76.83 241.01v-24.00"/>
<path stroke="currentColor" fill="none"
	d="M202.83 241.01v-24.00"/>
<path stroke="currentColor" fill="none"
	d="M319.43 241.01v-24.00"/>
<path stroke="currentColor" fill="none"
	d="M440.83 241.01v-24.00"/>
<path stroke="currentColor" fill="none"
	d="M565.53 241.01v-24.00"/>
<path stroke="currentColor" fill="none"
	d="M13.33 241.01h681.60m-681.60 -6h681.60m-681.60 -6h681.60m-681.60 -6h681.60m-681.60 -6h681.60"/>
<text x="87.33" y="204.61">B</text>
<text x="211.73" y="204.61">B</text>
<text x="329.93" y="204.61">B</text>
<text x="451.33" y="204.61">B</text>
<text x="583.53" y="204.61">B</text>
<use x="25.33" y="241.01" xlink:href="#tclef"/>
<use x="40.33" y="217.01" xlink:href="#sh0"/>
<use x="45.83" y="226.01" xlink:href="#sh0"/>
<use x="51.33" y="214.01" xlink:href="#sh0"/>
<use x="56.83" y="223.01" xlink:href="#sh0"/>
<use x="62.33" y="232.01" xlink:href="#sh0"/>
<use x="91.83" y="229.01" xlink:href="#HD"/>
<circle fill="currentColor" cx="101.83" cy="226.01" r="1.2"/>
<circle fill="currentColor" cx="105.33" cy="226.01" r="1.2"/>
<circle fill="currentColor" cx="108.83" cy="226.01" r="1.2"/>
<use x="138.83" y="229.01" xlink:href="#HD"/>
<use x="178.93" y="211.01" xlink:href="#hl"/>
<use x="178.93" y="208.01" xlink:href="#Hd"/>
<path d="M175.43 208.01v21.00" stroke="currentColor" fill="none"/>
<use x="215.33" y="229.01" xlink:href="#hd"/>
<path d="M211.83 229.01v20.00" stroke="currentColor" fill="none"/>
<defs>
<g id="HDD">
	<use xlink:href="#HD"/>
	<path d="m-6 -4v8m12 0v-8" stroke="currentColor" fill="none"/>
</g>
</defs>
<use x="237.63" y="229.01" xlink:href="#HDD"/>
<use x="295.53" y="220.01" xlink:href="#Hd"/>
<defs>
<path id="unat" fill="currentColor" d="
	m96 -750
	h-32
	v716
	l32 -8
	l182 -54
	v282
	h32
	v-706
	l-34 10
	l-180 50
	v-290
	m0 592
	v-190
	l182 -52
	v188"/>
<use id="nt0" transform="translate(-3,5) scale(0.018)"
	xlink:href="#unat"/>
</defs>
<use x="285.53" y="220.01" xlink:href="#nt0"/>
<path d="M292.03 220.01v20.00" stroke="currentColor" fill="none"/>
<use x="334.43" y="235.01" xlink:href="#HD"/>
<circle fill="currentColor" cx="344.43" cy="232.01" r="1.2"/>
<use x="382.83" y="229.01" xlink:href="#Hd"/>
<use x="372.83" y="229.01" xlink:href="#sh0"/>
<path d="M386.33 229.01v-20.00" stroke="currentColor" fill="none"/>
<use x="412.53" y="211.01" xlink:href="#hl"/>
<use x="412.53" y="211.01" xlink:href="#Hd"/>
<circle fill="currentColor" cx="421.53" cy="208.01" r="1.2"/>
<path d="M409.03 211.01v20.00" stroke="currentColor" fill="none"/>
<use x="455.83" y="229.01" xlink:href="#HD"/>
<use x="497.53" y="226.01" xlink:href="#Hd"/>
<circle fill="currentColor" cx="506.53" cy="226.01" r="1.2"/>
<use x="487.53" y="226.01" xlink:href="#sh0"/>
<path d="M494.03 226.01v20.00" stroke="currentColor" fill="none"/>
<use x="533.23" y="214.01" xlink:href="#HD"/>
<use x="588.03" y="229.01" xlink:href="#HD"/>
<circle fill="currentColor" cx="598.03" cy="226.01" r="1.2"/>
<circle fill="currentColor" cx="601.53" cy="226.01" r="1.2"/>
<circle fill="currentColor" cx="605.03" cy="226.01" r="1.2"/>
<use x="576.03" y="229.01" xlink:href="#nt0"/>
<use x="633.83" y="229.01" xlink:href="#Hd"/>
<path d="M630.33 229.01v20.00" stroke="currentColor" fill="none"/>
<use x="666.13" y="241.01" xlink:href="#HD"/>
<defs>
<path id="uflat" fill="currentColor" d="
	m100 -746
	h32
	v734
	l-32 4
	m32 -332
	c46 -72 152 -90 208 -20
	c100 110 -120 326 -208 348
	m0 -28
	c54 0 200 -206 130 -290
	c-50 -60 -130 -4 -130 34"/>
<use id="ft0" transform="translate(-3.5,3.5) scale(0.018)"
	xlink:href="#uflat"/>
</defs>
<use x="654.13" y="241.01" xlink:href="#ft0"/>
<path stroke="currentColor" fill="none"
	d="M76.83 329.01v-24.00"/>
<path stroke="currentColor" fill="none"
	d="M170.83 329.01v-24.00"/>
<path stroke="currentColor" fill="none"
	d="M313.03 329.01v-24.00"/>
<path stroke="currentColor" fill="none"
	d="M407.23 329.01v-24.00"/>
<path stroke="currentColor" fill="none"
	d="M543.73 329.01v-24.00"/>
<path stroke="currentColor" fill="none" stroke-width="3"
	d="M693.43 329.01v-24.00"/>
<path stroke="currentColor" fill="none"
	d="M688.93 329.01v-24.00"/>
<path stroke="currentColor" fill="none"
	d="M13.33 329.01h681.60m-681.60 -6h681.60m-681.60 -6h681.60m-681.60 -6h681.60m-681.60 -6h681.60"/>
<text x="87.33" y="275.61">B</text>
<text x="186.03" y="275.61">E</text>
<text x="323.73" y="275.61">E</text>
<text x="416.73" y="275.61">B</text>
<text x="553.23" y="275.61">B</text>
<use x="25.33" y="329.01" xlink:href="#tclef"/>
<use x="40.33" y="305.01" xlink:href="#sh0"/>
<use x="45.83" y="314.01" xlink:href="#sh0"/>
<use x="51.33" y="302.01" xlink:href="#sh0"/>
<use x="56.83" y="311.01" xlink:href="#sh0"/>
<use x="62.33" y="320.01" xlink:href="#sh0"/>
<defs>
<path id="hl1" stroke="currentColor" d="m-7 0h14"/>
</defs>
<use x="91.83" y="299.01" xlink:href="#hl1"/>
<use x="91.83" y="293.01" xlink:href="#hl1"/>
<use x="91.83" y="287.01" xlink:href="#hl1"/>
<use x="91.83" y="287.01" xlink:href="#HD"/>
<circle fill="currentColor" cx="101.83" cy="284.01" r="1.2"/>
<circle fill="currentColor" cx="105.33" cy="284.01" r="1.2"/>
<circle fill="currentColor" cx="108.83" cy="284.01" r="1.2"/>
<use x="127.33" y="314.01" xlink:href="#HD"/>
<use x="153.83" y="299.01" xlink:href="#hl"/>
<use x="153.83" y="296.01" xlink:href="#Hd"/>
<path d="M150.33 296.01v21.00" stroke="currentColor" fill="none"/>
<use x="189.33" y="299.01" xlink:href="#hl"/>
<use x="189.33" y="296.01" xlink:href="#hd"/>
<use x="180.33" y="296.01" xlink:href="#nt0"/>
<path d="M185.83 296.01v21.00" stroke="currentColor" fill="none"/>
<use x="204.93" y="299.01" xlink:href="#hl"/>
<use x="204.93" y="296.01" xlink:href="#Hd"/>
<path d="M201.43 296.01v21.00" stroke="currentColor" fill="none"/>
<use x="225.63" y="299.01" xlink:href="#hl"/>
<use x="225.63" y="296.01" xlink:href="#hd"/>
<path d="M222.13 296.01v21.00" stroke="currentColor" fill="none"/>
<use x="240.73" y="305.01" xlink:href="#hd"/>
<path d="M237.23 305.01v20.00" stroke="currentColor" fill="none"/>
<use x="262.73" y="308.01" xlink:href="#HD"/>
<circle fill="currentColor" cx="272.73" cy="308.01" r="1.2"/>
<circle fill="currentColor" cx="276.23" cy="308.01" r="1.2"/>
<circle fill="currentColor" cx="279.73" cy="308.01" r="1.2"/>
<use x="250.73" y="308.01" xlink:href="#ft0"/>
<use x="300.03" y="326.01" xlink:href="#hd"/>
<use x="291.03" y="326.01" xlink:href="#sh0"/>
<path d="M303.53 326.01v-20.00" stroke="currentColor" fill="none"/>
<use x="328.03" y="323.01" xlink:href="#HD"/>
<circle fill="currentColor" cx="338.03" cy="320.01" r="1.2"/>
<use x="364.33" y="317.01" xlink:href="#Hd"/>
<use x="354.33" y="317.01" xlink:href="#sh0"/>
<path d="M367.83 317.01v-20.00" stroke="currentColor" fill="none"/>
<use x="385.43" y="299.01" xlink:href="#hl"/>
<use x="385.43" y="299.01" xlink:href="#Hd"/>
<circle fill="currentColor" cx="394.43" cy="296.01" r="1.2"/>
<path d="M381.93 299.01v20.00" stroke="currentColor" fill="none"/>
<defs>
<rect id="r2" fill="currentColor"
	x="-3.5" y="-3" width="7" height="3"/>
</defs>
<use x="420.23" y="317.01" xlink:href="#r2"/>
<circle fill="currentColor" cx="428.23" cy="314.01" r="1.2"/>
<use x="445.73" y="305.01" xlink:href="#hd"/>
<path d="M442.23 305.01v20.00" stroke="currentColor" fill="none"/>
<defs>
<path id="r4" fill="currentColor" d="m-1 -8.5
	l3.6 5.1 -2.1 5.2 2.2 4.3
	c-2.6 -2.3 -5.1 0 -2.4 2.6
	c-4.8 -3 -1.5 -6.9 1.4 -4.1
	l-3.1 -4.5 1.9 -5.1 -1.5 -3.5"/>
</defs>
<use x="460.73" y="317.01" xlink:href="#r4"/>
<use x="479.73" y="305.01" xlink:href="#Hd"/>
<circle fill="currentColor" cx="488.73" cy="302.01" r="1.2"/>
<use x="469.73" y="305.01" xlink:href="#sh0"/>
<path d="M476.23 305.01v20.00" stroke="currentColor" fill="none"/>
<use x="507.23" y="323.01" xlink:href="#Hd"/>
<use x="497.23" y="323.01" xlink:href="#sh0"/>
<path d="M510.73 323.01v-20.00" stroke="currentColor" fill="none"/>
<use x="530.83" y="329.01" xlink:href="#hd"/>
<use x="521.83" y="329.01" xlink:href="#nt0"/>
<path d="M534.33 329.01v-20.00" stroke="currentColor" fill="none"/>
<use x="556.73" y="317.01" xlink:href="#Hd"/>
<circle fill="currentColor" cx="565.73" cy="314.01" r="1.2"/>
<path d="M553.23 317.01v20.00" stroke="currentColor" fill="none"/>
<use x="582.33" y="311.01" xlink:href="#Hd"/>
<path d="M578.83 311.01v20.00" stroke="currentColor" fill="none"/>
<use x="605.83" y="299.01" xlink:href="#hl"/>
<use x="605.83" y="296.01" xlink:href="#hd"/>
<use x="596.83" y="296.01" xlink:href="#nt0"/>
<path d="M602.33 296.01v21.00" stroke="currentColor" fill="none"/>
<use x="619.83" y="323.01" xlink:href="#hd"/>
<path d="M623.33 323.01v-20.00" stroke="currentColor" fill="none"/>
<use x="635.03" y="317.01" xlink:href="#Hd"/>
<circle fill="currentColor" cx="644.03" cy="314.01" r="1.2"/>
<path d="M638.53 317.01v-20.00" stroke="currentColor" fill="none"/>
<use x="661.43" y="299.01" xlink:href="#hl"/>
<use x="661.43" y="296.01" xlink:href="#hd"/>
<path d="M657.93 296.01v21.00" stroke="currentColor" fill="none"/>
<path fill="currentColor"
	d="M657.93 317.01c0.6 -5.6 9.6 -9 5.6 -18.4
	c1.6 6 -1.3 11.6 -5.6 12.8
"/>
<use x="679.43" y="302.01" xlink:href="#hd"/>
<use x="670.43" y="302.01" xlink:href="#ft0"/>
<path d="M675.93 302.01v20.00" stroke="currentColor" fill="none"/>
<path fill="currentColor"
	d="M675.93 322.01c0.6 -5.6 9.6 -9 5.6 -18.4
	c1.6 6 -1.3 11.6 -5.6 12.8
"/>
</g>
</svg>
