<?xml version="1.0" standalone="no"?>
<!DOCTYPE svg PUBLIC "-//W3C//DTD SVG 1.1//EN"
	"http://www.w3.org/Graphics/SVG/1.1/DTD/svg11.dtd">
<svg xmlns="http://www.w3.org/2000/svg" version="1.1"
	xmlns:xlink="http://www.w3.org/1999/xlink"
	xml:space='preserve' color="black"
	width="7.38in" height="1.30in" viewBox="0 0 531 94">
<title>song.abc (1) tune 1</title>
<!-- Creator: abcm2ps-7.8.9 -->
<!-- CreationDate: Jul 20, 2018 15:48 -->
<!-- CommandLine: -g song.abc -->
<g transform="scale(0.750)" stroke-width="0.70" font-family="Times" font-size="20.00">
<text x="354.13" y="21.67" text-anchor="middle">Test</text>
<path stroke="currentColor" fill="none"
	d="M103.63 102.01v-24.00"/>
<path stroke="currentColor" fill="none"
	d="M166.53 102.01v-24.00"/>
<path stroke="currentColor" fill="none"
	d="M272.43 102.01v-24.00"/>
<path stroke="currentColor" fill="none"
	d="M326.93 102.01v-24.00"/>
<path stroke="currentColor" fill="none"
	d="M359.13 102.01v-24.00"/>
<path stroke="currentColor" fill="none"
	d="M429.73 102.01v-24.00"/>
<path stroke="currentColor" fill="none"
	d="M508.13 102.01v-24.00"/>
<path stroke="currentColor" fill="none"
	d="M562.83 102.01v-24.00"/>
<path stroke="currentColor" fill="none"
	d="M608.63 102.01v-24.00"/>
<path stroke="currentColor" fill="none" stroke-width="3"
	d="M693.43 102.01v-24.00"/>
<path stroke="currentColor" fill="none"
	d="M688.93 102.01v-24.00"/>
<path stroke="currentColor" fill="none"
	d="M13.33 102.01h681.60m-681.60 -6h681.60m-681.60 -6h681.60m-681.60 -6h681.60m-681.60 -6h681.60"/>
</g>
<g transform="scale(0.750)" stroke-width="0.70" font-family="Helvetica" font-size="12.00">
<text x="58.33" y="62.61">C</text>
<text x="112.53" y="62.61">C</text>
<text x="176.03" y="62.61">C</text>
<text x="281.33" y="62.61">C</text>
<text x="337.43" y="62.61">C</text>
<text x="369.23" y="62.61">F</text>
<text x="438.93" y="62.61">G</text>
<text x="513.73" y="62.61">Em</text>
<text x="572.43" y="62.61">F</text>
<text x="613.73" y="62.61">Dm</text>
<defs>
<path id="utclef" fill="currentColor" d="m-50 -90
	c-72 -41 -72 -158 52 -188
	c150 -10 220 188 90 256
	c-114 52 -275 0 -293 -136
	c-15 -181 93 -229 220 -334
	c88 -87 79 -133 62 -210
	c-51 33 -94 105 -89 186
	c17 267 36 374 49 574
	c6 96 -19 134 -77 135
	c-80 1 -126 -93 -61 -133
	c85 -41 133 101 31 105
	c23 17 92 37 90 -92
	c-10 -223 -39 -342 -50 -617
	c0 -90 0 -162 96 -232
	c56 72 63 230 22 289
	c-74 106 -257 168 -255 316
	c9 153 148 185 252 133
	c86 -65 29 -192 -80 -176
	c-71 12 -105 67 -59 124"/>
<use id="tclef" transform="scale(0.045)"
	xlink:href="#utclef"/>
</defs>
<use x="25.33" y="102.01" xlink:href="#tclef"/>
<g font-family="serif" font-size="16" font-weight="bold" font-style="normal"
	transform="translate(43.83,102.01) scale(1.2,1)">
	<text y="-1" text-anchor="middle">4</text>
	<text y="-13" text-anchor="middle">4</text>
</g>
<defs>
<ellipse id="hd" rx="4.1" ry="2.9"
	transform="rotate(-20)" fill="currentColor"/>
</defs>
<use x="61.83" y="102.01" xlink:href="#hd"/>
<path d="M65.33 102.01v-20.00" stroke="currentColor" fill="none"/>
<defs>
<path id="Hd" fill="currentColor" d="m3 -1.6
	c-1 -1.8 -7 1.4 -6 3.2
	c1 1.8 7 -1.4 6 -3.2
	m0.5 -0.3
	c2 3.8 -5 7.6 -7 3.8
	c-2 -3.8 5 -7.6 7 -3.8"/>
</defs>
<use x="76.03" y="81.01" xlink:href="#Hd"/>
<path d="M72.53 81.01v20.00" stroke="currentColor" fill="none"/>
<defs>
<path id="r4" fill="currentColor" d="m-1 -8.5
	l3.6 5.1 -2.1 5.2 2.2 4.3
	c-2.6 -2.3 -5.1 0 -2.4 2.6
	c-4.8 -3 -1.5 -6.9 1.4 -4.1
	l-3.1 -4.5 1.9 -5.1 -1.5 -3.5"/>
</defs>
<use x="92.03" y="90.01" xlink:href="#r4"/>
<use x="116.13" y="87.01" xlink:href="#hd"/>
<path d="M112.63 87.01v20.00" stroke="currentColor" fill="none"/>
<use x="128.73" y="90.01" xlink:href="#hd"/>
<path d="M125.23 90.01v20.00" stroke="currentColor" fill="none"/>
<use x="140.73" y="96.01" xlink:href="#hd"/>
<path d="M144.23 96.01v-20.00" stroke="currentColor" fill="none"/>
<use x="154.93" y="81.01" xlink:href="#hd"/>
<path d="M151.43 81.01v20.00" stroke="currentColor" fill="none"/>
<defs>
<path id="hl" stroke="currentColor" d="m-6 0h12"/>
</defs>
<use x="179.53" y="108.01" xlink:href="#hl"/>
<use x="179.53" y="108.01" xlink:href="#Hd"/>
<path d="M183.03 108.01v-20.00" stroke="currentColor" fill="none"/>
<use x="196.43" y="108.01" xlink:href="#hl"/>
<use x="196.43" y="108.01" xlink:href="#hd"/>
<path d="M199.93 108.01v-21.00" stroke="currentColor" fill="none"/>
<path fill="currentColor"
	d="M199.93 87.01c0.9 3.7 9.1 6.4 6 12.4
	c1 -5.4 -4.2 -8.4 -6 -8.4
M199.93 92.41c0.9 3.7 9.1 6.4 6 12.4
	c1 -5.4 -4.2 -8.4 -6 -8.4
"/>
<use x="215.43" y="81.01" xlink:href="#hd"/>
<path d="M211.93 81.01v20.00" stroke="currentColor" fill="none"/>
<use x="227.43" y="96.01" xlink:href="#hd"/>
<path d="M230.93 96.01v-21.00" stroke="currentColor" fill="none"/>
<path fill="currentColor"
	d="M230.93 75.01c0.9 3.7 9.1 6.4 6 12.4
	c1 -5.4 -4.2 -8.4 -6 -8.4
M230.93 80.41c0.9 3.7 9.1 6.4 6 12.4
	c1 -5.4 -4.2 -8.4 -6 -8.4
"/>
<use x="243.93" y="108.01" xlink:href="#hl"/>
<use x="243.93" y="108.01" xlink:href="#hd"/>
<path d="M247.43 108.01v-21.00" stroke="currentColor" fill="none"/>
<path fill="currentColor"
	d="M247.43 87.01c0.9 3.7 9.1 6.4 6 12.4
	c1 -5.4 -4.2 -8.4 -6 -8.4
M247.43 92.41c0.9 3.7 9.1 6.4 6 12.4
	c1 -5.4 -4.2 -8.4 -6 -8.4
"/>
<use x="262.93" y="72.01" xlink:href="#hl"/>
<use x="262.93" y="69.01" xlink:href="#hd"/>
<path d="M259.43 69.01v22.00" stroke="currentColor" fill="none"/>
<path fill="currentColor"
	d="M259.43 91.01c0.9 -3.7 9.1 -6.4 6 -12.4
	c1 5.4 -4.2 8.4 -6 8.4
M259.43 85.61c0.9 -3.7 9.1 -6.4 6 -12.4
	c1 5.4 -4.2 8.4 -6 8.4
"/>
<use x="284.93" y="93.01" xlink:href="#hd"/>
<path d="M288.43 93.01v-20.00" stroke="currentColor" fill="none"/>
<use x="297.93" y="108.01" xlink:href="#hl"/>
<use x="297.93" y="108.01" xlink:href="#Hd"/>
<path d="M301.43 108.01v-20.00" stroke="currentColor" fill="none"/>
<use x="315.43" y="75.01" xlink:href="#hd"/>
<path d="M311.93 75.01v20.00" stroke="currentColor" fill="none"/>
<defs>
<path id="HD" fill="currentColor" d="m-2.7 -1.4
	c1.5 -2.8 6.9 0 5.3 2.7
	c-1.5 2.8 -6.9 0 -5.3 -2.7
	m8.3 1.4
	c0 -1.5 -2.2 -3 -5.6 -3
	c-3.4 0 -5.6 1.5 -5.6 3
	c0 1.5 2.2 3 5.6 3
	c3.4 0 5.6 -1.5 5.6 -3"/>
</defs>
<use x="341.93" y="96.01" xlink:href="#HD"/>
<use x="372.13" y="99.01" xlink:href="#Hd"/>
<path d="M375.63 99.01v-20.00" stroke="currentColor" fill="none"/>
<use x="388.13" y="93.01" xlink:href="#hd"/>
<path d="M391.63 93.01v-20.00" stroke="currentColor" fill="none"/>
<use x="400.83" y="99.01" xlink:href="#hd"/>
<path d="M404.33 99.01v-20.00" stroke="currentColor" fill="none"/>
<path fill="currentColor"
	d="	M404.33 79.01c0.6 5.6 9.6 9 5.6 18.4
	c1.6 -6 -1.3 -11.6 -5.6 -12.8
"/>
<use x="419.83" y="78.01" xlink:href="#hd"/>
<path d="M416.33 78.01v20.00" stroke="currentColor" fill="none"/>
<path fill="currentColor"
	d="M416.33 98.01c0.6 -5.6 9.6 -9 5.6 -18.4
	c1.6 6 -1.3 11.6 -5.6 12.8
"/>
<use x="442.73" y="75.01" xlink:href="#Hd"/>
<path d="M439.23 75.01v20.00" stroke="currentColor" fill="none"/>
<use x="457.63" y="108.01" xlink:href="#hl"/>
<use x="457.63" y="108.01" xlink:href="#hd"/>
<path d="M461.13 108.01v-20.00" stroke="currentColor" fill="none"/>
<use x="471.93" y="81.01" xlink:href="#hd"/>
<path d="M468.43 81.01v22.00" stroke="currentColor" fill="none"/>
<path fill="currentColor"
	d="M468.43 103.01c0.9 -3.7 9.1 -6.4 6 -12.4
	c1 5.4 -4.2 8.4 -6 8.4
M468.43 97.61c0.9 -3.7 9.1 -6.4 6 -12.4
	c1 5.4 -4.2 8.4 -6 8.4
"/>
<use x="481.03" y="84.01" xlink:href="#hd"/>
<path d="M477.53 84.01v20.00" stroke="currentColor" fill="none"/>
<path fill="currentColor"
	d="M477.53 104.01c0.6 -5.6 9.6 -9 5.6 -18.4
	c1.6 6 -1.3 11.6 -5.6 12.8
"/>
<use x="491.13" y="99.01" xlink:href="#hd"/>
<path d="M494.63 99.01v-21.00" stroke="currentColor" fill="none"/>
<path fill="currentColor"
	d="M494.63 78.01c0.9 3.7 9.1 6.4 6 12.4
	c1 -5.4 -4.2 -8.4 -6 -8.4
M494.63 83.41c0.9 3.7 9.1 6.4 6 12.4
	c1 -5.4 -4.2 -8.4 -6 -8.4
"/>
<use x="521.13" y="108.01" xlink:href="#hl"/>
<use x="521.13" y="114.01" xlink:href="#hl"/>
<use x="521.13" y="114.01" xlink:href="#Hd"/>
<path d="M524.63 114.01v-24.00" stroke="currentColor" fill="none"/>
<use x="538.63" y="81.01" xlink:href="#hd"/>
<path d="M535.13 81.01v20.00" stroke="currentColor" fill="none"/>
<use x="551.33" y="72.01" xlink:href="#hl"/>
<use x="551.33" y="69.01" xlink:href="#hd"/>
<path d="M547.83 69.01v21.00" stroke="currentColor" fill="none"/>
<use x="575.33" y="99.01" xlink:href="#hd"/>
<path d="M578.83 99.01v-20.00" stroke="currentColor" fill="none"/>
<use x="588.33" y="93.01" xlink:href="#Hd"/>
<circle fill="currentColor" cx="597.33" cy="93.01" r="1.2"/>
<path d="M591.83 93.01v-20.00" stroke="currentColor" fill="none"/>
<use x="621.63" y="102.01" xlink:href="#Hd"/>
<circle fill="currentColor" cx="630.63" cy="99.01" r="1.2"/>
<path d="M625.13 102.01v-20.00" stroke="currentColor" fill="none"/>
<use x="643.93" y="93.01" xlink:href="#hd"/>
<path d="M647.43 93.01v-21.00" stroke="currentColor" fill="none"/>
<path fill="currentColor"
	d="M647.43 72.01c0.9 3.7 9.1 6.4 6 12.4
	c1 -5.4 -4.2 -8.4 -6 -8.4
M647.43 77.41c0.9 3.7 9.1 6.4 6 12.4
	c1 -5.4 -4.2 -8.4 -6 -8.4
"/>
<use x="660.43" y="93.01" xlink:href="#hd"/>
<path d="M663.93 93.01v-20.00" stroke="currentColor" fill="none"/>
<path fill="currentColor"
	d="	M663.93 73.01c0.6 5.6 9.6 9 5.6 18.4
	c1.6 -6 -1.3 -11.6 -5.6 -12.8
"/>
<use x="679.43" y="72.01" xlink:href="#hl"/>
<use x="679.43" y="72.01" xlink:href="#hd"/>
<path d="M675.93 72.01v22.00" stroke="currentColor" fill="none"/>
<path fill="currentColor"
	d="M675.93 94.01c0.9 -3.7 9.1 -6.4 6 -12.4
	c1 5.4 -4.2 8.4 -6 8.4
M675.93 88.61c0.9 -3.7 9.1 -6.4 6 -12.4
	c1 5.4 -4.2 8.4 -6 8.4
"/>
</g>
</svg>
